<svg width="439" height="119" viewBox="0 0 439 119" fill="none" xmlns="http://www.w3.org/2000/svg">
<rect width="439" height="119" rx="12" fill="#4A75B9"/>
<path d="M40.368 73.36C38.352 73.36 36.528 73.036 34.896 72.388C33.264 71.74 31.86 70.828 30.684 69.652C29.508 68.476 28.608 67.096 27.984 65.512C27.36 63.904 27.048 62.164 27.048 60.292C27.048 58.42 27.372 56.704 28.02 55.144C28.692 53.56 29.64 52.18 30.864 51.004C32.088 49.828 33.528 48.916 35.184 48.268C36.864 47.62 38.688 47.296 40.656 47.296C42.048 47.296 43.356 47.476 44.58 47.836C45.828 48.196 46.956 48.688 47.964 49.312C48.972 49.936 49.824 50.656 50.52 51.472L46.812 55.396C46.212 54.82 45.588 54.34 44.94 53.956C44.316 53.572 43.644 53.272 42.924 53.056C42.204 52.816 41.436 52.696 40.62 52.696C39.564 52.696 38.592 52.888 37.704 53.272C36.84 53.656 36.072 54.196 35.4 54.892C34.752 55.564 34.248 56.368 33.888 57.304C33.528 58.216 33.348 59.212 33.348 60.292C33.348 61.372 33.54 62.38 33.924 63.316C34.308 64.252 34.836 65.068 35.508 65.764C36.18 66.436 36.972 66.976 37.884 67.384C38.82 67.768 39.816 67.96 40.872 67.96C41.616 67.96 42.312 67.84 42.96 67.6C43.632 67.36 44.208 67.036 44.688 66.628C45.168 66.22 45.552 65.74 45.84 65.188C46.128 64.612 46.272 64 46.272 63.352V62.416L47.064 63.64H40.116V58.852H51.96C52.008 59.116 52.044 59.476 52.068 59.932C52.092 60.388 52.104 60.832 52.104 61.264C52.128 61.696 52.14 62.02 52.14 62.236C52.14 63.868 51.84 65.368 51.24 66.736C50.664 68.08 49.848 69.244 48.792 70.228C47.736 71.212 46.488 71.98 45.048 72.532C43.608 73.084 42.048 73.36 40.368 73.36ZM65.3242 73.36C63.2122 73.36 61.3762 72.94 59.8162 72.1C58.2562 71.236 57.0442 70.072 56.1802 68.608C55.3162 67.12 54.8842 65.428 54.8842 63.532C54.8842 62.068 55.1242 60.724 55.6042 59.5C56.0842 58.276 56.7562 57.22 57.6202 56.332C58.4842 55.42 59.5042 54.724 60.6802 54.244C61.8802 53.74 63.1882 53.488 64.6042 53.488C65.9482 53.488 67.1722 53.728 68.2762 54.208C69.4042 54.688 70.3762 55.36 71.1922 56.224C72.0082 57.088 72.6322 58.108 73.0642 59.284C73.4962 60.46 73.6882 61.744 73.6402 63.136L73.6042 64.684H58.3762L57.5482 61.444H68.9242L68.3122 62.128V61.408C68.2642 60.808 68.0722 60.28 67.7362 59.824C67.4242 59.344 67.0042 58.972 66.4762 58.708C65.9482 58.444 65.3482 58.312 64.6762 58.312C63.7402 58.312 62.9362 58.504 62.2642 58.888C61.6162 59.248 61.1242 59.788 60.7882 60.508C60.4522 61.204 60.2842 62.068 60.2842 63.1C60.2842 64.156 60.5002 65.08 60.9322 65.872C61.3882 66.64 62.0362 67.24 62.8762 67.672C63.7402 68.104 64.7602 68.32 65.9362 68.32C66.7522 68.32 67.4722 68.2 68.0962 67.96C68.7442 67.72 69.4402 67.312 70.1842 66.736L72.8842 70.552C72.1402 71.2 71.3482 71.728 70.5082 72.136C69.6682 72.544 68.8042 72.844 67.9162 73.036C67.0522 73.252 66.1882 73.36 65.3242 73.36ZM78.8939 73V49.06H84.6539V73H78.8939ZM75.5099 58.924V53.884H88.3619V58.924H75.5099ZM109.053 73L101.061 53.884H107.433L112.185 68.176L110.781 68.32L115.677 53.884H121.977L113.589 73H109.053ZM131.51 73.324C129.902 73.324 128.462 72.904 127.19 72.064C125.942 71.2 124.946 70.024 124.202 68.536C123.458 67.024 123.086 65.32 123.086 63.424C123.086 61.48 123.458 59.764 124.202 58.276C124.946 56.788 125.966 55.624 127.262 54.784C128.558 53.92 130.034 53.488 131.69 53.488C132.602 53.488 133.43 53.62 134.174 53.884C134.942 54.148 135.614 54.52 136.19 55C136.766 55.456 137.258 55.996 137.666 56.62C138.074 57.22 138.374 57.868 138.566 58.564L137.378 58.42V53.884H143.102V73H137.27V68.392L138.566 68.356C138.374 69.028 138.062 69.664 137.63 70.264C137.198 70.864 136.67 71.392 136.046 71.848C135.422 72.304 134.726 72.664 133.958 72.928C133.19 73.192 132.374 73.324 131.51 73.324ZM133.094 68.464C133.982 68.464 134.75 68.26 135.398 67.852C136.046 67.444 136.55 66.868 136.91 66.124C137.27 65.356 137.45 64.456 137.45 63.424C137.45 62.392 137.27 61.504 136.91 60.76C136.55 59.992 136.046 59.404 135.398 58.996C134.75 58.564 133.982 58.348 133.094 58.348C132.23 58.348 131.474 58.564 130.826 58.996C130.202 59.404 129.71 59.992 129.35 60.76C128.99 61.504 128.81 62.392 128.81 63.424C128.81 64.456 128.99 65.356 129.35 66.124C129.71 66.868 130.202 67.444 130.826 67.852C131.474 68.26 132.23 68.464 133.094 68.464ZM156.573 73.36C154.725 73.36 153.069 72.928 151.605 72.064C150.141 71.2 148.977 70.024 148.113 68.536C147.273 67.024 146.853 65.32 146.853 63.424C146.853 61.528 147.273 59.836 148.113 58.348C148.977 56.836 150.141 55.648 151.605 54.784C153.069 53.92 154.725 53.488 156.573 53.488C158.277 53.488 159.837 53.788 161.253 54.388C162.693 54.988 163.833 55.828 164.673 56.908L161.541 60.652C161.205 60.268 160.809 59.908 160.353 59.572C159.897 59.236 159.393 58.972 158.841 58.78C158.289 58.588 157.713 58.492 157.113 58.492C156.201 58.492 155.397 58.708 154.701 59.14C154.005 59.548 153.465 60.124 153.081 60.868C152.697 61.612 152.505 62.464 152.505 63.424C152.505 64.336 152.697 65.164 153.081 65.908C153.489 66.652 154.041 67.24 154.737 67.672C155.433 68.104 156.225 68.32 157.113 68.32C157.737 68.32 158.313 68.248 158.841 68.104C159.369 67.936 159.849 67.696 160.281 67.384C160.737 67.072 161.157 66.688 161.541 66.232L164.637 70.012C163.821 71.044 162.681 71.86 161.217 72.46C159.777 73.06 158.229 73.36 156.573 73.36ZM176.19 73.36C174.342 73.36 172.686 72.928 171.222 72.064C169.758 71.2 168.594 70.024 167.73 68.536C166.89 67.024 166.47 65.32 166.47 63.424C166.47 61.528 166.89 59.836 167.73 58.348C168.594 56.836 169.758 55.648 171.222 54.784C172.686 53.92 174.342 53.488 176.19 53.488C177.894 53.488 179.454 53.788 180.87 54.388C182.31 54.988 183.45 55.828 184.29 56.908L181.158 60.652C180.822 60.268 180.426 59.908 179.97 59.572C179.514 59.236 179.01 58.972 178.458 58.78C177.906 58.588 177.33 58.492 176.73 58.492C175.818 58.492 175.014 58.708 174.318 59.14C173.622 59.548 173.082 60.124 172.698 60.868C172.314 61.612 172.122 62.464 172.122 63.424C172.122 64.336 172.314 65.164 172.698 65.908C173.106 66.652 173.658 67.24 174.354 67.672C175.05 68.104 175.842 68.32 176.73 68.32C177.354 68.32 177.93 68.248 178.458 68.104C178.986 67.936 179.466 67.696 179.898 67.384C180.354 67.072 180.774 66.688 181.158 66.232L184.254 70.012C183.438 71.044 182.298 71.86 180.834 72.46C179.394 73.06 177.846 73.36 176.19 73.36ZM187.743 73V53.884H193.503V73H187.743ZM190.623 50.104C189.543 50.104 188.691 49.852 188.067 49.348C187.467 48.82 187.167 48.076 187.167 47.116C187.167 46.252 187.479 45.544 188.103 44.992C188.727 44.44 189.567 44.164 190.623 44.164C191.703 44.164 192.543 44.428 193.143 44.956C193.743 45.46 194.043 46.18 194.043 47.116C194.043 48.004 193.731 48.724 193.107 49.276C192.507 49.828 191.679 50.104 190.623 50.104ZM198.915 73V53.884H204.387L204.567 57.772L203.415 58.204C203.679 57.34 204.147 56.56 204.819 55.864C205.515 55.144 206.343 54.568 207.303 54.136C208.263 53.704 209.271 53.488 210.327 53.488C211.767 53.488 212.979 53.788 213.963 54.388C214.947 54.964 215.691 55.84 216.195 57.016C216.699 58.168 216.951 59.584 216.951 61.264V73H211.155V61.732C211.155 60.964 211.047 60.328 210.831 59.824C210.615 59.32 210.279 58.948 209.823 58.708C209.391 58.444 208.851 58.324 208.203 58.348C207.699 58.348 207.231 58.432 206.799 58.6C206.367 58.744 205.995 58.972 205.683 59.284C205.371 59.572 205.119 59.908 204.927 60.292C204.759 60.676 204.675 61.096 204.675 61.552V73H201.831C201.159 73 200.583 73 200.103 73C199.623 73 199.227 73 198.915 73ZM230.875 73.36C228.763 73.36 226.927 72.94 225.367 72.1C223.807 71.236 222.595 70.072 221.731 68.608C220.867 67.12 220.435 65.428 220.435 63.532C220.435 62.068 220.675 60.724 221.155 59.5C221.635 58.276 222.307 57.22 223.171 56.332C224.035 55.42 225.055 54.724 226.231 54.244C227.431 53.74 228.739 53.488 230.155 53.488C231.499 53.488 232.723 53.728 233.827 54.208C234.955 54.688 235.927 55.36 236.743 56.224C237.559 57.088 238.183 58.108 238.615 59.284C239.047 60.46 239.239 61.744 239.191 63.136L239.155 64.684H223.927L223.099 61.444H234.475L233.863 62.128V61.408C233.815 60.808 233.623 60.28 233.287 59.824C232.975 59.344 232.555 58.972 232.027 58.708C231.499 58.444 230.899 58.312 230.227 58.312C229.291 58.312 228.487 58.504 227.815 58.888C227.167 59.248 226.675 59.788 226.339 60.508C226.003 61.204 225.835 62.068 225.835 63.1C225.835 64.156 226.051 65.08 226.483 65.872C226.939 66.64 227.587 67.24 228.427 67.672C229.291 68.104 230.311 68.32 231.487 68.32C232.303 68.32 233.023 68.2 233.647 67.96C234.295 67.72 234.991 67.312 235.735 66.736L238.435 70.552C237.691 71.2 236.899 71.728 236.059 72.136C235.219 72.544 234.355 72.844 233.467 73.036C232.603 73.252 231.739 73.36 230.875 73.36ZM262.78 73.36C260.932 73.36 259.276 72.928 257.812 72.064C256.348 71.2 255.184 70.024 254.32 68.536C253.48 67.024 253.06 65.32 253.06 63.424C253.06 61.528 253.48 59.836 254.32 58.348C255.184 56.836 256.348 55.648 257.812 54.784C259.276 53.92 260.932 53.488 262.78 53.488C264.484 53.488 266.044 53.788 267.46 54.388C268.9 54.988 270.04 55.828 270.88 56.908L267.748 60.652C267.412 60.268 267.016 59.908 266.56 59.572C266.104 59.236 265.6 58.972 265.048 58.78C264.496 58.588 263.92 58.492 263.32 58.492C262.408 58.492 261.604 58.708 260.908 59.14C260.212 59.548 259.672 60.124 259.288 60.868C258.904 61.612 258.712 62.464 258.712 63.424C258.712 64.336 258.904 65.164 259.288 65.908C259.696 66.652 260.248 67.24 260.944 67.672C261.64 68.104 262.432 68.32 263.32 68.32C263.944 68.32 264.52 68.248 265.048 68.104C265.576 67.936 266.056 67.696 266.488 67.384C266.944 67.072 267.364 66.688 267.748 66.232L270.844 70.012C270.028 71.044 268.888 71.86 267.424 72.46C265.984 73.06 264.436 73.36 262.78 73.36ZM281.065 73.324C279.457 73.324 278.017 72.904 276.745 72.064C275.497 71.2 274.501 70.024 273.757 68.536C273.013 67.024 272.641 65.32 272.641 63.424C272.641 61.48 273.013 59.764 273.757 58.276C274.501 56.788 275.521 55.624 276.817 54.784C278.113 53.92 279.589 53.488 281.245 53.488C282.157 53.488 282.985 53.62 283.729 53.884C284.497 54.148 285.169 54.52 285.745 55C286.321 55.456 286.813 55.996 287.221 56.62C287.629 57.22 287.929 57.868 288.121 58.564L286.933 58.42V53.884H292.657V73H286.825V68.392L288.121 68.356C287.929 69.028 287.617 69.664 287.185 70.264C286.753 70.864 286.225 71.392 285.601 71.848C284.977 72.304 284.281 72.664 283.513 72.928C282.745 73.192 281.929 73.324 281.065 73.324ZM282.649 68.464C283.537 68.464 284.305 68.26 284.953 67.852C285.601 67.444 286.105 66.868 286.465 66.124C286.825 65.356 287.005 64.456 287.005 63.424C287.005 62.392 286.825 61.504 286.465 60.76C286.105 59.992 285.601 59.404 284.953 58.996C284.305 58.564 283.537 58.348 282.649 58.348C281.785 58.348 281.029 58.564 280.381 58.996C279.757 59.404 279.265 59.992 278.905 60.76C278.545 61.504 278.365 62.392 278.365 63.424C278.365 64.456 278.545 65.356 278.905 66.124C279.265 66.868 279.757 67.444 280.381 67.852C281.029 68.26 281.785 68.464 282.649 68.464ZM297.776 73V46.36H303.536V73H297.776ZM317.43 73.36C315.318 73.36 313.482 72.94 311.922 72.1C310.362 71.236 309.15 70.072 308.286 68.608C307.422 67.12 306.99 65.428 306.99 63.532C306.99 62.068 307.23 60.724 307.71 59.5C308.19 58.276 308.862 57.22 309.726 56.332C310.59 55.42 311.61 54.724 312.786 54.244C313.986 53.74 315.294 53.488 316.71 53.488C318.054 53.488 319.278 53.728 320.382 54.208C321.51 54.688 322.482 55.36 323.298 56.224C324.114 57.088 324.738 58.108 325.17 59.284C325.602 60.46 325.794 61.744 325.746 63.136L325.71 64.684H310.482L309.654 61.444H321.03L320.418 62.128V61.408C320.37 60.808 320.178 60.28 319.842 59.824C319.53 59.344 319.11 58.972 318.582 58.708C318.054 58.444 317.454 58.312 316.782 58.312C315.846 58.312 315.042 58.504 314.37 58.888C313.722 59.248 313.23 59.788 312.894 60.508C312.558 61.204 312.39 62.068 312.39 63.1C312.39 64.156 312.606 65.08 313.038 65.872C313.494 66.64 314.142 67.24 314.982 67.672C315.846 68.104 316.866 68.32 318.042 68.32C318.858 68.32 319.578 68.2 320.202 67.96C320.85 67.72 321.546 67.312 322.29 66.736L324.99 70.552C324.246 71.2 323.454 71.728 322.614 72.136C321.774 72.544 320.91 72.844 320.022 73.036C319.158 73.252 318.294 73.36 317.43 73.36ZM329.415 73V53.884H334.887L335.067 57.772L333.915 58.204C334.179 57.34 334.647 56.56 335.319 55.864C336.015 55.144 336.843 54.568 337.803 54.136C338.763 53.704 339.771 53.488 340.827 53.488C342.267 53.488 343.479 53.788 344.463 54.388C345.447 54.964 346.191 55.84 346.695 57.016C347.199 58.168 347.451 59.584 347.451 61.264V73H341.655V61.732C341.655 60.964 341.547 60.328 341.331 59.824C341.115 59.32 340.779 58.948 340.323 58.708C339.891 58.444 339.351 58.324 338.703 58.348C338.199 58.348 337.731 58.432 337.299 58.6C336.867 58.744 336.495 58.972 336.183 59.284C335.871 59.572 335.619 59.908 335.427 60.292C335.259 60.676 335.175 61.096 335.175 61.552V73H332.331C331.659 73 331.083 73 330.603 73C330.123 73 329.727 73 329.415 73ZM359.503 73.396C357.847 73.396 356.371 72.976 355.075 72.136C353.803 71.272 352.795 70.096 352.051 68.608C351.307 67.096 350.935 65.38 350.935 63.46C350.935 61.54 351.307 59.836 352.051 58.348C352.795 56.836 353.815 55.648 355.111 54.784C356.407 53.92 357.895 53.488 359.575 53.488C360.439 53.488 361.267 53.62 362.059 53.884C362.851 54.148 363.571 54.508 364.219 54.964C364.867 55.42 365.395 55.948 365.803 56.548C366.211 57.124 366.451 57.724 366.523 58.348L365.155 58.672V46.36H370.951V73H365.587L365.263 68.644L366.415 68.824C366.343 69.424 366.103 70 365.695 70.552C365.311 71.104 364.807 71.596 364.183 72.028C363.559 72.436 362.839 72.76 362.023 73C361.231 73.264 360.391 73.396 359.503 73.396ZM360.979 68.608C361.867 68.608 362.635 68.392 363.283 67.96C363.931 67.528 364.423 66.928 364.759 66.16C365.119 65.392 365.299 64.492 365.299 63.46C365.299 62.404 365.119 61.492 364.759 60.724C364.423 59.956 363.931 59.356 363.283 58.924C362.635 58.492 361.867 58.276 360.979 58.276C360.091 58.276 359.323 58.492 358.675 58.924C358.051 59.356 357.559 59.956 357.199 60.724C356.839 61.492 356.659 62.404 356.659 63.46C356.659 64.492 356.839 65.392 357.199 66.16C357.559 66.928 358.051 67.528 358.675 67.96C359.323 68.392 360.091 68.608 360.979 68.608ZM382.878 73.324C381.27 73.324 379.83 72.904 378.558 72.064C377.31 71.2 376.314 70.024 375.57 68.536C374.826 67.024 374.454 65.32 374.454 63.424C374.454 61.48 374.826 59.764 375.57 58.276C376.314 56.788 377.334 55.624 378.63 54.784C379.926 53.92 381.402 53.488 383.058 53.488C383.97 53.488 384.798 53.62 385.542 53.884C386.31 54.148 386.982 54.52 387.558 55C388.134 55.456 388.626 55.996 389.034 56.62C389.442 57.22 389.742 57.868 389.934 58.564L388.746 58.42V53.884H394.47V73H388.638V68.392L389.934 68.356C389.742 69.028 389.43 69.664 388.998 70.264C388.566 70.864 388.038 71.392 387.414 71.848C386.79 72.304 386.094 72.664 385.326 72.928C384.558 73.192 383.742 73.324 382.878 73.324ZM384.462 68.464C385.35 68.464 386.118 68.26 386.766 67.852C387.414 67.444 387.918 66.868 388.278 66.124C388.638 65.356 388.818 64.456 388.818 63.424C388.818 62.392 388.638 61.504 388.278 60.76C387.918 59.992 387.414 59.404 386.766 58.996C386.118 58.564 385.35 58.348 384.462 58.348C383.598 58.348 382.842 58.564 382.194 58.996C381.57 59.404 381.078 59.992 380.718 60.76C380.358 61.504 380.178 62.392 380.178 63.424C380.178 64.456 380.358 65.356 380.718 66.124C381.078 66.868 381.57 67.444 382.194 67.852C382.842 68.26 383.598 68.464 384.462 68.464ZM399.552 73V53.884H405.024L405.276 60.112L404.196 58.924C404.484 57.892 404.952 56.968 405.6 56.152C406.272 55.336 407.052 54.688 407.94 54.208C408.828 53.728 409.776 53.488 410.784 53.488C411.216 53.488 411.612 53.524 411.972 53.596C412.356 53.668 412.704 53.752 413.016 53.848L411.432 60.22C411.168 60.052 410.808 59.92 410.352 59.824C409.92 59.704 409.464 59.644 408.984 59.644C408.456 59.644 407.964 59.74 407.508 59.932C407.052 60.1 406.668 60.352 406.356 60.688C406.044 61.024 405.792 61.42 405.6 61.876C405.432 62.332 405.348 62.848 405.348 63.424V73H399.552Z" fill="white"/>
</svg>
