<svg width="818" height="820" viewBox="0 0 818 820" fill="none" xmlns="http://www.w3.org/2000/svg">
<g clip-path="url(#clip0_2105_338)">
<path d="M818 0H0V820H818V0Z" fill="white"/>
<g filter="url(#filter0_d_2105_338)">
<path fill-rule="evenodd" clip-rule="evenodd" d="M286.002 736.223C352.063 713.527 416.631 667.644 530.16 686.064C643.688 704.486 722.102 554.306 680.134 480.63C661.495 456.837 648.262 425.476 680.134 375.314C709.928 280.707 652.616 221.308 599.772 193.337C546.928 165.367 418.21 107.255 310.36 147.986C202.511 188.716 158.769 252.696 151.615 297.104C144.461 341.511 173.045 345.854 178.159 416.094C183.273 486.334 112.844 602.117 141.482 665.823C170.121 729.527 219.943 758.92 286.002 736.223Z" fill="#4A75B9"/>
</g>
<path fill-rule="evenodd" clip-rule="evenodd" d="M583.811 673.902C581.463 670.405 577.581 668.331 574.011 666.1C564.862 660.387 556.963 652.904 549.168 645.44C532.926 629.889 516.831 614.184 500.883 598.33C496.869 594.338 492.839 590.308 489.604 585.658C482.191 575.009 472.744 565.79 461.926 558.649C460.384 557.631 458.719 556.624 456.874 556.547C454.678 556.456 452.67 557.692 450.845 558.919C436.661 568.456 424.014 580.282 413.539 593.804C412.246 595.474 410.917 597.401 411.158 599.501C411.337 601.054 412.347 602.366 413.324 603.582C425.613 618.885 438.845 633.425 452.919 647.093C456.74 650.802 460.633 654.46 464.02 658.572C468.699 664.251 472.335 670.708 476.537 676.752C495.938 704.653 526.94 722.831 559.453 732.552C563.467 733.751 567.656 734.846 571.799 734.228C581.023 732.852 587.315 721.641 583.698 713.022C581.108 706.852 583.045 699.832 584.696 693.346C586.346 686.861 587.538 679.456 583.811 673.902Z" fill="white"/>
<g filter="url(#filter1_d_2105_338)">
<path fill-rule="evenodd" clip-rule="evenodd" d="M589.94 508.069C593.308 500.586 601.238 495.404 609.426 495.332C613.419 495.298 617.33 496.37 621.182 497.433C638.113 502.11 655.046 506.787 671.978 511.465C676.386 512.682 680.878 513.938 684.674 516.491C688.469 519.045 691.514 523.168 691.573 527.75C691.613 530.754 690.393 533.624 689.032 536.302C687.175 539.954 684.904 543.561 681.498 545.829C674.61 550.417 665.456 548.284 657.51 545.989C639.03 540.653 620.525 535.31 602.564 528.422C596.741 526.189 590.251 522.988 588.764 516.919C588.042 513.975 588.696 510.833 589.94 508.069Z" fill="white"/>
<path d="M590.396 508.274L590.396 508.274C593.684 500.969 601.438 495.902 609.431 495.832L609.431 495.832C613.342 495.798 617.186 496.849 621.048 497.915C637.98 502.592 654.913 507.269 671.845 511.947L671.978 511.466L671.845 511.947C676.266 513.167 680.678 514.406 684.395 516.906C688.106 519.403 691.017 523.393 691.073 527.756L691.073 527.756C691.111 530.63 689.944 533.405 688.586 536.075C686.737 539.712 684.514 543.219 681.22 545.413C677.898 547.626 674.008 548.234 669.93 547.991C665.848 547.748 661.619 546.655 657.648 545.509L657.51 545.989C639.03 540.653 620.525 535.31 602.564 528.422L602.743 527.955C602.743 527.955 602.743 527.955 602.743 527.955C599.841 526.842 596.813 525.503 594.331 523.704C591.853 521.908 589.955 519.681 589.249 516.8L589.249 516.8C588.563 514.002 589.179 510.978 590.396 508.274Z" stroke="black"/>
</g>
<path fill-rule="evenodd" clip-rule="evenodd" d="M359.124 658.964C366.69 654.92 377.336 658.675 380.709 666.578C382.918 671.755 382.184 677.659 381.409 683.236C379.348 698.08 377.287 712.926 375.226 727.77C374.803 730.815 374.377 733.876 373.469 736.814C371.731 742.439 368.054 747.618 362.831 750.313C357.607 753.008 350.801 752.848 346.188 749.201C342.733 746.469 340.814 742.147 340.128 737.79C339.442 733.432 339.865 728.983 340.345 724.598C341.913 710.249 344.076 695.967 346.825 681.798C348.531 673.005 351.237 663.179 359.124 658.964Z" fill="white"/>
<path fill-rule="evenodd" clip-rule="evenodd" d="M178.057 363.515C177.213 362.4 178.656 360.996 179.896 360.352C194.111 352.971 208.487 345.898 223.01 339.143C226.804 337.378 230.672 335.614 234.807 334.98C238.943 334.345 243.453 334.971 246.724 337.586C250.601 340.685 252.063 345.956 252.304 350.921C252.504 355.023 251.896 359.449 249.153 362.499C247.893 363.901 246.269 364.912 244.662 365.893C229.838 374.943 214.473 383.101 198.676 390.308C193.896 392.488 188.384 394.597 183.562 392.514C181.753 391.733 180.218 390.41 178.931 388.914C172.967 381.981 172.583 370.843 178.057 363.515Z" fill="white"/>
<path fill-rule="evenodd" clip-rule="evenodd" d="M319.902 220.295C319.016 227.367 322.274 234.811 328.067 238.945C330.801 240.896 331.809 244.625 331.375 247.962C330.941 251.298 329.308 254.344 327.642 257.266C326.393 259.457 325.049 261.693 323 263.159C320.952 264.625 318.001 265.126 315.937 263.684C308.012 258.148 297.274 260.311 287.914 262.695C284.81 263.486 281.792 261.35 279.296 259.341C276.127 256.791 272.959 254.242 269.79 251.692C268.652 250.776 267.482 249.821 266.814 248.521C265.988 246.908 266.049 244.992 266.254 243.19C267.279 234.168 271.344 225.793 275.771 217.872C280.344 209.687 286.742 200.886 296.074 200.192C298.508 200.01 301.2 200.555 302.742 202.452C305.478 205.819 309.705 207.508 313.354 209.85C317.003 212.192 320.443 215.985 319.902 220.295Z" fill="white"/>
<path fill-rule="evenodd" clip-rule="evenodd" d="M264.916 240.026C262.167 242.466 258.183 243.114 254.554 242.549C250.925 241.985 247.56 240.35 244.294 238.666C227.127 229.813 210.948 219.04 196.154 206.608C195.019 205.655 193.87 204.667 193.117 203.388C192.23 201.887 191.958 200.107 191.787 198.371C189.961 179.849 198.369 160.638 213.202 149.442C219.25 144.878 227.892 141.671 234.155 145.934C248.451 155.664 262.455 165.825 276.144 176.395C282.127 181.017 288.181 185.862 292.086 192.344C293.428 194.572 294.395 197.701 292.577 199.558C290.318 192.538 255.716 240.642 264.916 240.026Z" fill="white"/>
<path fill-rule="evenodd" clip-rule="evenodd" d="M162.486 696.259C154.94 698.996 144.764 695.851 142.719 688.073C139.301 675.067 158.143 668.419 165.183 656.969C173.538 643.378 163.523 626.214 153.681 613.664C146.699 619.515 136.527 625.53 129.336 619.938C120.627 613.167 127.955 599.013 136.836 592.471C152.765 580.738 173.136 575.227 192.791 577.335C197.795 539.975 216.939 504.695 245.508 480.185C274.077 455.676 311.806 442.164 349.399 442.978C345.197 369.908 387.457 296.219 452.563 263.091C459.631 259.495 467.198 256.286 475.123 256.333C483.049 256.381 491.416 260.425 494.424 267.776C497.432 275.126 492.769 285.215 484.871 285.886C481.192 286.198 449.278 297.588 452.563 296.868C494.424 287.692 594.623 360.892 648.567 360.892C653.41 360.892 665.981 342.99 669.388 340.596C672.517 338.399 681.131 337.154 684.896 337.803C694.712 339.494 694.024 354.025 689.801 363.067C664.618 417.004 608.199 450.944 550.201 463.835C492.204 476.726 431.92 471.63 372.737 466.471C368.642 508.901 362.859 555.044 332.576 584.97C303.784 613.422 258.245 619.678 219.269 608.913C219.269 603.049 219.269 603.049 219.601 586.992C212.84 620.322 199.248 652.245 179.916 680.198C175.344 686.808 170.032 693.522 162.486 696.259Z" fill="white"/>
<path d="M571.085 179.374C568.691 182.499 566.297 185.624 563.904 188.749C562.612 190.435 560.082 192.207 558.706 190.588C556.298 187.753 551.846 188.552 548.208 187.798C545.852 187.309 543.721 186.092 541.635 184.891C511.467 167.543 481.299 150.196 451.131 132.848C448.747 131.478 446.166 129.866 445.376 127.227C452.264 115.143 463.89 98.4965 464.554 98.8989C471.79 104.126 479.156 109.171 486.643 114.027C510.399 129.435 535.332 142.923 559.587 157.526C561.947 158.948 564.534 160.711 564.974 163.436C565.313 165.534 563.778 170.729 565.227 169.724C566.007 169.182 567.063 169.669 567.877 170.157C570.34 171.633 573.166 173.879 572.569 176.693C572.356 177.702 571.711 178.557 571.085 179.374Z" fill="white"/>
<path fill-rule="evenodd" clip-rule="evenodd" d="M445.771 299.855C447.482 299.574 449.029 298.426 449.796 296.868C462.523 298.129 475.14 300.512 487.452 303.984C515.315 311.841 541.317 325.155 566.613 339.256C592.522 353.7 621.631 362.336 651.208 364.354C651.432 365.975 650.068 367.473 648.515 367.977C646.963 368.48 645.279 368.236 643.666 367.986C619.145 364.202 593.86 360.144 572.816 346.971C551.341 333.53 528.531 322.235 504.833 313.306C498.719 311.003 492.544 308.856 486.273 307.03C473.081 303.189 459.476 300.779 445.771 299.855Z" fill="#00160A"/>
<path d="M590.396 508.274L590.396 508.274C593.684 500.969 601.438 495.902 609.431 495.832L609.431 495.832C613.342 495.798 617.186 496.849 621.048 497.915C637.98 502.592 654.913 507.269 671.845 511.947L671.978 511.466L671.845 511.947C676.266 513.167 680.678 514.406 684.395 516.906C688.106 519.403 691.017 523.393 691.073 527.756L691.073 527.756C691.111 530.63 689.944 533.405 688.586 536.075C686.737 539.712 684.514 543.219 681.22 545.413C677.898 547.626 674.008 548.234 669.93 547.991C665.848 547.748 661.619 546.655 657.648 545.509L657.51 545.989C639.03 540.653 620.525 535.31 602.564 528.422L602.743 527.955C602.743 527.955 602.743 527.955 602.743 527.955C599.841 526.842 596.813 525.503 594.331 523.704C591.853 521.908 589.955 519.681 589.249 516.8L589.249 516.8C588.563 514.002 589.179 510.978 590.396 508.274ZM681.533 517.871L681.533 517.871L637 537.56L636.901 538.051C636.901 538.051 636.901 538.051 636.901 538.051C645.232 539.728 653.484 541.8 661.62 544.26L661.764 543.781L661.62 544.26L661.622 544.261C664.215 545.045 666.976 545.879 669.722 546.249C672.474 546.62 675.248 546.53 677.865 545.437C681.785 543.8 684.476 540.231 686.703 536.804C687.983 534.834 689.224 532.549 689.853 530.22C690.484 527.887 690.512 525.465 689.299 523.279C687.689 520.378 684.41 518.976 681.533 517.871Z" fill="#C5E4F6" stroke="black"/>
<path fill-rule="evenodd" clip-rule="evenodd" d="M279.062 182.679C278.205 182.175 277.278 181.701 276.284 181.693C275.212 181.685 274.219 182.216 273.292 182.754C255.46 193.091 242.584 211.625 239.093 231.974C246.323 237.713 255.716 240.642 264.916 240.026C262.167 242.466 258.183 243.114 254.554 242.549C250.925 241.985 247.56 240.35 244.294 238.666C227.127 229.813 210.948 219.04 196.154 206.608C195.019 205.655 193.87 204.667 193.117 203.388C192.23 201.887 191.958 200.107 191.787 198.371C189.961 179.849 198.369 160.638 213.202 149.442C219.25 144.878 227.892 141.671 234.155 145.934C248.451 155.664 262.455 165.825 276.144 176.395C282.127 181.017 288.181 185.862 292.086 192.344C293.428 194.572 294.395 197.701 292.577 199.558C290.318 192.538 285.411 186.409 279.062 182.679ZM203.203 163.474C201.169 166.17 199.157 168.929 197.85 172.046C196.358 175.604 195.847 179.485 195.349 183.313C194.451 190.215 193.765 197.956 198.047 203.437C199.579 205.398 201.628 206.877 203.647 208.329C212.671 214.818 221.696 221.306 230.719 227.795C231.797 228.57 232.935 229.37 234.25 229.546C235.567 229.722 237.099 229.04 237.408 227.747C242.105 208.035 255.146 190.467 272.631 180.295C273.749 179.645 272.807 177.943 271.821 177.106C263.024 169.636 253.678 162.815 243.885 156.714C243.339 156.374 242.762 156.026 242.119 155.986C241.292 155.933 240.529 156.399 239.832 156.851C231.221 162.44 222.949 168.789 216.591 176.86C210.234 184.93 205.884 194.898 205.94 205.182C205.478 206.009 204.333 204.889 204.18 203.952C202.938 196.333 206.154 188.681 210.204 182.115C217.241 170.705 227.054 161.031 238.551 154.167C235.119 147.7 226.023 146.136 219.263 148.92C212.504 151.702 207.612 157.631 203.203 163.474Z" fill="#00160A"/>
<path d="M340.842 724.652L340.842 724.652C340.361 729.043 339.947 733.429 340.622 737.712C341.295 741.99 343.173 746.179 346.499 748.809C350.932 752.314 357.521 752.49 362.602 749.869C367.679 747.249 371.283 742.194 372.992 736.666C373.885 733.773 374.307 730.753 374.731 727.701C374.731 727.701 374.731 727.701 374.731 727.701L380.914 683.167C381.692 677.566 382.395 671.803 380.249 666.774L340.842 724.652ZM340.842 724.652C342.409 710.317 344.569 696.049 347.316 681.894M340.842 724.652L347.316 681.894M347.316 681.894C347.316 681.894 347.316 681.894 347.316 681.894L347.492 680.999C347.492 680.999 347.492 680.999 347.493 680.998C348.35 676.731 349.466 672.314 351.302 668.466C353.136 664.621 355.673 661.375 359.359 659.405L359.359 659.405C362.999 657.46 367.403 657.38 371.322 658.762C375.241 660.145 378.626 662.972 380.249 666.774L347.316 681.894ZM373.292 709.936C374.036 711.427 373.995 713.124 373.853 714.656L373.852 714.659L373.787 715.31L373.786 715.314C373.259 720.19 372.53 725.045 371.6 729.862C370.599 735.051 368.986 740.946 364.33 743.935L364.33 743.935C360.466 746.414 355.505 746.174 351.214 745.076C348.536 744.392 345.559 743.184 344.11 740.588C343.157 738.88 343.054 736.89 343.081 735.051L343.081 735.047L343.097 734.317L343.097 734.315C343.25 728.879 343.678 723.455 344.293 718.058L344.293 718.058C344.746 714.093 345.299 710.143 345.921 706.204L345.959 705.967L346.168 705.848C346.722 705.532 347.261 705.238 347.787 704.967L348.562 704.567L348.556 704.676C352.123 703.332 355.989 703.142 359.72 703.226C362.797 703.296 364.388 703.75 365.605 704.353C366.042 704.57 366.433 704.808 366.807 705.036C366.937 705.115 367.064 705.192 367.191 705.267C367.692 705.564 368.224 705.85 368.933 706.102L368.973 706.116L369.01 706.137C369.406 706.359 369.798 706.593 370.182 706.841M373.292 709.936C372.607 708.564 371.369 707.602 370.182 706.841M373.292 709.936L372.844 710.159L373.292 709.936C373.292 709.936 373.292 709.936 373.292 709.936ZM370.182 706.841C370.181 706.841 370.181 706.84 370.18 706.84L369.91 707.261L370.182 706.841Z" fill="#C5E4F6" stroke="black"/>
<path d="M225.473 341.453L225.254 341.004C227.356 339.975 229.502 338.924 231.768 338.176C234.787 337.181 238.116 336.734 241.264 337.538C244.411 338.343 247.347 340.546 248.481 343.674L248.011 343.845L248.481 343.674C250.013 347.901 251.644 352.793 249.961 357.227L249.961 357.227C248.264 361.694 243.751 364.259 239.762 366.389C234.549 369.175 229.337 371.96 224.123 374.745C223.033 375.328 221.624 376.055 220.176 375.736L220.176 375.735C219.088 375.495 218.245 374.714 217.561 374.078C213.889 370.662 209.851 366.757 208.928 361.594C208.303 358.105 209.22 354.565 210.088 351.281C210.088 351.281 210.088 351.281 210.088 351.28L210.088 351.28C210.309 350.443 210.563 349.48 211.13 348.675L225.473 341.453ZM225.473 341.453L225.254 341.004C221.606 342.791 217.959 344.577 214.313 346.365C213.217 346.901 211.931 347.536 211.13 348.675L225.473 341.453ZM178.457 363.814L178.682 363.513L178.455 363.213C178.324 363.04 178.289 362.873 178.31 362.7C178.333 362.512 178.426 362.291 178.601 362.048C178.953 361.559 179.554 361.093 180.126 360.795C194.335 353.418 208.705 346.348 223.221 339.597L223.221 339.597C227.023 337.827 230.829 336.096 234.883 335.474L234.883 335.474C238.933 334.852 243.285 335.477 246.412 337.977L246.412 337.977C250.122 340.942 251.566 346.033 251.804 350.945C252.002 355.006 251.39 359.264 248.781 362.165L248.781 362.165C247.578 363.504 246.016 364.481 244.401 365.466L244.401 365.466C229.595 374.506 214.247 382.654 198.468 389.853C196.083 390.941 193.553 391.993 191.033 392.52C188.516 393.047 186.046 393.042 183.761 392.055C182.044 391.313 180.567 390.048 179.31 388.588C173.498 381.833 173.123 370.955 178.457 363.814Z" fill="#C5E4F6" stroke="black"/>
<path fill-rule="evenodd" clip-rule="evenodd" d="M422.632 77.5931C423.17 76.7897 424.279 76.5397 425.224 76.7424C426.167 76.9452 426.987 77.5104 427.779 78.0631C433.367 81.9615 438.954 85.86 444.542 89.7584C445.476 90.4107 446.49 91.1818 446.678 92.3079C446.269 93.2228 444.894 92.7895 444.067 92.2252C436.922 87.3478 429.777 82.4705 422.632 77.5931Z" fill="#00160A"/>
<path fill-rule="evenodd" clip-rule="evenodd" d="M492.099 137.359C491.245 137.243 491.468 135.937 491.925 135.205C493.635 132.466 495.346 129.728 497.056 126.99C497.656 127.101 497.576 127.99 497.33 128.549C495.946 131.68 494.186 134.645 492.099 137.359Z" fill="#00160A"/>
<path fill-rule="evenodd" clip-rule="evenodd" d="M412.503 591.619C422.848 579.623 434.467 568.732 447.1 559.19C450.021 556.983 453.207 554.768 456.855 554.517C462.647 554.117 467.467 558.657 471.479 562.864C482.033 573.936 492.589 585.006 503.143 596.077C515.592 609.133 528.047 622.196 541.117 634.628C555.118 647.943 569.871 660.568 586.137 670.98C591.12 674.169 591.502 681.41 589.891 687.112C588.279 692.814 585.232 698.262 585.285 704.188C585.306 706.696 585.891 709.159 586.275 711.639C587.387 718.833 586.663 726.637 582.524 732.619C578.384 738.601 570.264 742.113 563.515 739.423C537.273 728.959 510.318 718.045 489.968 698.415C484.913 693.539 480.339 688.188 475.775 682.847C454.329 657.749 432.885 632.653 411.439 607.556C410.034 605.912 408.581 604.175 408.126 602.059C407.303 598.226 409.946 594.585 412.503 591.619ZM583.811 673.902C581.463 670.404 577.582 668.331 574.011 666.1C564.862 660.387 556.964 652.904 549.168 645.44C532.927 629.889 516.831 614.184 500.884 598.33C496.869 594.337 492.84 590.308 489.604 585.658C482.193 575.009 472.745 565.79 461.927 558.649C460.384 557.631 458.719 556.624 456.874 556.547C454.678 556.456 452.67 557.692 450.846 558.919C436.662 568.456 424.014 580.282 413.539 593.804C412.246 595.474 410.917 597.401 411.16 599.501C411.337 601.053 412.347 602.366 413.326 603.582C425.613 618.885 438.845 633.425 452.92 647.093C456.74 650.802 460.633 654.46 464.02 658.572C468.699 664.251 472.335 670.708 476.537 676.75C495.938 704.653 526.94 722.831 559.454 732.551C563.467 733.751 567.656 734.846 571.798 734.228C581.024 732.852 587.315 721.641 583.698 713.022C581.108 706.852 583.045 699.832 584.696 693.346C586.346 686.861 587.538 679.456 583.811 673.902Z" fill="#00160A"/>
<path fill-rule="evenodd" clip-rule="evenodd" d="M478.54 117.202C477.339 119.442 476.137 121.683 474.936 123.922C474.466 120.684 476.608 117.709 478.631 115.143C479.204 115.622 478.893 116.544 478.54 117.202Z" fill="#00160A"/>
<path fill-rule="evenodd" clip-rule="evenodd" d="M485.144 124.695C485.395 127.04 484.379 129.482 482.542 130.954C482.331 128.612 483.337 126.194 485.144 124.695Z" fill="#00160A"/>
<path fill-rule="evenodd" clip-rule="evenodd" d="M516.141 138.887C515.754 141.33 514.522 143.631 512.705 145.304C511.955 145.995 511.095 146.588 510.127 146.907C509.75 146.422 510.167 145.738 510.569 145.277C512.427 143.147 514.284 141.017 516.141 138.887Z" fill="#00160A"/>
<path fill-rule="evenodd" clip-rule="evenodd" d="M502.389 139.697C502.706 138.636 503.263 137.647 504.005 136.827C504.752 136.716 504.672 137.958 504.253 138.587C503.579 139.597 502.905 140.607 502.232 141.618C501.512 141.258 501.517 140.022 502.239 139.667L502.389 139.697Z" fill="#00160A"/>
<path fill-rule="evenodd" clip-rule="evenodd" d="M536.05 152.147C535.556 153.38 534.438 154.343 533.147 154.647C534.137 153.06 535.126 151.474 536.115 149.887C536.571 150.553 536.544 151.514 536.051 152.153L536.05 152.147Z" fill="#00160A"/>
<path fill-rule="evenodd" clip-rule="evenodd" d="M550.333 162.455C550.5 161.842 551.206 161.435 551.819 161.597C551.394 162.819 550.788 163.978 550.026 165.023C549.286 164.371 549.424 162.99 550.28 162.499L550.333 162.455Z" fill="#00160A"/>
<path fill-rule="evenodd" clip-rule="evenodd" d="M319.902 220.295C319.016 227.367 322.274 234.811 328.067 238.945C330.801 240.896 331.809 244.625 331.375 247.962C330.941 251.298 329.308 254.344 327.642 257.266C326.393 259.457 325.049 261.693 323 263.159C320.952 264.625 318.001 265.126 315.937 263.684C308.012 258.148 297.274 260.311 287.914 262.695C284.81 263.486 281.792 261.35 279.296 259.341C276.127 256.791 272.959 254.242 269.79 251.692C268.652 250.776 267.482 249.821 266.814 248.521C265.988 246.908 266.049 244.992 266.254 243.19C267.279 234.168 271.344 225.793 275.771 217.872C280.344 209.687 286.742 200.886 296.074 200.192C298.508 200.01 301.2 200.555 302.742 202.452C305.478 205.819 309.705 207.508 313.354 209.85C317.003 212.192 320.443 215.985 319.902 220.295ZM281.817 219.641C281.067 219.242 280.2 218.832 279.402 219.124C278.88 219.315 278.507 219.77 278.169 220.211C274.051 225.566 271.01 231.748 269.279 238.282C268.739 240.319 268.336 242.531 269.104 244.492C269.711 246.043 270.971 247.228 272.192 248.357C274.947 250.905 277.703 253.452 280.458 256.001C282.356 257.755 284.704 259.642 287.223 259.074C296.364 257.014 306.36 255.043 314.753 259.215C318.227 260.942 322.618 259.115 325.046 256.085C327.474 253.054 328.406 249.124 329.272 245.335C322.479 240.158 317.322 232.854 314.71 224.71C314.345 223.573 312.622 224.283 311.803 225.151C307.239 229.993 302.673 234.834 298.108 239.675C295.08 242.885 291.818 246.863 292.724 251.186C292.972 252.367 290.967 252.875 290.198 251.947C289.428 251.017 289.646 249.638 289.996 248.483C293.253 237.721 303.466 230.915 310.873 222.469C312.318 220.821 313.746 218.853 313.56 216.666C313.365 214.368 311.469 212.637 309.705 211.158C306.299 208.304 302.72 205.387 298.414 204.305C294.108 203.222 288.861 204.543 286.784 208.477C293.377 211.526 299.76 215.037 305.868 218.973C306.734 219.532 307.631 220.826 306.773 221.396C301.575 218.489 296.377 215.581 291.179 212.674C289.561 211.77 287.885 210.846 286.043 210.655C284.199 210.465 282.128 211.199 281.312 212.867C280.263 215.013 281.738 217.65 283.741 218.944C285.746 220.239 288.175 220.653 290.382 221.556C293.614 222.878 296.387 225.299 298.136 228.326C292.696 225.431 287.257 222.536 281.817 219.641Z" fill="#00160A"/>
<path fill-rule="evenodd" clip-rule="evenodd" d="M540.545 162.228C540.337 162.962 539.724 163.567 538.988 163.765C539.246 161.659 540.481 159.696 542.264 158.554C542.305 159.924 541.586 161.293 540.435 162.034L540.545 162.228Z" fill="#00160A"/>
<path fill-rule="evenodd" clip-rule="evenodd" d="M523.293 151.301C522.968 152.033 522.226 152.563 521.429 152.632C521.607 151.269 522.161 149.958 523.012 148.881C523.345 148.459 523.769 148.049 524.302 147.99C524.835 147.931 525.433 148.415 525.292 148.934C524.599 149.687 523.906 150.44 523.213 151.193L523.293 151.301Z" fill="#00160A"/>
<path fill-rule="evenodd" clip-rule="evenodd" d="M412.32 326.82C412.461 327.207 411.79 327.542 411.567 327.194C411.437 326.832 411.533 326.397 411.805 326.125C412.005 326.325 412.205 326.526 412.406 326.727L412.32 326.82Z" fill="#00160A"/>
<path fill-rule="evenodd" clip-rule="evenodd" d="M572.03 189.203C573.055 188.546 574.107 187.863 574.802 186.862C575.498 185.86 575.754 184.45 575.094 183.424C573.838 183.26 572.672 182.501 572.012 181.417C571.984 180.766 572.644 180.179 573.284 180.284C574.521 180.826 575.809 181.407 576.647 182.467C577.486 183.528 577.693 185.223 576.73 186.171C586.105 192.632 595.479 199.094 604.853 205.554C604.289 205.97 603.499 205.706 602.863 205.417C594.491 201.604 587.441 195.452 579.788 190.344C578.011 189.159 575.354 188.134 574.006 189.792C572.2 192.011 567.997 191.252 567.077 188.542C566.905 187.53 568.607 187.472 569.39 188.134C570.173 188.797 571.166 189.757 572.03 189.203Z" fill="#00160A"/>
<path fill-rule="evenodd" clip-rule="evenodd" d="M555.771 673.738C557.448 671.549 559.172 669.397 560.941 667.281C561.462 666.658 561.997 666.029 562.676 665.583C565.263 663.886 568.694 665.422 571.279 667.122C574.131 668.998 576.85 671.076 579.409 673.337C581.529 675.21 583.636 677.38 584.216 680.152C584.795 682.924 583.13 686.327 580.315 686.571C578.589 689.709 576.127 692.435 573.183 694.469C571.514 695.623 569.228 694.913 567.414 694.002C562.217 691.393 557.729 687.38 554.553 682.499C554.046 681.721 553.564 680.9 553.38 679.988C552.927 677.729 554.371 675.566 555.771 673.738ZM572.815 693.178C574.362 690.97 575.91 688.762 577.457 686.554C575.968 684.787 573.251 684.784 571.302 683.548C570.236 682.871 569.441 681.85 568.669 680.849C566.407 677.918 564.145 674.987 561.884 672.057C559.997 674.033 558.246 676.139 556.646 678.354C556.412 678.678 556.175 679.023 556.133 679.42C556.086 679.874 556.303 680.309 556.526 680.707C559.948 686.86 565.993 691.487 572.815 693.178ZM569.934 668.602C568.487 667.606 566.249 666.719 565.23 668.154C564.612 669.025 564.933 670.231 565.343 671.218C567.612 676.687 572.032 681.225 577.431 683.633C578.98 684.324 581.336 684.517 581.862 682.9C582.057 682.302 581.893 681.648 581.687 681.054C579.791 675.555 574.719 671.896 569.934 668.602Z" fill="#00160A"/>
<path fill-rule="evenodd" clip-rule="evenodd" d="M436.734 596.438C435.819 597.767 434.904 599.096 433.99 600.425C433.123 601.684 432.227 603.024 432.113 604.55C432.013 605.913 432.556 607.237 433.158 608.465C435.807 613.858 439.849 618.556 444.783 621.974C443.424 623.655 440.707 622.671 438.983 621.368C434.43 617.924 430.998 613.013 429.321 607.548C428.912 606.212 428.603 604.812 428.754 603.423C429.07 600.53 431.271 598.255 433.349 596.222C435.869 593.758 438.784 591.127 442.303 591.177C444.618 591.211 446.747 592.433 448.591 593.833C453.911 597.874 457.965 604.454 456.785 611.039C456.495 612.657 455.283 614.569 453.706 614.119C447.971 612.48 442.877 608.678 439.667 603.64C438.991 602.58 438.343 601.414 437.245 600.806C437.212 599.338 437.041 597.874 436.734 596.438ZM442.133 595.621C440.638 596.564 440.46 598.738 441.026 600.415C442.548 604.918 447.582 607.065 450.683 610.662C451.084 611.129 451.494 611.649 452.086 611.817C452.982 612.072 453.927 611.356 454.251 610.479C454.575 609.602 454.435 608.629 454.26 607.711C453.758 605.066 452.983 602.43 451.538 600.16C450.092 597.892 447.909 596.007 445.305 595.348C444.247 595.081 443.057 595.038 442.133 595.621Z" fill="#00160A"/>
<path fill-rule="evenodd" clip-rule="evenodd" d="M543.178 639.326C544.235 639.842 544.795 640.998 545.277 642.072C546.003 643.691 546.728 645.309 547.455 646.928C547.759 647.604 548.068 648.303 548.095 649.044C548.135 650.153 547.567 651.383 548.189 652.301C545.27 654.617 542.532 657.159 540.002 659.897C539.314 660.641 538.605 661.427 537.662 661.798C535.894 662.491 533.928 661.528 532.376 660.432C528.724 657.854 525.71 654.372 523.683 650.381C522.65 648.347 522.019 645.52 523.772 644.062C524.336 643.593 524.519 642.819 524.727 642.112C525.698 638.822 527.961 635.933 530.92 634.207C531.349 633.956 531.809 633.724 532.305 633.706C532.736 633.689 533.155 633.836 533.562 633.98C535.725 634.749 537.889 635.518 540.051 636.285C540.958 636.608 542.052 637.217 541.919 638.171C541.835 638.781 542.625 639.057 543.178 639.326ZM526.888 641.193C525.875 643.358 524.859 645.751 525.455 648.066C525.687 648.967 526.153 649.789 526.664 650.566C528.531 653.4 531.078 655.78 534.03 657.447C535.931 658.519 538.479 659.235 540.159 657.842C541.452 656.771 541.869 654.69 543.452 654.135C544.293 653.841 544.344 652.563 543.768 651.883C543.191 651.202 542.274 650.949 541.433 650.656C536.743 649.017 532.962 644.976 531.63 640.18C531.511 639.752 531.402 639.303 531.12 638.959C530.508 638.22 529.289 638.292 528.512 638.855C527.736 639.417 527.295 640.324 526.888 641.193ZM545.254 648.99C546.484 646.664 544.551 643.977 542.747 642.063C541.646 640.896 540.544 639.727 539.444 638.559C538.609 637.675 537.713 636.751 536.54 636.432C535.368 636.112 533.865 636.685 533.635 637.881C533.536 638.396 533.683 638.924 533.855 639.42C535.57 644.344 540.117 648.162 545.254 648.99Z" fill="#00160A"/>
<path fill-rule="evenodd" clip-rule="evenodd" d="M519.626 665.583C523.427 666.246 526.347 669.217 528.991 672.034C530.056 673.169 531.134 674.322 531.867 675.697C533.598 678.946 533.126 683.019 531.539 686.341C529.951 689.663 527.381 692.395 524.852 695.067C523.353 696.65 521.511 698.366 519.35 698.107C518.548 698.01 517.805 697.641 517.097 697.25C510.77 693.762 505.697 688.041 502.983 681.334C502.626 680.453 502.303 679.509 502.44 678.568C502.573 677.645 503.129 676.846 503.67 676.087C505.624 673.338 507.615 670.551 510.252 668.454C512.89 666.357 516.31 665.005 519.626 665.583ZM507.022 677.28C506.017 678.302 504.841 679.397 504.792 680.832C504.769 681.48 504.991 682.112 505.246 682.708C507.615 688.262 512.857 691.948 517.845 695.335C518.17 695.556 518.517 695.784 518.91 695.809C519.343 695.837 519.75 695.612 520.115 695.374C521.922 694.201 523.406 692.602 524.87 691.02C525.603 690.228 526.37 689.366 526.527 688.298C526.683 687.229 525.899 685.962 524.826 686.058C522.577 686.26 520.405 685.102 518.705 683.613C515.712 680.994 513.746 677.227 513.305 673.269C513.153 671.905 513.117 670.382 512.157 669.402C510.989 672.334 509.232 675.03 507.022 677.28ZM518.635 668.868C517.687 668.794 516.667 668.946 515.949 669.568C514.296 670.997 515.193 673.712 516.4 675.536C518.234 678.303 520.526 680.763 523.156 682.783C524.153 683.549 525.23 684.267 526.457 684.531C527.684 684.795 529.094 684.52 529.908 683.562C530.726 682.6 530.77 681.163 530.359 679.968C529.948 678.773 529.153 677.757 528.398 676.745C525.812 673.277 522.941 669.201 518.635 668.868Z" fill="#00160A"/>
<path fill-rule="evenodd" clip-rule="evenodd" d="M482.762 661.069C481.352 662.15 479.38 662.28 477.679 661.769C475.978 661.259 474.503 660.183 473.159 659.021C469.883 656.188 467.162 652.715 465.195 648.853C464.146 646.795 463.295 644.538 463.463 642.233C463.714 638.786 466.158 635.933 468.625 633.518C469.783 632.384 471.054 631.24 472.634 630.884C474.175 630.535 475.782 630.99 477.249 631.577C484.685 634.553 490.545 641.217 492.558 648.985C491.459 654.177 486.966 657.842 482.762 661.069ZM477.052 657.765C478.653 658.715 480.567 659.525 482.331 658.93C484.077 658.342 485.117 656.56 485.773 654.835C483.751 652.461 480.714 651.222 478.364 649.174C474.189 645.534 472.626 639.809 471.268 634.432C468.969 636.344 467.135 638.813 465.965 641.568C465.629 642.361 465.342 643.209 465.433 644.065C465.499 644.681 465.756 645.257 466.028 645.812C468.446 650.752 472.329 654.961 477.052 657.765ZM473.143 636.537C473.054 637.379 473.468 638.185 473.894 638.918C476.475 643.364 479.921 647.305 483.98 650.451C485.219 651.411 486.923 652.323 488.257 651.5C489.051 651.009 489.417 650.029 489.496 649.097C489.706 646.587 488.26 644.265 486.78 642.231C484.573 639.199 482.014 636.211 478.548 634.793C477.528 634.376 476.402 634.105 475.328 634.343C474.252 634.582 473.26 635.44 473.143 636.537Z" fill="#00160A"/>
<path fill-rule="evenodd" clip-rule="evenodd" d="M402.088 88.5969C400.555 90.6229 399.284 94.0666 401.549 95.2148C403.324 96.1153 405.245 94.3678 406.474 92.7988C411.293 86.6446 416.112 80.4904 420.931 74.3362C422.107 76.4356 420.761 79.0055 419.448 81.0214C415.804 86.615 411.949 92.4124 406.174 95.7468C416.121 100.652 425.606 106.495 434.466 113.173C438.257 111.732 441.406 108.674 442.961 104.921C441.882 105.951 440.123 105.176 438.873 104.363C431.001 99.2383 423.292 93.8601 415.764 88.2391C416.294 86.8056 418.445 87.427 419.704 88.29C426.68 93.0719 433.656 97.8537 440.632 102.635C442.336 103.804 444.446 101.912 445.637 100.22C448.252 96.5094 450.866 92.7984 453.481 89.0875C454.442 87.7238 455.491 86.2894 457.043 85.6846C459.692 84.652 462.539 86.4109 464.839 88.0854C465.514 88.5764 466.222 89.1102 466.523 89.8896C467.043 91.2378 466.159 92.6857 465.317 93.8592C457.126 105.276 448.934 116.693 440.742 128.109C440.37 128.629 439.98 129.162 439.426 129.479C438.013 130.289 436.23 129.359 435.052 128.232C433.386 126.638 430.868 123.98 432.335 121.306C433.802 118.633 433.863 118.514 435.096 116.475C424.7 108.56 413.868 100.437 401.121 97.6106C398.95 97.129 397.768 94.5739 398.026 92.3592C398.284 90.1447 399.59 88.2131 400.857 86.3806C403.866 82.028 406.875 77.6756 409.886 73.3231C410.659 72.2038 411.451 71.0655 412.527 70.2341C414.485 68.7212 417.319 68.4474 419.528 69.5576C421.739 70.6677 423.217 73.1066 423.18 75.5847C421.846 74.2768 420.456 72.9327 418.704 72.2907C416.951 71.6488 414.724 71.908 413.596 73.3979C409.76 78.4642 405.924 83.5306 402.088 88.5969ZM433.457 122.205C433.457 124.497 435.229 125.744 436.576 126.266C437.923 126.787 439.667 126.581 440.505 125.401C447.892 114.996 455.28 104.591 462.667 94.186C462.989 93.732 463.318 93.2651 463.46 92.7264C463.763 91.5736 463.121 90.3382 462.191 89.596C461.259 88.8538 460.088 88.5011 458.947 88.1644C458.432 88.0125 457.864 87.8638 457.377 88.0885C457.048 88.2401 456.815 88.5386 456.594 88.8266C450.416 96.9139 444.523 105.221 438.93 113.726C438.71 113.297 434.963 118.729 433.457 122.205Z" fill="#00160A"/>
<path fill-rule="evenodd" clip-rule="evenodd" d="M323.445 245.193C323.201 246.783 321.894 247.948 320.856 249.173C318.58 251.856 317.389 255.269 316.246 258.598C314.902 257.129 314.686 254.89 315.198 252.962C315.71 251.036 316.843 249.343 317.958 247.692C318.599 246.742 319.269 245.765 320.242 245.162C321.214 244.561 322.583 244.44 323.445 245.193Z" fill="#00160A"/>
<path fill-rule="evenodd" clip-rule="evenodd" d="M571.085 179.374C568.691 182.499 566.297 185.624 563.904 188.749C562.612 190.435 560.082 192.207 558.706 190.588C556.298 187.753 551.846 188.552 548.208 187.798C545.852 187.309 543.721 186.092 541.635 184.891C511.467 167.544 481.299 150.196 451.131 132.849C448.747 131.478 446.166 129.866 445.376 127.227C477.647 144.582 509.376 162.948 540.504 182.288C544.321 184.66 549.587 186.956 552.889 183.903C553.837 183.027 554.422 181.835 554.985 180.671C557.887 174.674 560.789 168.677 563.69 162.68C531.101 141.672 495.532 125.293 464.584 101.924C463.964 101.456 463.299 100.91 463.175 100.142C463.05 99.3745 463.89 98.4966 464.554 98.8989C471.79 104.126 479.156 109.171 486.643 114.027C510.399 129.435 535.332 142.923 559.587 157.526C561.947 158.948 564.534 160.711 564.974 163.436C565.313 165.534 564.251 167.576 563.225 169.436C561.111 173.262 558.998 177.087 556.885 180.913C556.141 182.26 555.371 183.773 555.733 185.27C556.298 187.608 559.445 188.458 561.649 187.5C563.851 186.542 565.289 184.424 566.606 182.412C567.81 180.572 569.014 178.732 570.218 176.892C571.184 175.413 568.987 173.957 567.31 173.409C565.634 172.863 563.778 170.73 565.227 169.724C566.007 169.182 567.063 169.669 567.877 170.158C570.34 171.633 573.166 173.879 572.569 176.693C572.356 177.702 571.711 178.557 571.085 179.374Z" fill="#00160A"/>
<path fill-rule="evenodd" clip-rule="evenodd" d="M309.06 215.92C309.563 216.21 310.102 216.539 310.305 217.084C310.508 217.627 310.12 218.396 309.546 218.311C304.234 215.249 298.922 212.186 293.61 209.124C293.706 208.518 294.38 208.146 294.991 208.168C295.602 208.191 296.161 208.504 296.692 208.809C300.815 211.18 304.937 213.55 309.06 215.92Z" fill="#00160A"/>
<path fill-rule="evenodd" clip-rule="evenodd" d="M233.194 186.161C232.077 183.279 233.706 180.094 235.526 177.599C238.302 173.795 241.661 170.42 245.448 167.627C246.39 166.932 247.835 166.317 248.594 167.21C249.515 168.29 248.111 169.768 246.94 170.569C241.996 173.95 238.551 179.062 235.188 184.025C234.636 184.839 234.053 185.682 233.194 186.161Z" fill="#4A75B9"/>
<path fill-rule="evenodd" clip-rule="evenodd" d="M515.155 621.731C511.524 624.32 507.893 626.911 504.263 629.5C502.945 630.44 501.331 631.427 499.813 630.865C494.392 628.86 490.596 623.879 488.074 618.667C487.087 616.627 486.234 614.294 486.929 612.135C487.277 611.053 487.985 610.13 488.681 609.23C490.827 606.453 493.364 603.448 496.851 603.085C498.398 602.924 499.951 603.323 501.404 603.875C505.994 605.62 509.955 608.977 512.435 613.222C511.472 612.852 510.452 612.631 509.422 612.568C506.887 608.436 502.298 605.642 497.469 605.293C498.765 608.315 500.359 611.209 502.219 613.919C503.909 616.376 506.003 618.809 508.87 619.616C511.045 620.229 513.728 619.975 515.155 621.731ZM496.758 625.543C498.523 626.995 500.793 628.212 503.007 627.66C506.091 626.891 507.694 623.068 510.794 622.365C506.662 621.899 503.02 619.257 500.436 615.989C497.853 612.721 496.176 608.843 494.529 605.016C494.3 608.661 489.599 611 489.816 614.647C489.855 615.319 490.07 615.969 490.311 616.596C491.647 620.067 493.891 623.181 496.758 625.543Z" fill="#00160A"/>
<path fill-rule="evenodd" clip-rule="evenodd" d="M289.009 215.494C289.831 215.005 290.87 215.466 291.703 215.937C294.261 217.378 296.769 218.907 299.222 220.521C299.708 220.84 300.257 221.355 300.048 221.896C299.778 222.591 298.743 222.33 298.104 221.952C295.543 220.435 292.981 218.918 290.421 217.402C289.694 216.971 288.861 216.326 289.009 215.494Z" fill="#00160A"/>
<path fill-rule="evenodd" clip-rule="evenodd" d="M238.98 193.695C240.485 189.445 242.818 185.491 245.81 182.123C246.859 180.94 247.988 179.832 249.115 178.723C250.753 177.113 252.391 175.503 254.029 173.893C254.485 173.445 255.021 172.965 255.658 172.998C256.47 173.04 257.012 173.956 256.948 174.768C256.884 175.581 256.389 176.289 255.891 176.933C253.347 180.221 250.236 183.019 247.482 186.131C244.728 189.243 242.273 192.803 241.44 196.879C241.217 197.971 239.419 197.891 238.859 196.928C238.301 195.965 238.608 194.746 238.98 193.695Z" fill="#4A75B9"/>
<path fill-rule="evenodd" clip-rule="evenodd" d="M543.875 707.488C544.722 703.806 546.5 700.342 548.997 697.508C550.091 698.926 548.833 700.88 547.898 702.41C547.144 703.644 546.59 705.003 546.266 706.415C546.17 706.831 546.095 707.271 546.208 707.683C546.302 708.028 546.521 708.325 546.736 708.612C550.427 713.555 554.661 718.855 560.702 720.064C561.888 720.301 563.114 719.67 563.916 718.761C564.719 717.852 565.178 716.697 565.622 715.569C558.267 712.638 552.597 705.8 551.067 698.016C551.006 697.702 550.951 697.368 551.066 697.069C551.224 696.654 551.658 696.423 552.067 696.253C554.986 695.045 558.446 695.242 561.209 696.773C562.28 697.366 563.239 698.14 564.192 698.91C565.668 700.104 567.144 701.298 568.62 702.491C571.049 704.454 573.723 706.974 573.388 710.085C573.204 711.794 572.117 713.25 571.07 714.611C568.783 717.582 566.495 720.554 564.209 723.524C556.207 722.481 548.767 717.712 544.465 710.869C544.139 710.351 543.825 709.806 543.728 709.202C543.636 708.632 543.745 708.05 543.875 707.488ZM561.029 699.749C558.513 698.291 555.528 697.666 552.64 697.989C554.81 703.883 559.07 708.977 564.48 712.148C565.804 712.924 567.42 713.599 568.827 712.986C570.639 712.196 571.055 709.777 572.52 708.448C569.694 706.257 566.868 704.066 564.041 701.875C563.07 701.121 562.093 700.365 561.029 699.749Z" fill="#00160A"/>
<path fill-rule="evenodd" clip-rule="evenodd" d="M466.065 570.648C469.914 568.359 475.066 570.344 478.102 573.638C481.14 576.932 482.748 581.262 484.994 585.14C484.568 585.315 484.14 585.49 483.714 585.665C481.564 579.909 477.821 574.761 473.013 570.948C472.227 570.324 470.752 569.932 470.494 570.904C470.42 571.182 470.503 571.475 470.586 571.751C471.07 573.357 471.554 574.963 472.038 576.569C472.335 577.555 472.634 578.547 473.081 579.474C474.709 582.856 478.065 584.999 481.257 586.964C481.993 587.417 481.528 588.602 480.831 589.114C480.134 589.626 479.202 590.013 478.991 590.853C478.708 587.417 474.932 585.558 472.885 582.788C472.14 581.78 471.618 580.628 471.104 579.484C470.012 577.066 468.921 574.647 467.831 572.229C466.484 573.529 465.136 574.829 463.789 576.127C463.164 576.73 462.518 577.363 462.221 578.18C461.799 579.336 462.156 580.627 462.625 581.766C463.497 583.89 464.758 585.853 466.325 587.529C467.283 588.552 468.363 589.483 469.099 590.675C469.834 591.869 470.172 593.433 469.516 594.673C465.935 591.698 462.914 588.047 460.658 583.969C459.777 582.376 458.995 580.633 459.08 578.814C459.256 575.072 462.852 572.559 466.065 570.648Z" fill="#00160A"/>
<path fill-rule="evenodd" clip-rule="evenodd" d="M179.916 680.198C175.344 686.808 170.032 693.522 162.486 696.259C154.94 698.996 144.764 695.851 142.719 688.072C139.301 675.067 158.143 668.419 165.183 656.969C173.538 643.378 163.523 626.214 153.681 613.664C146.699 619.515 136.527 625.53 129.336 619.939C120.627 613.168 127.955 599.013 136.836 592.471C152.765 580.738 173.136 575.227 192.791 577.335C197.795 539.975 216.939 504.695 245.508 480.185C274.077 455.676 311.806 442.164 349.399 442.978C345.197 369.908 387.457 296.219 452.563 263.091C459.631 259.495 467.198 256.286 475.123 256.333C483.049 256.381 491.416 260.425 494.424 267.776C497.432 275.126 492.769 285.215 484.871 285.886C454.461 288.472 425.58 305.454 408.49 330.801C448.938 327.68 487.209 347.555 522.92 366.852C537.472 374.715 552.024 382.577 566.576 390.44C580.705 398.074 596.38 405.958 612.082 402.628C641.123 396.467 649.967 358.328 674.276 341.251C677.405 339.054 681.131 337.154 684.896 337.803C694.712 339.494 694.024 354.025 689.801 363.067C664.618 417.004 608.199 450.944 550.201 463.835C492.204 476.726 431.92 471.63 372.737 466.471C368.642 508.901 362.859 555.044 332.576 584.97C303.784 613.422 258.245 619.678 219.269 608.913C240.003 610.444 261.003 611.624 281.456 607.882C301.91 604.142 322.038 594.99 335.329 578.963C343.284 569.369 348.455 557.783 352.798 546.091C362.186 520.817 368.161 494.272 370.508 467.405C363.265 467.897 356.023 468.389 348.78 468.881C350.614 504.661 341.728 542.487 317.169 568.514C292.611 594.54 250.402 605.162 219.601 586.992C212.84 620.322 199.248 652.245 179.916 680.198ZM258.749 592.93C270.722 591.055 282.428 587.472 293.403 582.322C286.604 576.883 280.038 571.027 274.859 564.019C263.831 549.097 259.653 529.754 247.641 515.615C233.217 535.668 223.762 559.284 220.356 583.769C220.28 584.321 220.216 584.926 220.514 585.396C220.823 585.884 221.426 586.079 221.981 586.237C231.16 588.846 240.49 590.925 249.907 592.455C244.683 586.759 239.421 581.013 235.448 574.379C231.474 567.746 228.831 560.078 229.349 552.358C234.242 565.207 241.242 577.247 249.982 587.85C252.236 590.585 255.251 593.477 258.749 592.93ZM692.037 351.995C694.747 345.286 685.504 338.879 678.604 341.015C671.704 343.151 667.429 349.837 663.407 355.849C640.852 389.568 607.981 416.249 570.39 431.352C512.488 454.614 447.788 449.981 385.461 447.431C356.156 446.233 326.249 445.649 298.145 454.058C257.225 466.302 222.661 498.25 207.174 538.144C198.233 561.177 195.482 586.086 189.366 610.029C183.249 633.971 172.806 658.237 152.898 672.818C149.287 675.463 145.1 678.181 144.097 682.55C142.604 689.046 149.813 694.943 156.448 694.516C163.084 694.088 168.652 689.448 173.207 684.592C219.496 635.22 208.875 549.836 256.66 501.918C279.192 479.324 311.545 469.036 343.291 466.215C375.037 463.394 406.937 467.24 438.767 468.843C488.354 471.341 539.126 468.181 585.443 450.26C631.76 432.338 673.399 398.124 692.037 351.995ZM392.46 365.643C391.437 366.267 390.825 367.375 390.271 368.439C378.579 390.922 372.797 416.462 373.665 441.802C372.41 441.742 371.919 440.161 371.787 438.909C368.701 409.398 380.938 380.682 392.909 353.543C396.536 345.323 400.188 337.053 405.192 329.593C414.514 315.694 428.077 305.254 441.89 295.833C446.488 292.697 451.208 289.612 456.476 287.824C459.98 286.636 463.654 286.048 467.308 285.464C471.857 284.738 476.408 284.011 480.957 283.285C485.681 282.53 491.091 281.296 493.245 277.015C496.27 271 490.178 263.996 483.707 262.181C475.547 259.892 466.851 262.236 458.867 265.086C446.633 269.453 434.761 275.078 424.289 282.776C415.932 288.92 408.554 296.316 401.784 304.182C369.849 341.285 351.282 389.711 350.204 438.704C350.18 439.821 350.176 440.99 350.685 441.983C351.907 444.363 355.194 444.487 357.859 444.319C376.882 443.121 396.025 443.855 414.902 446.505C405.684 437.787 396.313 428.958 385.09 423.06C381.537 421.191 377.585 419.418 375.628 415.907C383.344 417.155 390.715 420.481 396.763 425.444C401.635 429.443 405.61 434.43 410.35 438.586C415.089 442.741 420.974 446.143 427.267 445.945C444.913 445.389 462.585 445.707 480.2 446.899C466.147 437.523 454.563 424.96 441.853 413.823C429.143 402.687 414.573 392.649 397.899 390.013C393.245 389.277 387.391 388.247 386.225 383.67C403.83 384.612 420.333 392.849 434.56 403.286C448.786 413.724 461.199 426.408 474.596 437.896C479.38 442 485.053 446.189 491.304 445.437C510.887 443.08 530.619 440.689 549.359 434.526C503.769 418.281 467.766 379.38 420.548 368.793C412.739 367.042 404.771 366.112 396.823 365.186C395.342 365.014 393.734 364.867 392.46 365.643ZM572.049 396.682C566.855 394.158 561.662 391.634 556.467 389.11C549.048 385.505 541.628 381.899 534.318 378.079C517.292 369.185 500.866 359.134 483.535 350.854C466.203 342.574 447.74 336.039 428.584 334.752C423.712 334.425 418.76 334.431 414.055 333.122C411.11 332.303 407.907 333.679 405.737 335.835C403.565 337.99 402.221 340.823 400.92 343.594C398.02 349.773 395.119 355.951 392.219 362.129C414.57 360.038 436.557 368.427 456.645 378.47C475.676 387.985 493.87 399.107 511.569 410.923C519.602 416.285 527.596 421.827 536.431 425.719C545.267 429.611 555.129 431.791 564.626 430.07C580.902 427.122 593.179 413.565 608.651 407.707C595.785 408.068 583.631 402.309 572.049 396.682ZM278.369 489.93C283.235 501.992 290.136 513.334 299.363 522.484C308.591 531.635 320.22 538.526 332.915 541.233C335.872 530.389 338.701 519.511 341.402 508.601C341.658 507.567 341.771 506.195 340.823 505.711C327.258 498.796 315.049 489.217 305.093 477.677C305.179 476.479 306.615 475.765 307.792 475.988C308.969 476.212 309.912 477.067 310.784 477.892C320.492 487.074 330.041 497.077 342.431 502.054C345.245 492.787 347.16 483.247 348.142 473.611C348.322 471.838 347.887 469.365 346.109 469.358C311.042 469.227 276.152 483.863 251.631 508.992C249.931 510.734 249.83 513.569 250.686 515.85C251.544 518.131 253.181 520.012 254.695 521.919C262.071 531.219 267.07 542.136 272.899 552.482C278.727 562.827 285.733 572.969 295.783 579.265C296.819 579.915 297.968 580.54 299.186 580.447C300.187 580.371 301.083 579.818 301.923 579.265C313.909 571.387 323.925 560.52 330.812 547.921C331.559 546.554 331.902 544.278 330.384 543.947C321.167 541.942 312.416 537.817 304.997 531.98C299.267 527.471 294.372 522.003 289.509 516.566C286.534 513.24 283.541 509.889 281.244 506.061C278.481 501.457 276.785 496.215 276.325 490.862C277.006 490.551 277.687 490.241 278.369 489.93ZM134.301 619.372C139.279 620.411 144.007 617.025 147.883 613.726C152.378 609.901 156.782 605.892 161.891 602.942C167.001 599.99 172.979 598.139 178.803 599.06C180.78 599.373 182.741 599.999 184.737 599.851C186.733 599.702 188.854 598.482 189.199 596.505C190.019 591.812 190.666 587.088 191.136 582.348C191.204 581.671 191.242 580.91 190.798 580.395C190.369 579.897 189.644 579.812 188.988 579.769C168.196 578.426 146.976 586.566 132.389 601.482C130.179 603.743 128.029 606.324 127.514 609.448C126.793 613.819 129.975 618.47 134.301 619.372ZM176.255 605.581C179.049 608.809 181.842 612.039 184.637 615.268C185.372 611.304 186.535 607.422 188.099 603.708C179.76 600.195 169.658 601.275 162.248 606.473C160.634 607.603 159.151 608.908 157.672 610.209C157.085 610.726 156.474 611.277 156.224 612.019C155.975 612.761 156.247 613.74 156.988 613.987C159.746 614.904 161.701 617.336 163.278 619.782C168.452 627.807 171.291 637.327 171.36 646.883C175.326 638.519 179.292 630.154 183.258 621.79C181.683 621.347 181.279 619.363 180.885 617.773C179.484 612.124 174.967 607.878 170.661 603.974C171.333 603.076 172.696 602.961 173.724 603.409C174.751 603.858 175.521 604.732 176.255 605.581Z" fill="#00160A"/>
</g>
<defs>
<filter id="filter0_d_2105_338" x="130.608" y="133.951" width="564.999" height="617.884" filterUnits="userSpaceOnUse" color-interpolation-filters="sRGB">
<feFlood flood-opacity="0" result="BackgroundImageFix"/>
<feColorMatrix in="SourceAlpha" type="matrix" values="0 0 0 0 0 0 0 0 0 0 0 0 0 0 0 0 0 0 127 0" result="hardAlpha"/>
<feOffset dy="4"/>
<feGaussianBlur stdDeviation="2"/>
<feComposite in2="hardAlpha" operator="out"/>
<feColorMatrix type="matrix" values="0 0 0 0 0 0 0 0 0 0 0 0 0 0 0 0 0 0 0.25 0"/>
<feBlend mode="normal" in2="BackgroundImageFix" result="effect1_dropShadow_2105_338"/>
<feBlend mode="normal" in="SourceGraphic" in2="effect1_dropShadow_2105_338" result="shape"/>
</filter>
<filter id="filter1_d_2105_338" x="584.464" y="495.332" width="111.111" height="61.2092" filterUnits="userSpaceOnUse" color-interpolation-filters="sRGB">
<feFlood flood-opacity="0" result="BackgroundImageFix"/>
<feColorMatrix in="SourceAlpha" type="matrix" values="0 0 0 0 0 0 0 0 0 0 0 0 0 0 0 0 0 0 127 0" result="hardAlpha"/>
<feOffset dy="4"/>
<feGaussianBlur stdDeviation="2"/>
<feComposite in2="hardAlpha" operator="out"/>
<feColorMatrix type="matrix" values="0 0 0 0 0 0 0 0 0 0 0 0 0 0 0 0 0 0 0.25 0"/>
<feBlend mode="normal" in2="BackgroundImageFix" result="effect1_dropShadow_2105_338"/>
<feBlend mode="normal" in="SourceGraphic" in2="effect1_dropShadow_2105_338" result="shape"/>
</filter>
<clipPath id="clip0_2105_338">
<rect width="818" height="820" fill="white"/>
</clipPath>
</defs>
</svg>
