<svg width="954" height="777" viewBox="0 0 954 777" fill="none" xmlns="http://www.w3.org/2000/svg">
<path d="M954 682.816H0V683.337H954V682.816Z" fill="#EBEBEB"/>
<path d="M858.409 716.373H795.216V716.894H858.409V716.373Z" fill="#EBEBEB"/>
<path d="M521.304 709.844H496.71V710.366H521.304V709.844Z" fill="#EBEBEB"/>
<path d="M667.17 712.055H615.387V712.577H667.17V712.055Z" fill="#EBEBEB"/>
<path d="M793.308 697.018H686.25V697.54H793.308V697.018Z" fill="#EBEBEB"/>
<path d="M150.713 721.148H100.094V721.67H150.713V721.148Z" fill="#EBEBEB"/>
<path d="M211.578 721.148H167.694V721.67H211.578V721.148Z" fill="#EBEBEB"/>
<path d="M365.973 709.594H249.948V710.116H365.973V709.594Z" fill="#EBEBEB"/>
<path d="M452.196 589.799H83.7803C80.8941 589.794 78.1279 588.537 76.0889 586.304C74.0499 584.071 72.9047 581.045 72.9047 577.891V11.8043C72.9298 8.66768 74.0861 5.66854 76.1224 3.45833C78.1587 1.24813 80.9106 0.00537324 83.7803 0H452.196C455.085 0 457.857 1.25465 459.9 3.48795C461.943 5.72125 463.091 8.75025 463.091 11.9086V577.891C463.091 581.049 461.943 584.078 459.9 586.311C457.857 588.545 455.085 589.799 452.196 589.799ZM83.7803 0.417116C81.0206 0.42264 78.3758 1.6248 76.4262 3.75971C74.4766 5.89463 73.3817 8.78786 73.3817 11.8043V577.891C73.3817 580.907 74.4766 583.8 76.4262 585.935C78.3758 588.07 81.0206 589.272 83.7803 589.278H452.196C454.957 589.272 457.604 588.071 459.557 585.937C461.509 583.802 462.609 580.909 462.614 577.891V11.8043C462.609 8.78594 461.509 5.89276 459.557 3.75844C457.604 1.62412 454.957 0.422629 452.196 0.417116H83.7803Z" fill="#EBEBEB"/>
<path d="M864.915 589.799H496.481C493.593 589.794 490.825 588.537 488.783 586.305C486.74 584.073 485.591 581.047 485.586 577.891V11.8043C485.616 8.66578 486.777 5.66666 488.816 3.45703C490.855 1.2474 493.609 0.00531464 496.481 0H864.915C867.782 0.0108543 870.529 1.25603 872.561 3.46565C874.593 5.67527 875.747 8.67128 875.772 11.8043V577.891C875.772 581.042 874.629 584.065 872.594 586.297C870.56 588.529 867.798 589.788 864.915 589.799ZM496.481 0.417116C493.719 0.422629 491.072 1.62412 489.12 3.75844C487.167 5.89276 486.068 8.78594 486.063 11.8043V577.891C486.068 580.909 487.167 583.802 489.12 585.937C491.072 588.071 493.719 589.272 496.481 589.278H864.915C867.677 589.272 870.324 588.071 872.276 585.937C874.229 583.802 875.328 580.909 875.333 577.891V11.8043C875.328 8.78594 874.229 5.89276 872.276 3.75844C870.324 1.62412 867.677 0.422629 864.915 0.417116H496.481Z" fill="#EBEBEB"/>
<path d="M851.598 47.968H562.822V682.816H851.598V47.968Z" fill="#FAFAFA"/>
<path d="M758.716 129.305H655.684V286.411H758.716V129.305Z" fill="white"/>
<path d="M851.579 682.816H853.372L853.372 47.9681H851.579L851.579 682.816Z" fill="#EBEBEB"/>
<path d="M837.269 682.816H835.361V65.6954H579.04V682.816H577.132V63.6099H837.269V682.816Z" fill="#E0E0E0"/>
<path d="M815.079 377.134H775.259C774.463 377.183 773.666 377.055 772.916 376.756C772.167 376.457 771.482 375.995 770.902 375.396C770.323 374.798 769.861 374.076 769.545 373.276C769.23 372.475 769.067 371.613 769.067 370.741C769.067 369.87 769.23 369.007 769.545 368.207C769.861 367.407 770.323 366.685 770.902 366.087C771.482 365.488 772.167 365.025 772.916 364.727C773.666 364.428 774.463 364.299 775.259 364.349H815.079C815.875 364.299 816.672 364.428 817.421 364.727C818.17 365.025 818.855 365.488 819.435 366.087C820.014 366.685 820.476 367.407 820.792 368.207C821.107 369.007 821.27 369.87 821.27 370.741C821.27 371.613 821.107 372.475 820.792 373.276C820.476 374.076 820.014 374.798 819.435 375.396C818.855 375.995 818.17 376.457 817.421 376.756C816.672 377.055 815.875 377.183 815.079 377.134ZM775.259 366.435C774.718 366.393 774.176 366.474 773.665 366.672C773.154 366.87 772.686 367.18 772.29 367.584C771.894 367.988 771.578 368.477 771.362 369.02C771.146 369.563 771.035 370.149 771.035 370.741C771.035 371.334 771.146 371.919 771.362 372.462C771.578 373.006 771.894 373.494 772.29 373.898C772.686 374.302 773.154 374.613 773.665 374.811C774.176 375.008 774.718 375.089 775.259 375.048H815.079C815.619 375.089 816.161 375.008 816.672 374.811C817.183 374.613 817.651 374.302 818.047 373.898C818.443 373.494 818.759 373.006 818.975 372.462C819.191 371.919 819.302 371.334 819.302 370.741C819.302 370.149 819.191 369.563 818.975 369.02C818.759 368.477 818.443 367.988 818.047 367.584C817.651 367.18 817.183 366.87 816.672 366.672C816.161 366.474 815.619 366.393 815.079 366.435H775.259Z" fill="#E0E0E0"/>
<path d="M375.38 226.159H106.791V251.353H375.38V226.159Z" fill="#FAFAFA"/>
<path d="M375.361 251.353H110.225V682.816H375.361V251.353Z" fill="#FAFAFA"/>
<path d="M375.38 682.816H394.841L394.841 226.18H375.38L375.38 682.816Z" fill="#F0F0F0"/>
<path d="M235.046 276.38H132.491V531.341H235.046V276.38Z" fill="#F0F0F0"/>
<path d="M205.74 276.38H181.68L161.798 531.32H185.839L205.74 276.38Z" fill="white"/>
<path d="M349.775 663.211H135.831C134.628 663.206 133.476 662.681 132.625 661.751C131.775 660.822 131.295 659.562 131.29 658.248V551.884C131.295 550.569 131.775 549.31 132.625 548.38C133.476 547.45 134.628 546.925 135.831 546.92H349.775C350.977 546.925 352.13 547.45 352.98 548.38C353.831 549.31 354.311 550.569 354.316 551.884V658.248C354.311 659.562 353.831 660.822 352.98 661.751C352.13 662.681 350.977 663.206 349.775 663.211ZM135.831 549.423C135.26 549.428 134.715 549.678 134.312 550.119C133.908 550.56 133.68 551.156 133.675 551.779V658.143C133.68 658.767 133.908 659.363 134.312 659.804C134.715 660.245 135.26 660.495 135.831 660.5H349.775C350.345 660.495 350.89 660.245 351.294 659.804C351.697 659.363 351.926 658.767 351.931 658.143V551.779C351.926 551.156 351.697 550.56 351.294 550.119C350.89 549.678 350.345 549.428 349.775 549.423H135.831Z" fill="#F0F0F0"/>
<path d="M335.808 572.51C334.819 572.51 333.851 572.189 333.029 571.587C332.206 570.986 331.566 570.131 331.188 569.132C330.81 568.132 330.712 567.032 330.907 565.972C331.101 564.911 331.579 563.938 332.28 563.174C332.981 562.411 333.874 561.892 334.845 561.684C335.815 561.475 336.821 561.586 337.734 562.003C338.647 562.42 339.427 563.124 339.974 564.025C340.521 564.926 340.811 565.985 340.807 567.066C340.807 567.783 340.678 568.492 340.426 569.154C340.175 569.816 339.806 570.417 339.342 570.923C338.877 571.428 338.326 571.829 337.72 572.101C337.113 572.374 336.464 572.512 335.808 572.51ZM335.808 564.167C335.291 564.167 334.786 564.335 334.356 564.649C333.926 564.963 333.591 565.409 333.393 565.931C333.195 566.453 333.143 567.028 333.244 567.582C333.345 568.136 333.594 568.645 333.96 569.045C334.325 569.445 334.791 569.717 335.298 569.827C335.805 569.937 336.331 569.881 336.808 569.664C337.286 569.448 337.694 569.082 337.981 568.612C338.269 568.142 338.422 567.59 338.422 567.025C338.419 566.652 338.35 566.284 338.217 565.941C338.084 565.598 337.891 565.287 337.648 565.025C337.406 564.764 337.118 564.557 336.802 564.417C336.487 564.277 336.149 564.206 335.808 564.209V564.167Z" fill="#F0F0F0"/>
<path d="M135.144 276.38H132.491V531.341H135.144V276.38Z" fill="#EBEBEB"/>
<path d="M353.114 276.38H250.559V531.341H353.114V276.38Z" fill="#F0F0F0"/>
<path d="M298.068 276.38H288.165L268.284 531.32H278.186L298.068 276.38Z" fill="white"/>
<path d="M312.969 276.38H303.067L283.166 531.32H293.069L312.969 276.38Z" fill="white"/>
<path d="M253.211 276.38H250.559V531.341H253.211V276.38Z" fill="#EBEBEB"/>
<path d="M375.361 251.353H110.225V254.544H375.361V251.353Z" fill="#EBEBEB"/>
<path d="M428.022 43.1714H152.64V188.473H428.022V43.1714Z" fill="#FAFAFA"/>
<path d="M325.696 169.786C315.933 169.786 306.39 166.622 298.273 160.694C290.156 154.765 283.829 146.339 280.093 136.48C276.357 126.621 275.38 115.773 277.284 105.307C279.189 94.8409 283.89 85.2273 290.793 77.6817C297.696 70.1362 306.491 64.9976 316.066 62.9158C325.641 60.8339 335.566 61.9024 344.585 65.986C353.604 70.0697 361.313 76.985 366.737 85.8577C372.161 94.7303 375.056 105.162 375.056 115.833C375.035 130.135 369.829 143.846 360.576 153.959C351.324 164.073 338.781 169.764 325.696 169.786ZM325.696 63.9646C316.311 63.9646 307.136 67.0066 299.333 72.706C291.529 78.4053 285.447 86.506 281.856 95.9837C278.264 105.461 277.325 115.89 279.155 125.952C280.986 136.013 285.506 145.255 292.142 152.509C298.778 159.763 307.233 164.703 316.438 166.704C325.643 168.706 335.184 167.678 343.855 163.753C352.525 159.827 359.936 153.179 365.151 144.649C370.365 136.119 373.148 126.091 373.148 115.833C373.132 102.082 368.128 88.8983 359.233 79.1747C350.337 69.4512 338.276 63.9812 325.696 63.9646Z" fill="white"/>
<path d="M380.818 77.5205C383.141 70.7163 383.553 63.3092 382.001 56.2476L376.849 56.0599C377.997 62.9153 377.219 69.9902 374.617 76.3525C355.861 76.1857 352.541 97.8131 337.563 93.0371C332.216 91.557 326.643 91.3366 321.212 92.3906C318.953 92.7682 316.722 93.3187 314.534 94.0382C294.691 99.6901 270.459 113.205 266.147 133.497L270.745 134.457C270.745 134.457 273.741 119.399 293.641 108.658C291.749 111.377 290.345 114.462 289.501 117.751C277.271 166.929 360.211 158.274 382.211 141.109C409.113 120.233 397.646 84.7782 380.818 77.5205Z" fill="#EBEBEB"/>
<path d="M249.318 59.6266H166.206V65.4245H249.318V59.6266Z" fill="#EBEBEB"/>
<path d="M228.33 74.413H166.206V80.2108H228.33V74.413Z" fill="#EBEBEB"/>
<path d="M249.318 103.966H166.206V109.764H249.318V103.966Z" fill="#EBEBEB"/>
<path d="M206.388 118.752H166.206V124.55H206.388V118.752Z" fill="#EBEBEB"/>
<path d="M241.515 118.752H212.895V124.55H241.515V118.752Z" fill="#EBEBEB"/>
<path d="M233.1 133.539H166.206V139.337H233.1V133.539Z" fill="#EBEBEB"/>
<path d="M249.318 148.305H166.206V154.103H249.318V148.305Z" fill="#EBEBEB"/>
<path d="M515.942 682.816H437.504C436.617 682.814 435.76 682.46 435.093 681.819C434.426 681.178 433.995 680.295 433.879 679.333L418.043 541.581C417.981 541.02 418.028 540.451 418.182 539.911C418.336 539.371 418.592 538.873 418.935 538.45C419.277 538.026 419.698 537.686 420.169 537.453C420.64 537.22 421.151 537.099 421.668 537.097H531.779C532.296 537.099 532.807 537.22 533.278 537.453C533.749 537.686 534.169 538.026 534.512 538.45C534.854 538.873 535.111 539.371 535.265 539.911C535.418 540.451 535.466 541.02 535.404 541.581L519.567 679.333C519.456 680.297 519.026 681.183 518.358 681.824C517.69 682.466 516.831 682.818 515.942 682.816Z" fill="#EBEBEB"/>
<path opacity="0.7" d="M416.345 534.261C413.483 536.513 415.753 571.384 419.512 579.08C423.271 586.775 445.709 580.164 472.497 577.578C499.285 574.992 531.378 585.336 532.771 579.08C534.164 572.823 541.986 538.786 537.884 534.261C534.603 530.632 495.145 530.632 477.801 532.801C460.458 534.97 422.45 529.485 416.345 534.261Z" fill="#F5F5F5"/>
<path d="M477 777C681.313 777 846.942 766.43 846.942 753.391C846.942 740.353 681.313 729.783 477 729.783C272.687 729.783 107.058 740.353 107.058 753.391C107.058 766.43 272.687 777 477 777Z" fill="#F5F5F5"/>
<path d="M312.912 96.729C298.507 81.9423 274.752 79.1059 265.861 94.4974C256.97 109.889 262.045 126.156 243.804 143.216C231.402 154.875 240.599 190.601 311.348 187.326C344.833 185.783 333.499 147.7 332.603 129.702C331.706 111.703 331.649 89.6797 312.912 96.729Z" fill="#263238"/>
<path d="M285.036 724.569L267.902 725.299L267.578 705.027L284.712 704.297L285.036 724.569Z" fill="#B55B52"/>
<path d="M266.834 721.42H286.2C286.541 721.416 286.874 721.54 287.141 721.772C287.408 722.003 287.595 722.328 287.669 722.692L291.027 739.481C291.104 739.89 291.097 740.313 291.004 740.719C290.912 741.124 290.738 741.502 290.494 741.824C290.251 742.146 289.944 742.405 289.597 742.58C289.251 742.756 288.872 742.844 288.49 742.839C281.716 742.714 278.435 742.276 269.906 742.276C264.659 742.276 251.055 742.88 243.804 742.88C236.554 742.88 235.638 735.039 238.596 734.33C251.952 731.139 259.717 726.759 263.991 722.567C264.775 721.811 265.789 721.402 266.834 721.42Z" fill="#263238"/>
<path opacity="0.2" d="M267.578 705.048L267.731 714.475L284.865 713.662L284.712 704.318L267.578 705.048Z" fill="black"/>
<path d="M242.316 316.277C238.5 338.759 242.889 448.648 248.708 497.179C256.454 561.623 264.468 711.263 264.468 711.263L287.364 709.761C287.364 709.761 293.088 552.176 288.413 500.433C291.066 433.84 297.629 317.528 297.629 317.528L242.316 316.277Z" fill="#3FA6E1"/>
<path opacity="0.2" d="M293.832 390.002C294.634 373.129 283.701 358.134 279.293 390.002C276.508 410.253 282.27 445.749 289.825 470.818C290.989 444.727 292.477 415.675 293.832 390.002Z" fill="black"/>
<path d="M410.926 661.522L399.783 673.16L384.691 655.474L395.815 643.857L410.926 661.522Z" fill="#B55B52"/>
<path d="M396.864 673.473L408.312 656.329C408.499 656.031 408.782 655.822 409.105 655.744C409.427 655.667 409.765 655.727 410.048 655.912L423.404 664.505C423.733 664.743 424.015 665.052 424.232 665.412C424.449 665.772 424.598 666.176 424.669 666.601C424.74 667.025 424.733 667.461 424.647 667.882C424.56 668.303 424.397 668.7 424.168 669.051C420.104 674.953 417.871 677.56 412.853 685.11C409.762 689.74 406.194 696.122 401.939 702.545C397.685 708.969 391.865 704.36 393.124 701.252C398.848 687.3 396.425 683.421 396.12 676.768C396.022 675.609 396.284 674.448 396.864 673.473Z" fill="#263238"/>
<path opacity="0.2" d="M384.691 655.495L392.476 664.588L403.523 652.867L395.834 643.857L384.691 655.495Z" fill="black"/>
<path d="M268.875 316.882C268.875 316.882 293.527 458.701 299.938 513.76C303.754 546.649 387.897 664.984 387.897 664.984L402.264 648.446C402.264 648.446 371.469 561.811 334.377 510.423C332.908 450.191 339.166 351.043 317.873 317.987L268.875 316.882Z" fill="#3FA6E1"/>
<path d="M247.239 208.14C247.239 220.32 246.724 232.27 245.903 244.346C245.083 256.421 243.995 268.434 242.221 280.53L241.896 282.804L241.458 285.369C241.127 287.051 240.764 288.699 240.37 290.312C239.531 293.503 238.462 296.568 237.508 299.53C235.421 305.336 233.051 311.017 230.41 316.548C225.21 327.363 219.285 337.742 212.685 347.602C211.988 348.624 210.971 349.329 209.828 349.582C208.685 349.834 207.497 349.616 206.491 348.97C205.486 348.324 204.735 347.295 204.381 346.08C204.028 344.865 204.097 343.551 204.576 342.388V342.263C209.06 331.668 213.41 320.803 217.207 310.041C219.115 304.66 220.813 299.217 222.263 293.878C222.95 291.208 223.561 288.56 224.038 285.974C224.286 284.681 224.457 283.408 224.629 282.157L224.82 280.301L225.011 278.215C225.984 266.661 226.556 254.94 227.09 243.199C227.625 231.457 227.873 219.611 228.178 207.973V207.869C228.218 205.103 229.262 202.469 231.08 200.544C232.898 198.62 235.34 197.564 237.871 197.608C240.401 197.652 242.811 198.793 244.572 200.78C246.332 202.767 247.298 205.437 247.258 208.203L247.239 208.14Z" fill="#B55B52"/>
<path d="M241.019 192.895C217.588 200.382 220.603 246.974 220.603 246.974L253.917 256.776C253.917 256.776 259.45 222.656 258.954 210.414C258.458 197.692 253.936 188.786 241.019 192.895Z" fill="#3FA6E1"/>
<path d="M207.056 339.698L195.322 350.606L211.769 357.947C211.769 357.947 216.863 349.458 214.497 341.408L207.056 339.698Z" fill="#B55B52"/>
<path d="M197.402 367.248L204.9 368.27C205.733 368.384 206.577 368.194 207.302 367.73C208.026 367.266 208.59 366.555 208.907 365.705L211.769 357.946L195.322 350.605L194.082 362.639C193.969 363.73 194.254 364.826 194.875 365.689C195.497 366.552 196.405 367.112 197.402 367.248Z" fill="#B55B52"/>
<path d="M233.444 205.012C232.395 251.729 242.221 285.828 242.335 316.277L317.873 317.987C317.32 287.496 317.549 267.6 329.55 212.958C330.072 210.578 330.134 208.105 329.732 205.697C329.33 203.29 328.474 201 327.217 198.975C325.96 196.95 324.33 195.233 322.433 193.935C320.535 192.636 318.41 191.785 316.194 191.435C311.672 190.705 306.654 190.017 301.56 189.641C290.143 188.485 278.666 188.22 267.216 188.849C259.164 189.474 250.501 190.767 244.32 191.789C241.383 192.267 238.69 193.848 236.705 196.262C234.72 198.675 233.567 201.769 233.444 205.012Z" fill="#3FA6E1"/>
<path d="M303.849 248.183L281.449 248.016C281.226 248.027 281.004 247.985 280.797 247.892C280.591 247.8 280.405 247.66 280.253 247.481C280.1 247.303 279.985 247.091 279.915 246.859C279.845 246.627 279.822 246.382 279.847 246.139L281.087 234.544C281.168 234.026 281.413 233.556 281.779 233.217C282.146 232.877 282.61 232.69 283.09 232.688L305.471 232.854C305.693 232.841 305.915 232.88 306.122 232.97C306.329 233.06 306.515 233.198 306.667 233.375C306.82 233.552 306.936 233.763 307.006 233.994C307.076 234.224 307.099 234.469 307.074 234.71L305.834 246.327C305.757 246.843 305.516 247.312 305.152 247.652C304.789 247.992 304.327 248.18 303.849 248.183Z" fill="white"/>
<path opacity="0.4" d="M267.33 188.87C267.33 188.87 255.004 198.296 268.036 221.947C278.735 210.571 289.949 199.789 301.636 189.641L267.33 188.87Z" fill="white"/>
<path d="M299.041 147.346C296.656 159.359 294.061 181.424 301.636 189.641C289.725 194.77 278.742 202.17 269.2 211.498C260.824 194.688 267.292 188.849 267.292 188.849C279.656 185.929 279.541 175.939 277.576 166.512L299.041 147.346Z" fill="#B55B52"/>
<path opacity="0.2" d="M296.713 149.431C296.416 156.609 294.718 163.635 291.733 170.037C289.653 174.437 284.101 176.294 278.511 176.648C278.695 173.239 278.393 169.819 277.614 166.512L296.713 149.431Z" fill="black"/>
<path d="M316.919 132.642C311.195 151.871 309.287 160.13 297.839 167.638C280.762 178.921 260.404 167.138 260.671 146.47C260.938 127.867 270.211 99.5653 289.425 96.6664C293.679 95.9931 298.021 96.5214 302.036 98.2012C306.051 99.8809 309.606 102.656 312.362 106.263C315.118 109.869 316.984 114.187 317.782 118.804C318.579 123.422 318.282 128.186 316.919 132.642Z" fill="#B55B52"/>
<path d="M270.268 107.386C279.808 110.327 303.048 112.517 307.703 109.472C303.334 116.813 307.493 136.876 314.248 141.736C323.349 133.748 325.371 114.436 316.957 104.863C308.543 95.29 281.945 83.8402 270.268 107.386Z" fill="#263238"/>
<path d="M319.59 144.405C318.988 146.237 318.056 147.919 316.85 149.352C315.644 150.784 314.189 151.939 312.569 152.747C308.256 154.833 305.394 150.829 306.005 145.969C306.558 141.61 309.478 135.249 314.095 135.166C315.091 135.181 316.069 135.464 316.942 135.99C317.814 136.516 318.555 137.269 319.098 138.183C319.641 139.096 319.97 140.141 320.056 141.227C320.142 142.312 319.982 143.404 319.59 144.405Z" fill="#B55B52"/>
<path d="M319.094 313.169L322.376 320.657C322.624 321.22 321.994 321.804 321.117 321.783L241.877 319.968C241.209 319.968 240.656 319.572 240.618 319.092L240.065 311.689C240.065 311.188 240.637 310.771 241.381 310.771L317.892 312.523C318.126 312.508 318.361 312.559 318.571 312.672C318.782 312.786 318.962 312.957 319.094 313.169Z" fill="#263238"/>
<path d="M308.657 322.283H310.699C311.099 322.283 311.424 322.054 311.405 321.783L310.622 312.147C310.622 311.876 310.241 311.626 309.84 311.626H307.78C307.379 311.626 307.074 311.835 307.093 312.127L307.856 321.741C307.894 322.054 308.237 322.283 308.657 322.283Z" fill="#3FA6E1"/>
<path d="M247.62 320.907H249.681C250.082 320.907 250.406 320.698 250.387 320.406L249.605 310.771C249.605 310.5 249.223 310.271 248.822 310.25H246.762C246.361 310.25 246.037 310.458 246.075 310.75L246.838 320.365C246.876 320.657 247.22 320.886 247.62 320.907Z" fill="#3FA6E1"/>
<path d="M278.129 321.595H280.19C280.591 321.595 280.915 321.387 280.896 321.095L280.114 311.48C280.114 311.188 279.732 310.959 279.331 310.959H277.271C276.87 310.959 276.565 311.188 276.584 311.459L277.347 321.095C277.385 321.345 277.729 321.595 278.129 321.595Z" fill="#3FA6E1"/>
<path d="M289.463 131.037C289.081 132.622 288.013 133.706 287.059 133.435C286.105 133.164 285.647 131.662 286.009 130.077C286.372 128.492 287.459 127.408 288.413 127.679C289.367 127.95 289.825 129.452 289.463 131.037Z" fill="#263238"/>
<path d="M273.016 126.448C272.653 128.054 271.585 129.118 270.631 128.847C269.677 128.576 269.2 127.095 269.581 125.489C269.963 123.883 271.012 122.84 271.966 123.09C272.92 123.341 273.397 124.863 273.016 126.448Z" fill="#263238"/>
<path d="M272.367 123.299L269.124 121.214C269.124 121.214 270.23 124.718 272.367 123.299Z" fill="#263238"/>
<path d="M276.66 130.39C274.524 133.658 271.988 136.592 269.124 139.108C269.728 139.891 270.482 140.52 271.332 140.953C272.182 141.385 273.109 141.609 274.046 141.61L276.66 130.39Z" fill="#A02724"/>
<path d="M277.576 147.846C277.509 147.784 277.459 147.701 277.432 147.609C277.405 147.517 277.402 147.419 277.423 147.325C277.441 147.265 277.469 147.209 277.506 147.16C277.543 147.112 277.589 147.072 277.64 147.043C277.692 147.014 277.748 146.996 277.806 146.991C277.864 146.986 277.922 146.993 277.977 147.012C279.759 147.623 281.647 147.767 283.49 147.434C285.333 147.101 287.078 146.299 288.585 145.094C288.674 145.011 288.789 144.969 288.905 144.979C289.021 144.989 289.129 145.049 289.205 145.146C289.281 145.242 289.319 145.368 289.31 145.495C289.301 145.622 289.246 145.74 289.158 145.823C287.545 147.154 285.661 148.038 283.668 148.402C281.674 148.765 279.63 148.596 277.71 147.909L277.576 147.846Z" fill="#263238"/>
<path d="M298.43 123.716C298.315 123.603 298.218 123.469 298.144 123.32C297.75 122.19 297.116 121.178 296.293 120.369C295.47 119.561 294.482 118.978 293.412 118.669C293.182 118.625 292.977 118.483 292.843 118.273C292.709 118.064 292.656 117.805 292.697 117.553C292.737 117.302 292.868 117.078 293.059 116.931C293.251 116.785 293.487 116.727 293.718 116.771C295.079 117.139 296.339 117.858 297.395 118.866C298.45 119.875 299.27 121.144 299.785 122.569C299.853 122.765 299.861 122.98 299.808 123.181C299.756 123.383 299.646 123.561 299.495 123.689C299.343 123.817 299.158 123.889 298.967 123.894C298.775 123.899 298.587 123.837 298.43 123.716Z" fill="#263238"/>
<path d="M269.772 116.312L269.658 116.187C269.494 116.007 269.401 115.764 269.401 115.51C269.401 115.255 269.494 115.012 269.658 114.832C270.665 113.798 271.881 113.039 273.207 112.615C274.533 112.191 275.932 112.115 277.29 112.392C277.403 112.423 277.51 112.479 277.603 112.556C277.697 112.633 277.775 112.73 277.834 112.841C277.893 112.952 277.93 113.074 277.945 113.201C277.96 113.328 277.951 113.457 277.92 113.58C277.861 113.826 277.716 114.037 277.516 114.166C277.315 114.295 277.076 114.332 276.851 114.269C275.763 114.044 274.641 114.107 273.579 114.452C272.517 114.796 271.546 115.413 270.745 116.25C270.607 116.364 270.441 116.431 270.268 116.442C270.094 116.454 269.922 116.408 269.772 116.312Z" fill="#263238"/>
<path d="M329.531 206.18C335.083 214.209 340.273 222.301 345.31 230.706C347.809 234.877 350.29 239.049 352.637 243.553C355.165 248.11 357.433 252.832 359.429 257.694C360.033 259.209 360.556 260.762 360.994 262.344C361.311 263.565 361.528 264.814 361.642 266.078C361.674 266.584 361.674 267.093 361.642 267.6V268.538C361.608 268.952 361.55 269.363 361.471 269.769L361.337 270.415V270.707V270.937L361.184 271.396C360.288 273.898 359.582 276.422 358.513 278.841C356.578 283.799 354.255 288.565 351.568 293.086C348.801 297.649 345.562 301.848 341.914 305.599C340.055 307.504 338.058 309.241 335.942 310.792C334.854 311.564 333.747 312.315 332.603 313.003L330.79 313.962C330.103 314.296 329.607 314.525 328.615 314.922L324.99 305.411C325.248 305.135 325.522 304.878 325.81 304.64L326.86 303.639C327.566 302.95 328.252 302.2 328.92 301.428C330.28 299.834 331.554 298.156 332.736 296.402C335.067 292.82 337.097 289.015 338.804 285.035C339.605 282.95 340.483 280.989 341.15 278.779C341.818 276.568 342.562 274.607 343.173 272.522C343.784 270.436 344.261 268.142 344.852 265.973V265.577V265.368V265.556V265.973C344.852 266.223 344.757 266.599 344.738 266.745C344.728 266.905 344.728 267.065 344.738 267.225V267.829C344.738 268.309 344.738 268.163 344.738 267.955C344.738 267.746 344.203 266.62 343.803 265.744C342.066 262.177 339.739 258.069 337.354 254.148C334.969 250.227 332.488 246.202 329.951 242.26C324.894 234.356 319.685 226.368 314.572 218.527L329.531 206.18Z" fill="#B55B52"/>
<path d="M333.671 312.461L318.961 323.827L312.359 307.393C312.359 307.393 321.288 302.158 328.329 305.662L333.671 312.461Z" fill="#B55B52"/>
<path d="M308.715 325.182L305.032 319.572C304.333 318.49 304.048 317.152 304.237 315.844C304.425 314.535 305.074 313.359 306.043 312.565L312.359 307.392L318.961 323.827L314.916 326.559C313.915 327.23 312.718 327.462 311.567 327.206C310.416 326.951 309.397 326.228 308.715 325.182Z" fill="#B55B52"/>
<path d="M300.09 201.216C295.091 222.927 325.925 260.092 325.925 260.092L351.854 230.664C351.854 230.664 340.006 203.01 324.532 194.334C313.733 188.285 302.304 191.643 300.09 201.216Z" fill="#3FA6E1"/>
<path d="M288.814 127.887L285.571 125.802C285.571 125.802 286.658 129.305 288.814 127.887Z" fill="#263238"/>
<path d="M255.672 259.216C255.533 259.215 255.397 259.169 255.281 259.083C255.166 258.998 255.076 258.877 255.023 258.736C254.961 258.551 254.969 258.346 255.044 258.167C255.119 257.987 255.255 257.847 255.424 257.777L258.401 256.525C261.189 255.4 263.596 253.371 265.301 250.71C267.005 248.049 267.926 244.883 267.941 241.634L268.15 211.143C268.211 208.822 267.54 206.549 266.25 204.703C264.961 202.857 263.131 201.552 261.066 201.005C259.001 200.458 256.827 200.702 254.908 201.697C252.988 202.692 251.439 204.378 250.52 206.472L237.622 233.584C236.237 236.446 235.677 239.701 236.018 242.917C236.358 246.134 237.583 249.163 239.53 251.603L241.629 254.21C241.7 254.282 241.756 254.369 241.794 254.466C241.832 254.563 241.85 254.667 241.849 254.773C241.847 254.878 241.826 254.982 241.785 255.077C241.744 255.173 241.686 255.258 241.613 255.327C241.54 255.396 241.455 255.448 241.363 255.479C241.271 255.51 241.174 255.519 241.078 255.506C240.982 255.493 240.89 255.458 240.808 255.404C240.725 255.35 240.654 255.277 240.599 255.191L238.5 252.354C236.351 249.702 234.994 246.396 234.608 242.879C234.223 239.361 234.829 235.798 236.344 232.666L249.242 205.554C250.345 203.24 252.128 201.399 254.304 200.328C256.48 199.257 258.923 199.017 261.239 199.648C263.555 200.279 265.609 201.744 267.07 203.807C268.532 205.869 269.315 208.409 269.295 211.018L269.085 241.509C269.07 245.046 268.073 248.495 266.227 251.399C264.38 254.304 261.771 256.527 258.744 257.777L255.767 259.007L255.672 259.216Z" fill="#263238"/>
<path d="M268.627 217.942C268.45 217.937 268.281 217.86 268.153 217.724C268.026 217.589 267.95 217.406 267.94 217.212C267.67 214.803 266.738 212.539 265.267 210.72C263.796 208.901 261.855 207.611 259.7 207.022C257.545 206.433 255.278 206.571 253.196 207.418C251.115 208.266 249.317 209.783 248.04 211.769C247.996 211.855 247.937 211.931 247.867 211.993C247.796 212.054 247.715 212.1 247.628 212.127C247.541 212.154 247.45 212.162 247.361 212.151C247.271 212.14 247.184 212.109 247.105 212.061C247.026 212.013 246.957 211.949 246.901 211.871C246.844 211.794 246.803 211.705 246.778 211.611C246.753 211.516 246.746 211.416 246.756 211.318C246.766 211.22 246.794 211.125 246.838 211.039C248.258 208.746 250.288 206.984 252.654 205.993C255.019 205.002 257.606 204.829 260.065 205.498C262.523 206.167 264.735 207.646 266.399 209.733C268.064 211.821 269.101 214.417 269.371 217.171C269.372 217.368 269.303 217.559 269.178 217.702C269.054 217.846 268.884 217.932 268.704 217.942H268.627Z" fill="#263238"/>
<path d="M261.186 201.279C261.073 201.277 260.963 201.246 260.863 201.188C260.763 201.13 260.678 201.047 260.614 200.945C260.265 200.099 260.085 199.182 260.085 198.255C260.085 197.327 260.265 196.41 260.614 195.564C261.109 193.882 261.944 192.343 263.057 191.062C264.17 189.78 265.533 188.789 267.044 188.16C267.128 188.125 267.217 188.108 267.307 188.112C267.397 188.116 267.485 188.14 267.565 188.184C267.646 188.227 267.718 188.288 267.776 188.363C267.834 188.438 267.877 188.525 267.902 188.619C267.958 188.805 267.945 189.006 267.866 189.181C267.788 189.357 267.65 189.492 267.483 189.558C266.189 190.138 265.025 191.018 264.073 192.138C263.121 193.258 262.403 194.591 261.969 196.044C261.684 196.69 261.519 197.391 261.483 198.107C261.447 198.822 261.541 199.539 261.759 200.215C261.808 200.298 261.842 200.392 261.858 200.489C261.874 200.587 261.872 200.687 261.853 200.784C261.833 200.881 261.796 200.973 261.744 201.054C261.692 201.136 261.626 201.205 261.549 201.258C261.431 201.296 261.307 201.303 261.186 201.279Z" fill="#263238"/>
<path d="M254.108 258.069C253.783 259.424 254.108 260.717 255.024 260.947C255.939 261.176 256.779 260.238 257.084 258.861C257.389 257.485 256.97 256.192 256.149 255.983C255.329 255.775 254.413 256.692 254.108 258.069Z" fill="#263238"/>
<path d="M308.257 222.051C308.867 225.2 310.928 227.369 312.817 226.931C314.706 226.493 315.736 223.553 315.106 220.424C314.477 217.296 312.435 215.085 310.546 215.544C308.657 216.003 307.627 218.985 308.257 222.051Z" fill="#263238"/>
<path d="M314.229 221.071C314.141 221.073 314.054 221.057 313.972 221.023C313.89 220.989 313.814 220.937 313.751 220.872C313.687 220.806 313.636 220.727 313.6 220.639C313.564 220.552 313.544 220.457 313.542 220.361C313.141 208.828 309.134 194.5 301.33 190.267C301.169 190.177 301.047 190.022 300.99 189.835C300.933 189.647 300.945 189.443 301.025 189.266C301.064 189.176 301.118 189.097 301.186 189.031C301.253 188.966 301.332 188.916 301.418 188.885C301.503 188.854 301.594 188.842 301.684 188.85C301.774 188.858 301.861 188.886 301.941 188.932C310.298 193.458 314.477 207.952 314.896 220.215C314.904 220.314 314.893 220.413 314.864 220.506C314.835 220.599 314.789 220.685 314.728 220.758C314.667 220.83 314.593 220.888 314.51 220.928C314.427 220.967 314.338 220.988 314.248 220.987L314.229 221.071Z" fill="#263238"/>
<path d="M306.215 222.322C306.616 225.012 308.39 226.931 310.184 226.618C311.977 226.305 313.122 223.865 312.721 221.154C312.321 218.443 310.527 216.545 308.734 216.858C306.94 217.171 305.815 219.611 306.215 222.322Z" fill="white"/>
<path d="M306.062 222.551C306.635 225.888 308.237 228.349 309.63 228.057C311.023 227.765 311.653 224.846 311.08 221.509C310.508 218.172 308.905 215.711 307.512 216.003C306.12 216.295 305.471 219.215 306.062 222.551Z" fill="#263238"/>
<path d="M239.683 254.127C239.378 255.503 239.798 256.796 240.618 257.005C241.439 257.213 242.354 256.317 242.679 254.919C243.003 253.522 242.564 252.271 241.744 252.041C240.923 251.812 240.008 252.771 239.683 254.127Z" fill="#263238"/>
<path d="M448.685 84.2987C436.608 86.6554 435.081 85.4458 434.929 75.9564C434.776 66.4671 430.388 50.6376 436.493 45.674C436.912 45.2396 437.428 44.9329 437.989 44.7847C438.551 44.6364 439.138 44.6517 439.692 44.829C440.246 45.0063 440.748 45.3394 441.148 45.7951C441.547 46.2508 441.831 46.8131 441.969 47.4258C442.342 46.3849 443.068 45.5414 443.996 45.0713C444.924 44.6011 445.982 44.5406 446.949 44.9023C447.197 42.9419 447.483 37.9156 450.765 36.56C454.047 35.2044 457.062 38.4579 457.062 38.4579C457.062 38.4579 456.813 30.7204 461.583 31.4712C463.008 31.72 464.33 32.4321 465.378 33.5147C466.427 34.5974 467.152 36.0002 467.46 37.5402C467.46 37.5402 470.208 33.1606 473.928 34.8916C477.649 36.6226 476.867 41.7114 476.867 41.7114C476.867 41.7114 480.816 39.6258 483.754 41.9825C486.693 44.3392 484.556 48.1141 484.556 48.1141C484.556 48.1141 487.227 40.606 492.321 44.7563C496.901 48.5103 492.741 54.3917 492.741 54.3917C492.741 54.3917 497.778 53.4949 498.999 56.2687C503.121 65.7163 487.418 76.2693 486.903 92.2239C462.786 102.193 448.685 84.2987 448.685 84.2987Z" fill="#263238"/>
<path d="M361.642 337.862L353.591 336.235L342.944 347.351C342.364 347.955 341.907 348.684 341.602 349.492C341.296 350.3 341.149 351.17 341.169 352.044L341.322 361.137C341.341 362.692 341.889 364.183 342.859 365.321C343.829 366.458 345.151 367.16 346.569 367.289L350.271 367.644C351.617 367.783 352.965 367.397 354.076 366.553C355.186 365.709 355.988 364.463 356.338 363.035L358.246 355.61C358.246 355.61 368.759 342.033 361.642 337.862Z" fill="#FFB573"/>
<path d="M442.961 171.559C437.562 186.846 432.181 202.196 426.991 217.588C421.802 232.979 416.65 248.433 411.823 263.637L410.964 266.452L410.373 268.288C410.144 268.976 409.915 269.685 409.705 270.227C408.808 272.709 407.912 274.753 407.015 276.818C405.221 280.989 403.409 284.722 401.577 288.497C397.895 296.005 394.098 303.242 390.262 310.458C382.63 324.911 374.998 339.03 367.099 353.358L342.811 336.84C350.824 323.222 358.552 309.165 365.955 295.129C369.599 288.08 373.186 281.01 376.525 274.002C378.185 270.498 379.788 266.995 381.199 263.574C381.867 261.927 382.535 260.237 382.974 258.861C383.127 258.465 383.184 258.194 383.279 257.922L383.584 256.838L384.462 253.793C389.06 237.776 393.888 222.301 398.543 206.597L412.51 159.65L442.961 171.559Z" fill="#3FA6E1"/>
<path opacity="0.6" d="M442.961 171.559C437.562 186.846 432.181 202.196 426.991 217.588C421.802 232.979 416.65 248.433 411.823 263.637L410.964 266.452L410.373 268.288C410.144 268.976 409.915 269.685 409.705 270.227C408.808 272.709 407.912 274.753 407.015 276.818C405.221 280.989 403.409 284.722 401.577 288.497C397.895 296.005 394.098 303.242 390.262 310.458C382.63 324.911 374.998 339.03 367.099 353.358L342.811 336.84C350.824 323.222 358.552 309.165 365.955 295.129C369.599 288.08 373.186 281.01 376.525 274.002C378.185 270.498 379.788 266.995 381.199 263.574C381.867 261.927 382.535 260.237 382.974 258.861C383.127 258.465 383.184 258.194 383.279 257.922L383.584 256.838L384.462 253.793C389.06 237.776 393.888 222.301 398.543 206.597L412.51 159.65L442.961 171.559Z" fill="white"/>
<path d="M370.19 729.762L353.075 730.679L361.165 681.96L377.441 686.048L370.19 729.762Z" fill="#FFB573"/>
<path d="M492.97 730.471H475.855L475.912 687.154H493.008L492.97 730.471Z" fill="#FFB573"/>
<path d="M474.234 728.302H495.088C495.423 728.296 495.749 728.421 496.008 728.654C496.267 728.887 496.441 729.213 496.5 729.574L499.247 746.259C499.308 746.671 499.286 747.094 499.183 747.496C499.079 747.899 498.897 748.272 498.648 748.589C498.399 748.907 498.09 749.161 497.742 749.335C497.394 749.509 497.016 749.598 496.633 749.595C489.917 749.47 485.033 749.032 476.58 749.032C471.391 749.032 455.592 749.616 448.495 749.616C441.397 749.616 440.672 741.858 443.629 741.149C456.985 738 467.04 733.662 471.41 729.511C472.184 728.744 473.189 728.314 474.234 728.302Z" fill="#263238"/>
<path opacity="0.2" d="M361.165 681.981L357.426 704.505L373.701 708.593L377.441 686.069L361.165 681.981Z" fill="black"/>
<path opacity="0.2" d="M493.008 687.154H475.893V709.469H493.008V687.154Z" fill="black"/>
<path d="M506.784 171.017C493.428 236.691 496.977 301.511 495.546 315.547L404.21 308.956C394.67 229.705 405.316 179.15 411.365 158.42C412.348 154.998 414.207 151.956 416.723 149.653C419.239 147.35 422.306 145.884 425.56 145.427C439.142 143.8 452.819 143.332 466.468 144.029C475.708 144.634 484.879 146.155 493.867 148.576C498.299 149.685 502.148 152.67 504.57 156.877C506.992 161.084 507.788 166.169 506.784 171.017Z" fill="#3FA6E1"/>
<path d="M479.251 99.5233C476.237 111.891 472.669 133.789 478.412 144.864C479.309 146.595 477.591 148.075 477.515 150.078C477.305 156.209 469.711 158.044 456.126 158.128C442.541 158.211 436.722 152.017 440.424 146.178C440.991 145.287 441.853 144.674 442.828 144.467C455.554 141.36 455.802 130.452 454.066 120.045L479.251 99.5233Z" fill="#FFB573"/>
<path opacity="0.4" d="M455.153 154.728C458.722 160.153 460.985 166.471 461.736 173.102C475.302 166.136 481.77 149.222 481.77 149.222L477.687 144.447C477.687 144.447 462.614 147.554 455.153 154.728Z" fill="black"/>
<path opacity="0.4" d="M453.818 154.791C448.823 159.235 444.608 164.634 441.378 170.725C431.895 164.301 435.024 145.99 435.024 145.99L442.751 144.321C442.751 144.321 446.205 147.804 453.818 154.791Z" fill="black"/>
<path d="M454.428 154.332L451.509 154.645L446.567 158.211C446.252 160.359 446.602 162.561 447.56 164.468C450.43 165.081 453.359 165.298 456.279 165.114C458.238 164.08 459.8 162.322 460.687 160.151L457.061 155.083L454.428 154.332Z" fill="#263238"/>
<path d="M454.428 154.332C458.094 159.347 460.905 165.041 462.728 171.142C476.294 164.176 484.193 147.533 484.193 147.533L477.649 141.277C477.649 141.277 461.889 147.2 454.428 154.332Z" fill="#3FA6E1"/>
<path d="M454.428 154.332C449.192 157.943 444.612 162.581 440.92 168.013C431.38 161.611 435.024 144.363 435.024 144.363L442.751 142.695C442.751 142.695 446.834 147.387 454.428 154.332Z" fill="#3FA6E1"/>
<path opacity="0.2" d="M468.986 107.886L454.104 120.024C454.555 122.533 454.804 125.08 454.848 127.637C460.21 127.199 467.918 121.38 468.853 115.29C469.301 112.851 469.346 110.343 468.986 107.886Z" fill="black"/>
<path d="M481.98 79.0848C479.824 97.5004 479.423 108.283 470.303 117.272C456.584 130.598 436.226 120.629 433.307 101.88C430.674 85.0079 434.642 57.7286 451.643 51.5762C455.386 50.1971 459.389 49.8872 463.272 50.6759C467.156 51.4645 470.79 53.3256 473.83 56.0821C476.87 58.8387 479.215 62.3992 480.641 66.4253C482.068 70.4513 482.528 74.8092 481.98 79.0848Z" fill="#FFB573"/>
<path d="M477.859 95.7277C474.043 91.7025 476.428 72.4319 478.355 66.9051C468.815 67.9062 437.981 67.8645 439.145 58.5628C440.309 49.2612 451.528 41.3569 469.864 47.8847C485.128 53.328 488.944 61.6495 488.944 68.4484C489.173 82.4217 477.859 95.7277 477.859 95.7277Z" fill="#263238"/>
<path d="M487.895 95.9362C486.082 99.7214 482.987 102.581 479.27 103.903C474.405 105.551 472.001 100.65 473.375 95.394C474.596 90.6806 478.622 84.111 483.487 84.7784C488.352 85.4458 490.127 91.2437 487.895 95.9362Z" fill="#FFB573"/>
<path d="M351.854 698.791L380.15 705.611C380.15 705.611 407.663 587.756 415.829 530.152C418.329 512.633 424.129 487.627 429.414 461.328C436.073 428.168 444.449 392.296 451.318 364.203C458.569 334.609 463.949 313.336 463.949 313.336L404.21 309.019C404.21 309.019 376.41 463.164 370.801 519.912C364.943 578.892 351.854 698.791 351.854 698.791Z" fill="#263238"/>
<path opacity="0.2" d="M429.414 461.286C436.073 428.126 444.449 392.254 451.318 364.161L445.041 349.562C430.216 368.917 426.419 428.793 429.414 461.286Z" fill="black"/>
<path d="M432.677 311.021C432.677 311.021 445.041 468.544 449.849 523.082C455.192 582.812 469.521 705.173 469.521 705.173H498.255C498.255 705.173 499.553 574.867 494.439 517.18C493.714 403.766 495.527 315.568 495.527 315.568L432.677 311.021Z" fill="#263238"/>
<path d="M465.857 705.903H502.758V693.848L464.426 691.533L465.857 705.903Z" fill="#3FA6E1"/>
<path d="M348.153 698.666L381.867 706.8L384.271 694.891L348.973 685.172L348.153 698.666Z" fill="#3FA6E1"/>
<path d="M457.348 82.3802C457.348 83.8818 456.451 85.0497 455.554 84.9871C454.657 84.9246 453.99 83.6524 454.085 82.1507C454.18 80.6491 454.982 79.4812 455.879 79.5438C456.775 79.6063 457.443 80.8785 457.348 82.3802Z" fill="#263238"/>
<path d="M441.778 81.3371C441.778 82.8387 440.882 84.0066 439.985 83.944C439.088 83.8815 438.42 82.6093 438.516 81.1077C438.611 79.606 439.412 78.4381 440.309 78.5007C441.206 78.5633 441.874 79.752 441.778 81.3371Z" fill="#263238"/>
<path d="M445.346 82.3799C443.422 86.854 440.951 91.0216 438 94.7682C440.271 97.4377 444.488 96.6035 444.488 96.6035L445.346 82.3799Z" fill="#ED893E"/>
<path d="M450.059 101.046C451.605 100.951 453.118 100.513 454.505 99.7605C455.893 99.0077 457.126 97.955 458.13 96.6662C458.201 96.5847 458.241 96.4765 458.241 96.3638C458.241 96.2512 458.201 96.1429 458.13 96.0614C458.052 95.9822 457.95 95.9382 457.844 95.9382C457.738 95.9382 457.635 95.9822 457.558 96.0614C456.425 97.4745 455.004 98.5769 453.41 99.2797C451.816 99.9825 450.093 100.266 448.38 100.107C448.327 100.102 448.274 100.107 448.224 100.124C448.173 100.141 448.126 100.169 448.085 100.206C448.044 100.242 448.011 100.288 447.986 100.339C447.961 100.39 447.946 100.446 447.941 100.504C447.936 100.622 447.973 100.738 448.044 100.827C448.115 100.917 448.215 100.973 448.323 100.983C448.9 101.043 449.48 101.063 450.059 101.046Z" fill="#263238"/>
<path d="M461.145 77.166C461.28 77.149 461.41 77.0992 461.526 77.02C461.707 76.8918 461.835 76.6907 461.881 76.4604C461.928 76.2301 461.889 75.9891 461.774 75.7895C461.093 74.5896 460.159 73.5851 459.05 72.8595C457.942 72.134 456.691 71.7084 455.401 71.6184C455.208 71.651 455.031 71.7583 454.904 71.9209C454.776 72.0834 454.706 72.2906 454.706 72.5048C454.706 72.719 454.776 72.9261 454.904 73.0887C455.031 73.2513 455.208 73.3586 455.401 73.3912C456.42 73.4734 457.406 73.8188 458.278 74.3989C459.151 74.979 459.885 75.7773 460.42 76.7281C460.491 76.8679 460.596 76.9831 460.725 77.0606C460.853 77.138 460.998 77.1745 461.145 77.166Z" fill="#263238"/>
<path d="M434.089 74.9347C434.222 74.9245 434.35 74.8794 434.463 74.8031C434.576 74.7268 434.67 74.6217 434.738 74.4967C435.225 73.5276 435.914 72.6976 436.749 72.0743C437.585 71.451 438.543 71.0519 439.546 70.9095C439.759 70.8884 439.956 70.7796 440.097 70.6053C440.239 70.431 440.315 70.2042 440.309 69.971C440.295 69.7368 440.196 69.5182 440.036 69.3623C439.875 69.2063 439.665 69.1253 439.451 69.1368C438.17 69.306 436.945 69.8092 435.879 70.6041C434.813 71.399 433.937 72.4622 433.326 73.7042C433.223 73.9063 433.197 74.1447 433.254 74.3674C433.312 74.5901 433.447 74.7791 433.631 74.893C433.775 74.9639 433.937 74.9787 434.089 74.9347Z" fill="#263238"/>
<path d="M468.452 731.556C469.971 731.516 471.481 731.292 472.955 730.888C473.032 730.869 473.103 730.825 473.157 730.762C473.211 730.698 473.247 730.619 473.26 730.534C473.281 730.452 473.277 730.366 473.25 730.287C473.222 730.209 473.173 730.141 473.108 730.096C472.497 729.658 467.117 725.924 465.171 727.009C464.96 727.13 464.782 727.309 464.655 727.528C464.527 727.748 464.455 728.001 464.445 728.26C464.378 728.69 464.411 729.131 464.541 729.543C464.671 729.955 464.894 730.325 465.19 730.617C466.145 731.332 467.298 731.664 468.452 731.556ZM471.791 730.262C468.872 730.909 466.64 730.784 465.743 729.929C465.54 729.731 465.387 729.479 465.3 729.198C465.213 728.916 465.195 728.615 465.247 728.323C465.247 727.989 465.399 727.864 465.514 727.801C466.525 727.259 469.616 728.844 471.791 730.262Z" fill="#3FA6E1"/>
<path d="M472.86 730.909C472.927 730.938 473.002 730.938 473.07 730.909C473.135 730.87 473.189 730.813 473.226 730.743C473.263 730.673 473.281 730.593 473.279 730.512C473.279 730.283 473.07 724.881 471.142 723.109C470.91 722.886 470.636 722.72 470.34 722.623C470.044 722.526 469.732 722.499 469.425 722.546C469.12 722.546 468.823 722.66 468.584 722.868C468.345 723.077 468.178 723.367 468.109 723.693C467.67 725.778 470.933 729.949 472.669 730.93C472.733 730.944 472.799 730.937 472.86 730.909ZM469.692 723.317C470.032 723.321 470.358 723.462 470.608 723.714C471.829 724.84 472.268 727.989 472.402 729.574C470.704 728.114 468.586 725.007 468.891 723.776C468.891 723.672 468.891 723.401 469.502 723.338H469.692V723.317Z" fill="#3FA6E1"/>
<path d="M350.519 722.441L370.591 728.698C370.911 728.799 371.19 729.018 371.378 729.319C371.566 729.62 371.652 729.983 371.621 730.346L370.133 747.176C370.084 747.59 369.955 747.988 369.753 748.342C369.55 748.696 369.281 748.999 368.962 749.228C368.643 749.458 368.283 749.61 367.905 749.673C367.528 749.736 367.142 749.71 366.775 749.596C360.345 747.51 355.766 745.612 347.695 743.089C342.696 741.545 326.421 735.163 320.487 730.742C314.553 726.321 318.045 719.501 320.849 720.752C333.461 726.341 342.333 725.445 347.561 722.838C348.473 722.327 349.521 722.187 350.519 722.441Z" fill="#263238"/>
<path d="M344.127 723.86C345.602 724.261 347.111 724.491 348.63 724.548C348.712 724.554 348.793 724.533 348.865 724.488C348.936 724.444 348.993 724.378 349.031 724.298C349.076 724.228 349.1 724.144 349.1 724.058C349.1 723.972 349.076 723.888 349.031 723.818C348.554 723.234 344.299 718.062 342.181 718.5C341.945 718.557 341.727 718.678 341.546 718.854C341.366 719.029 341.23 719.252 341.151 719.501C340.985 719.891 340.911 720.32 340.934 720.75C340.958 721.179 341.078 721.596 341.284 721.962C342.011 722.924 343.012 723.592 344.127 723.86ZM347.676 723.61C344.699 723.359 342.582 722.567 341.952 721.524C341.823 721.265 341.756 720.974 341.756 720.679C341.756 720.384 341.823 720.094 341.952 719.835C342.066 719.501 342.219 719.438 342.353 719.418C343.44 719.146 345.921 721.607 347.676 723.693V723.61Z" fill="#3FA6E1"/>
<path d="M348.534 724.527C348.609 724.548 348.688 724.548 348.763 724.527C348.837 724.507 348.904 724.465 348.958 724.406C349.012 724.348 349.05 724.274 349.069 724.193C349.069 723.985 350.252 718.729 348.859 716.435C348.688 716.156 348.466 715.918 348.206 715.739C347.947 715.559 347.655 715.441 347.351 715.392C347.056 715.302 346.741 715.323 346.457 715.452C346.174 715.58 345.938 715.809 345.787 716.101C344.833 717.978 346.97 722.9 348.363 724.444C348.413 724.487 348.472 724.515 348.534 724.527ZM347.37 716.289C347.697 716.388 347.976 716.619 348.153 716.936C349.069 718.396 348.687 721.566 348.439 723.192C347.161 721.294 345.939 717.686 346.531 716.581C346.531 716.477 346.703 716.247 347.237 716.331L347.37 716.289Z" fill="#3FA6E1"/>
<path d="M479.538 143.237C479.335 143.201 479.127 143.217 478.93 143.282C478.734 143.347 478.553 143.46 478.402 143.613C478.251 143.766 478.134 143.954 478.06 144.163C477.986 144.373 477.956 144.598 477.973 144.822C478.641 156.001 462.709 176.106 458.893 236.316C456.623 272.939 454.543 387.124 456.069 446.521C456.091 447.3 456.276 448.064 456.609 448.753C456.941 449.443 457.413 450.041 457.989 450.501C458.565 450.962 459.229 451.273 459.931 451.41C460.633 451.548 461.355 451.509 462.041 451.297C490.203 442.704 503.502 463.539 508.921 438.971C508.635 409.543 500.488 303.888 502.586 278.841C504.685 253.793 513.405 185.741 515.58 167.596C517.507 151.83 487.418 144.801 479.538 143.237Z" fill="#3FA6E1"/>
<path opacity="0.7" d="M479.538 143.237C479.335 143.201 479.127 143.217 478.93 143.282C478.734 143.347 478.553 143.46 478.402 143.613C478.251 143.766 478.134 143.954 478.06 144.163C477.986 144.373 477.956 144.598 477.973 144.822C478.641 156.001 462.709 176.106 458.893 236.316C456.623 272.939 454.543 387.124 456.069 446.521C456.091 447.3 456.276 448.064 456.609 448.753C456.941 449.443 457.413 450.041 457.989 450.501C458.565 450.962 459.229 451.273 459.931 451.41C460.633 451.548 461.355 451.509 462.041 451.297C490.203 442.704 503.502 463.539 508.921 438.971C508.635 409.543 500.488 303.888 502.586 278.841C504.685 253.793 513.405 185.741 515.58 167.596C517.507 151.83 487.418 144.801 479.538 143.237Z" fill="white"/>
<path opacity="0.2" d="M498.102 194.271C496.862 203.573 496.385 241.155 504.57 259.237C505.944 246.723 507.738 231.853 509.474 217.525L498.102 194.271Z" fill="#3FA6E1"/>
<path d="M509.798 356.799L501.67 357.842L494.477 371.878C494.083 372.638 493.838 373.479 493.759 374.349C493.681 375.218 493.769 376.095 494.019 376.925L496.614 385.559C497.055 387.037 497.982 388.283 499.217 389.054C500.451 389.825 501.904 390.066 503.292 389.73L506.917 388.896C508.25 388.6 509.442 387.796 510.281 386.626C511.12 385.457 511.551 383.999 511.497 382.514L511.268 374.839C511.268 374.839 517.717 358.551 509.798 356.799Z" fill="#FFB573"/>
<path d="M514.263 160.589C516.858 168.931 519.262 177.169 521.647 185.511C524.032 193.854 526.417 202.196 528.669 210.538C530.92 218.881 533.095 227.411 535.099 236.107C536.091 240.466 537.007 244.867 537.884 249.476C538.285 251.791 538.686 254.148 539.01 256.65C539.163 257.943 539.334 259.132 539.43 260.571L539.601 262.657L539.697 265.013C539.735 265.805 539.735 266.599 539.697 267.391C539.697 268.225 539.697 269.018 539.601 269.664L539.43 271.75L539.22 273.627C538.953 276.15 538.609 278.444 538.266 280.739C537.579 285.285 536.778 289.665 535.957 294.003C534.316 302.679 532.485 311.167 530.634 319.614C528.783 328.06 526.818 336.486 524.91 344.891L519.186 370.105L491.558 361.909C495.832 345.621 499.724 329.04 503.33 312.564C505.086 304.222 506.727 296.047 508.196 287.892C508.921 283.721 509.608 279.758 510.104 275.837C510.39 273.877 510.619 271.937 510.772 270.186C510.92 268.802 510.971 267.407 510.924 266.014V265.139L510.791 264.012C510.791 263.303 510.562 262.365 510.447 261.551C510.18 259.799 509.837 257.943 509.455 256.045C508.673 252.25 507.738 248.329 506.727 244.387C504.819 236.483 502.395 228.474 499.934 220.507C495.069 204.574 489.593 188.536 483.945 172.935L514.263 160.589Z" fill="#3FA6E1"/>
<path opacity="0.7" d="M514.263 160.589C516.858 168.931 519.262 177.169 521.647 185.511C524.032 193.854 526.417 202.196 528.669 210.538C530.92 218.881 533.095 227.411 535.099 236.107C536.091 240.466 537.007 244.867 537.884 249.476C538.285 251.791 538.686 254.148 539.01 256.65C539.163 257.943 539.334 259.132 539.43 260.571L539.601 262.657L539.697 265.013C539.735 265.805 539.735 266.599 539.697 267.391C539.697 268.225 539.697 269.018 539.601 269.664L539.43 271.75L539.22 273.627C538.953 276.15 538.609 278.444 538.266 280.739C537.579 285.285 536.778 289.665 535.957 294.003C534.316 302.679 532.485 311.167 530.634 319.614C528.783 328.06 526.818 336.486 524.91 344.891L519.186 370.105L491.558 361.909C495.832 345.621 499.724 329.04 503.33 312.564C505.086 304.222 506.727 296.047 508.196 287.892C508.921 283.721 509.608 279.758 510.104 275.837C510.39 273.877 510.619 271.937 510.772 270.186C510.92 268.802 510.971 267.407 510.924 266.014V265.139L510.791 264.012C510.791 263.303 510.562 262.365 510.447 261.551C510.18 259.799 509.837 257.943 509.455 256.045C508.673 252.25 507.738 248.329 506.727 244.387C504.819 236.483 502.395 228.474 499.934 220.507C495.069 204.574 489.593 188.536 483.945 172.935L514.263 160.589Z" fill="white"/>
<path d="M442.427 141.673C442.847 141.669 443.258 141.796 443.614 142.039C443.97 142.281 444.256 142.629 444.438 143.042C444.62 143.455 444.69 143.916 444.642 144.372C444.593 144.827 444.427 145.258 444.163 145.614C439.622 151.371 436.76 159.275 431.38 184.635C424.893 215.231 411.079 369.167 408.484 444.602C408.471 445.229 408.334 445.845 408.082 446.408C407.831 446.971 407.47 447.468 407.026 447.865C406.582 448.261 406.064 448.548 405.509 448.704C404.953 448.861 404.374 448.885 403.809 448.773C390.339 446.062 381.104 453.194 379.635 443.747C378.013 433.319 384.061 333.712 395.376 286.87C393.601 245.326 400.012 161.986 412.815 150.912C419.76 144.759 434.528 141.819 442.427 141.673Z" fill="#3FA6E1"/>
<path opacity="0.7" d="M442.427 141.673C442.847 141.669 443.258 141.796 443.614 142.039C443.97 142.281 444.256 142.629 444.438 143.042C444.62 143.455 444.69 143.916 444.642 144.372C444.593 144.827 444.427 145.258 444.163 145.614C439.622 151.371 436.76 159.275 431.38 184.635C424.893 215.231 411.079 369.167 408.484 444.602C408.471 445.229 408.334 445.845 408.082 446.408C407.831 446.971 407.47 447.468 407.026 447.865C406.582 448.261 406.064 448.548 405.509 448.704C404.953 448.861 404.374 448.885 403.809 448.773C390.339 446.062 381.104 453.194 379.635 443.747C378.013 433.319 384.061 333.712 395.376 286.87C393.601 245.326 400.012 161.986 412.815 150.912C419.76 144.759 434.528 141.819 442.427 141.673Z" fill="white"/>
<path d="M449.849 162.341C449.849 162.341 433.364 212.958 427.564 255.378C427.106 266.911 432.124 289.248 436.188 298.987C444.679 278.778 449.983 266.87 450.822 255.378C452.177 238.089 454.409 162.675 454.409 162.675L449.849 162.341Z" fill="#263238"/>
<path d="M484.346 222.551C484.179 222.545 484.018 222.479 483.889 222.364C483.759 222.249 483.668 222.09 483.629 221.912C483.59 221.735 483.605 221.548 483.673 221.381C483.74 221.214 483.856 221.075 484.002 220.987L487.131 219.194C490.052 217.551 492.446 214.975 493.994 211.808C495.541 208.641 496.169 205.033 495.794 201.466L492.398 167.847C492.147 165.341 491.132 163 489.516 161.201C487.899 159.403 485.776 158.252 483.488 157.934C481.2 157.616 478.881 158.15 476.904 159.448C474.928 160.747 473.409 162.736 472.593 165.094L461.602 196.69C460.419 200.039 460.196 203.702 460.963 207.192C461.73 210.683 463.45 213.836 465.895 216.232L468.528 218.839C468.668 218.995 468.747 219.205 468.747 219.423C468.747 219.641 468.668 219.851 468.528 220.007C468.386 220.16 468.194 220.245 467.994 220.245C467.794 220.245 467.603 220.16 467.46 220.007L464.827 217.421C462.163 214.791 460.293 211.339 459.465 207.521C458.637 203.703 458.89 199.701 460.191 196.044L471.276 164.51C472.223 161.816 473.969 159.547 476.235 158.066C478.502 156.586 481.157 155.98 483.776 156.345C486.396 156.711 488.827 158.026 490.68 160.081C492.534 162.136 493.703 164.812 494 167.68L497.397 201.278C497.798 205.188 497.101 209.139 495.396 212.604C493.692 216.069 491.062 218.884 487.857 220.674L484.727 222.447C484.614 222.527 484.48 222.564 484.346 222.551Z" fill="#263238"/>
<path d="M493.809 175.188C493.628 175.19 493.451 175.118 493.314 174.988C493.177 174.857 493.089 174.676 493.065 174.479C492.622 171.775 491.365 169.31 489.496 167.474C487.626 165.638 485.25 164.536 482.743 164.343C478.507 163.759 472.745 165.219 470.436 171.309C470.403 171.417 470.35 171.516 470.281 171.601C470.211 171.685 470.126 171.754 470.032 171.801C469.937 171.849 469.834 171.875 469.73 171.877C469.626 171.88 469.523 171.859 469.426 171.816C469.33 171.774 469.242 171.71 469.169 171.629C469.096 171.547 469.039 171.451 469.001 171.345C468.964 171.238 468.946 171.125 468.95 171.011C468.954 170.897 468.98 170.786 469.025 170.683C470.315 167.956 472.341 165.728 474.828 164.301C477.315 162.875 480.144 162.318 482.93 162.707C485.716 163.097 488.326 164.413 490.405 166.477C492.484 168.542 493.932 171.255 494.554 174.249C494.581 174.462 494.53 174.678 494.412 174.85C494.294 175.022 494.118 175.136 493.924 175.167L493.809 175.188Z" fill="#263238"/>
<path d="M483.545 157.94C483.445 157.935 483.348 157.908 483.258 157.861C483.168 157.814 483.088 157.747 483.022 157.665C482.956 157.584 482.906 157.488 482.875 157.385C482.843 157.282 482.831 157.173 482.839 157.064C483.068 152.997 482.533 145.594 479.023 143.675C478.843 143.573 478.708 143.396 478.647 143.185C478.586 142.974 478.605 142.745 478.698 142.549C478.792 142.352 478.953 142.205 479.146 142.138C479.339 142.072 479.549 142.092 479.729 142.194C484.804 145.051 484.346 155.938 484.27 157.169C484.26 157.373 484.18 157.567 484.046 157.71C483.911 157.853 483.732 157.935 483.545 157.94Z" fill="#263238"/>
<path d="M469.711 219.673C469.521 221.237 468.624 222.384 467.689 222.238C466.754 222.092 466.143 220.757 466.334 219.214C466.525 217.671 467.403 216.503 468.338 216.649C469.273 216.795 469.883 218.13 469.711 219.673Z" fill="#263238"/>
<path d="M425.35 185.866C424.148 189.182 421.534 191.184 419.626 190.329C417.718 189.474 416.974 186.158 418.176 182.759C419.378 179.359 421.992 177.44 423.9 178.295C425.808 179.151 426.533 182.55 425.35 185.866Z" fill="#263238"/>
<path d="M419.073 183.718H418.921C418.724 183.673 418.551 183.544 418.44 183.361C418.33 183.177 418.29 182.953 418.329 182.738C420.848 169.035 431.265 147.283 440.443 141.026C440.526 140.948 440.624 140.89 440.73 140.856C440.835 140.823 440.946 140.815 441.055 140.833C441.164 140.851 441.268 140.894 441.36 140.96C441.452 141.026 441.53 141.113 441.588 141.215C441.647 141.317 441.684 141.431 441.698 141.55C441.712 141.669 441.703 141.791 441.67 141.905C441.638 142.02 441.583 142.126 441.509 142.215C441.436 142.305 441.345 142.376 441.244 142.424C432.372 148.534 422.279 169.536 419.817 183.03C419.786 183.221 419.695 183.395 419.559 183.52C419.423 183.646 419.251 183.716 419.073 183.718Z" fill="#263238"/>
<path d="M427.525 186.554C426.648 189.411 424.396 191.184 422.488 190.496C420.58 189.808 419.722 186.909 420.58 184.031C421.439 181.153 423.709 179.401 425.617 180.089C427.525 180.777 428.403 183.676 427.525 186.554Z" fill="white"/>
<path d="M427.659 186.846C426.495 190.371 424.339 192.769 422.87 192.185C421.401 191.601 421.153 188.264 422.336 184.719C423.519 181.173 425.656 178.796 427.125 179.38C428.594 179.964 428.842 183.301 427.659 186.846Z" fill="#263238"/>
<path d="M486.044 221.967C485.872 223.511 484.956 224.658 484.021 224.533C483.086 224.407 482.476 223.031 482.667 221.488C482.858 219.944 483.754 218.797 484.689 218.922C485.624 219.048 486.235 220.403 486.044 221.967Z" fill="#263238"/>
<path d="M594.227 131.599C600.6 150.641 583.657 160.214 572.553 188.264C561.448 216.315 588.236 249.768 629.354 250.498C670.471 251.228 671.769 208.182 665.396 177.294C659.023 146.407 672.341 141.381 669.517 117.793C665.892 86.8015 625.042 63.3179 608.824 91.7651C594.399 90.2844 588.656 114.957 594.227 131.599Z" fill="#263238"/>
<path d="M716.015 387.916V385.497C715.977 384.336 715.71 383.198 715.233 382.16L708.326 367.269L700.236 365.601C694.512 372.337 700.236 385.768 700.236 385.768V387.916C700.237 389.676 700.763 391.388 701.734 392.791C702.705 394.195 704.068 395.215 705.617 395.695L706.704 396.05C707.824 396.373 708.998 396.405 710.132 396.143C711.265 395.882 712.327 395.334 713.232 394.543C714.136 393.753 714.86 392.742 715.343 391.591C715.826 390.44 716.057 389.182 716.015 387.916Z" fill="#FFC3BD"/>
<path d="M681.728 196.356L684.705 219.173L687.834 241.926C688.864 249.539 689.952 257.109 691.058 264.701L694.359 287.308L694.76 289.54C694.894 290.27 695.123 291.208 695.294 292.022L695.867 294.587L696.534 297.236C697.393 300.739 698.442 304.368 699.358 307.955C701.266 315.151 703.46 322.429 705.617 329.666C710.005 344.119 714.584 358.635 719.469 372.9L692.489 383.328L678.981 339.239C676.748 331.877 674.478 324.515 672.322 317.007C671.253 313.232 670.185 309.499 669.174 305.599L668.391 302.7L667.647 299.676C667.399 298.633 667.132 297.715 666.903 296.568L666.197 293.148L662.21 270.206C660.938 262.643 659.608 255.079 658.222 247.515L654.139 224.824L649.884 202.3L681.728 196.356Z" fill="#3FA6E1"/>
<path opacity="0.6" d="M681.728 196.356L684.705 219.173L687.834 241.926C688.864 249.539 689.952 257.109 691.058 264.701L694.359 287.308L694.76 289.54C694.894 290.27 695.123 291.208 695.294 292.022L695.867 294.587L696.534 297.236C697.393 300.739 698.442 304.368 699.358 307.955C701.266 315.151 703.46 322.429 705.617 329.666C710.005 344.119 714.584 358.635 719.469 372.9L692.489 383.328L678.981 339.239C676.748 331.877 674.478 324.515 672.322 317.007C671.253 313.232 670.185 309.499 669.174 305.599L668.391 302.7L667.647 299.676C667.399 298.633 667.132 297.715 666.903 296.568L666.197 293.148L662.21 270.206C660.938 262.643 659.608 255.079 658.222 247.515L654.139 224.824L649.884 202.3L681.728 196.356Z" fill="white"/>
<path d="M677.435 194.605C678.332 205.721 677.531 233.375 667.323 301.928H596.727C597.853 272.146 597.929 253.167 586.233 196.336C585.967 195.058 585.944 193.734 586.165 192.445C586.385 191.157 586.845 189.932 587.515 188.846C588.186 187.759 589.053 186.834 590.063 186.128C591.073 185.422 592.204 184.949 593.388 184.74C600.281 183.502 607.23 182.674 614.204 182.258C624.888 181.423 635.613 181.423 646.297 182.258C655.074 183.134 664.595 184.865 670.357 186.012C672.234 186.401 673.942 187.453 675.221 189.004C676.499 190.556 677.277 192.523 677.435 194.605Z" fill="#263238"/>
<path d="M617.314 142.757C619.337 154.04 621.359 174.729 614.128 182.258C614.128 182.258 623.172 194.271 637.024 194.271C650.876 194.271 646.24 182.258 646.24 182.258C634.792 179.255 635.021 169.911 637.024 161.152L617.314 142.757Z" fill="#FFC3BD"/>
<path opacity="0.2" d="M625.347 150.265L637.005 161.131C636.51 163.182 636.178 165.275 636.013 167.388C631.605 166.7 624.698 162.591 623.744 157.356C623.306 154.874 624.966 151.433 625.347 150.265Z" fill="black"/>
<path d="M605.16 120.609C607.851 139.254 608.633 147.2 618.135 155.917C632.445 169.036 652.803 161.34 655.264 142.194C657.478 124.968 652.689 97.3546 635.25 91.661C631.408 90.3837 627.331 90.2008 623.406 91.1298C619.481 92.0587 615.839 94.0686 612.824 96.9687C609.81 99.8688 607.523 103.563 606.182 107.7C604.841 111.838 604.489 116.281 605.16 120.609Z" fill="#FFC3BD"/>
<path d="M608.003 134.04C617.772 123.466 621.13 108.762 620.215 102.756C629.621 105.613 636.528 101.567 636.108 99.8154C642.748 106.906 654.788 112.516 653.433 104.883C652.078 97.2501 643.168 83.1725 624.584 88.1988C606 93.225 598.845 114.081 599.112 122.548C599.379 131.016 608.003 134.04 608.003 134.04Z" fill="#263238"/>
<path d="M629.64 122.715C629.774 124.258 630.613 125.405 631.548 125.322C632.483 125.239 633.094 123.904 632.96 122.381C632.826 120.859 631.968 119.691 631.052 119.774C630.136 119.858 629.64 121.193 629.64 122.715Z" fill="#263238"/>
<path d="M645.495 121.067C645.629 122.59 646.488 123.758 647.403 123.653C648.319 123.549 648.949 122.256 648.815 120.734C648.682 119.211 647.823 118.043 646.907 118.127C645.991 118.21 645.362 119.545 645.495 121.067Z" fill="#263238"/>
<path d="M646.526 118.252L649.789 116.854C649.789 116.854 648.3 119.899 646.526 118.252Z" fill="#263238"/>
<path d="M640.878 124.321C642.421 127.678 644.379 130.787 646.698 133.56C646.034 134.188 645.254 134.651 644.41 134.918C643.567 135.184 642.681 135.247 641.813 135.103L640.878 124.321Z" fill="#ED847E"/>
<path d="M634.715 141.819C635.408 141.87 636.103 141.87 636.795 141.819C636.903 141.803 637.001 141.742 637.069 141.649C637.137 141.555 637.168 141.437 637.158 141.318C637.155 141.26 637.142 141.202 637.118 141.149C637.094 141.097 637.061 141.05 637.019 141.013C636.978 140.975 636.93 140.948 636.878 140.932C636.826 140.917 636.772 140.913 636.719 140.922C634.982 141.142 633.223 140.913 631.583 140.254C629.942 139.594 628.467 138.523 627.274 137.126C627.2 137.053 627.105 137.011 627.006 137.008C626.906 137.004 626.809 137.039 626.731 137.107C626.653 137.174 626.6 137.27 626.58 137.377C626.561 137.484 626.577 137.594 626.625 137.689C627.657 138.928 628.904 139.93 630.292 140.639C631.681 141.348 633.184 141.749 634.715 141.819Z" fill="#263238"/>
<path d="M601.383 135.771C602.657 139.147 605.098 141.837 608.175 143.258C612.258 145.093 614.834 141.172 614.128 136.73C613.498 132.559 610.598 126.782 606.286 126.865C605.348 126.915 604.435 127.217 603.628 127.745C602.821 128.272 602.146 129.008 601.661 129.888C601.176 130.768 600.898 131.766 600.849 132.791C600.8 133.817 600.984 134.841 601.383 135.771Z" fill="#FFC3BD"/>
<path d="M624.202 114.706C624.367 114.77 624.545 114.776 624.712 114.723C624.88 114.671 625.028 114.563 625.137 114.414C627.541 111.182 632.445 111.495 632.483 111.495C632.7 111.506 632.912 111.426 633.075 111.27C633.239 111.115 633.341 110.896 633.361 110.66C633.371 110.542 633.359 110.422 633.326 110.309C633.293 110.196 633.239 110.091 633.168 110.001C633.096 109.912 633.009 109.839 632.911 109.787C632.813 109.735 632.706 109.706 632.597 109.701C632.369 109.701 626.778 109.326 623.859 113.288C623.723 113.475 623.659 113.712 623.68 113.95C623.701 114.187 623.807 114.406 623.973 114.56L624.202 114.706Z" fill="#263238"/>
<path d="M651.239 112.809C651.42 112.821 651.599 112.767 651.749 112.656C651.899 112.544 652.011 112.382 652.068 112.194C652.124 112.006 652.122 111.802 652.062 111.615C652.002 111.429 651.887 111.269 651.735 111.161C650.667 110.337 649.435 109.804 648.141 109.604C646.847 109.405 645.528 109.545 644.294 110.014C644.093 110.11 643.935 110.289 643.853 110.511C643.771 110.733 643.771 110.981 643.855 111.203C643.896 111.313 643.958 111.413 644.035 111.497C644.113 111.582 644.205 111.648 644.306 111.693C644.408 111.737 644.516 111.759 644.625 111.758C644.734 111.756 644.842 111.73 644.942 111.682C645.923 111.325 646.967 111.228 647.989 111.399C649.01 111.569 649.98 112.002 650.819 112.663C650.944 112.751 651.089 112.802 651.239 112.809Z" fill="#263238"/>
<path d="M711.188 733.683L728.761 732.765L723.552 689.385L705.998 690.324L711.188 733.683Z" fill="#FFC3BD"/>
<g opacity="0.2">
<path opacity="0.2" d="M723.552 689.406L726.242 711.764L708.669 712.681L705.979 690.324L723.552 689.406Z" fill="black"/>
</g>
<path d="M667.323 301.928C667.323 301.928 689.437 448.439 698.443 505.563C707.83 564.96 728.971 704.756 728.971 704.756L705.731 708.927C705.731 708.927 674.402 568.985 661.847 510.798C648.224 447.292 615.216 362.138 615.559 302.095L667.323 301.928Z" fill="#3FA6E1"/>
<path opacity="0.2" d="M631.815 346.893C628.495 341.616 622.104 334.213 617.2 328.123C621.646 365.455 634.372 408.772 645.992 449.566C649.083 418.491 647.327 371.357 631.815 346.893Z" fill="black"/>
<path d="M602.775 730.742H620.176L621.34 686.695H603.92L602.775 730.742Z" fill="#FFC3BD"/>
<path d="M620.997 727.864H601.44C601.101 727.86 600.773 727.992 600.517 728.234C600.26 728.475 600.093 728.811 600.047 729.178L597.815 746.071C597.775 746.5 597.817 746.933 597.94 747.343C598.063 747.753 598.263 748.131 598.527 748.451C598.791 748.771 599.114 749.027 599.474 749.203C599.835 749.379 600.225 749.47 600.619 749.47C607.431 749.324 610.713 748.886 619.318 748.886C624.603 748.886 635.536 749.491 642.843 749.491C650.151 749.491 650.475 741.608 647.499 740.878C633.857 737.687 628.419 733.265 623.897 729.032C623.083 728.287 622.058 727.874 620.997 727.864Z" fill="#263238"/>
<g opacity="0.2">
<path opacity="0.2" d="M621.321 686.716L620.73 709.427H603.329L603.92 686.716H621.321Z" fill="black"/>
</g>
<path d="M647.461 301.928C647.461 301.928 640.401 450.316 635.631 508.087C630.651 568.193 624.66 704.401 624.66 704.401H601.115C601.115 704.401 596.918 568.714 598.559 509.442C600.333 444.79 586.118 361.972 595.716 301.928H647.461Z" fill="#3FA6E1"/>
<path d="M599.074 705.319L626.683 705.882L627.102 687.488L598.959 689.406L599.074 705.319Z" fill="#263238"/>
<path d="M627.522 731.264C629.009 731.413 630.497 731.001 631.739 730.096C632.02 729.822 632.234 729.478 632.364 729.092C632.494 728.706 632.535 728.292 632.483 727.885C632.469 727.64 632.399 727.402 632.279 727.194C632.159 726.986 631.993 726.815 631.796 726.696C629.659 725.403 622.714 729.282 621.932 729.741C621.859 729.786 621.8 729.854 621.763 729.935C621.725 730.017 621.711 730.109 621.722 730.2C621.733 730.292 621.77 730.378 621.828 730.445C621.886 730.513 621.963 730.558 622.046 730.575C623.847 730.995 625.681 731.226 627.522 731.264ZM630.632 727.322C630.895 727.314 631.156 727.371 631.396 727.489C631.476 727.534 631.543 727.603 631.59 727.688C631.637 727.772 631.662 727.869 631.663 727.968C631.705 728.233 631.683 728.505 631.599 728.757C631.515 729.009 631.373 729.234 631.186 729.407C630.136 730.45 627.274 730.638 623.42 729.929C625.67 728.615 628.11 727.734 630.632 727.322Z" fill="#3FA6E1"/>
<path d="M622.122 730.596H622.294C624.374 729.574 628.476 725.466 628.152 723.317C628.152 722.796 627.751 722.17 626.606 722.045C626.197 721.993 625.781 722.035 625.387 722.168C624.993 722.301 624.629 722.522 624.317 722.817C622.142 724.798 621.741 729.929 621.722 730.137C621.715 730.217 621.727 730.298 621.757 730.371C621.787 730.444 621.834 730.507 621.893 730.554C621.966 730.589 622.044 730.603 622.122 730.596ZM626.282 722.879H626.53C627.274 722.879 627.331 723.276 627.331 723.401C627.541 724.694 624.755 727.906 622.638 729.303C622.801 727.146 623.575 725.098 624.851 723.443C625.249 723.071 625.758 722.871 626.282 722.879Z" fill="#3FA6E1"/>
<path d="M728.551 727.864H708.994C708.837 727.853 708.679 727.881 708.533 727.944C708.387 728.008 708.256 728.106 708.148 728.231C708.04 728.357 707.96 728.507 707.911 728.67C707.863 728.834 707.848 729.007 707.868 729.178L708.86 746.071C708.976 746.988 709.384 747.832 710.012 748.454C710.64 749.075 711.448 749.435 712.295 749.471C719.087 749.325 722.292 748.887 730.878 748.887C736.183 748.887 747.23 749.491 754.538 749.491C761.845 749.491 760.72 741.608 757.552 740.878C743.3 737.687 737.079 733.266 731.68 729.032C730.771 728.302 729.678 727.894 728.551 727.864Z" fill="#263238"/>
<path d="M735.076 731.264C736.569 731.413 738.063 731.001 739.312 730.096C739.59 729.82 739.803 729.475 739.932 729.09C740.062 728.705 740.104 728.292 740.056 727.885C740.039 727.638 739.965 727.4 739.842 727.192C739.718 726.985 739.549 726.814 739.35 726.696C737.213 725.403 730.287 729.282 729.505 729.741C729.428 729.783 729.366 729.849 729.325 729.931C729.284 730.013 729.267 730.107 729.276 730.2C729.292 730.29 729.33 730.373 729.388 730.439C729.445 730.506 729.519 730.553 729.6 730.575C731.401 730.995 733.235 731.226 735.076 731.264ZM738.186 727.322C738.449 727.31 738.711 727.367 738.949 727.489C739.032 727.533 739.102 727.601 739.152 727.686C739.203 727.77 739.231 727.868 739.236 727.968C739.269 728.232 739.242 728.501 739.159 728.752C739.076 729.003 738.939 729.228 738.759 729.407C737.69 730.45 734.828 730.638 730.974 729.929C733.225 728.618 735.664 727.737 738.186 727.322Z" fill="#3FA6E1"/>
<path d="M729.696 730.596H729.867C731.928 729.574 736.03 725.466 735.706 723.317C735.706 722.796 735.305 722.17 734.16 722.045C733.754 721.994 733.342 722.036 732.951 722.169C732.559 722.302 732.198 722.522 731.89 722.817C729.696 724.798 729.295 729.929 729.276 730.137C729.274 730.216 729.288 730.295 729.318 730.368C729.347 730.44 729.392 730.504 729.448 730.554C729.526 730.59 729.611 730.604 729.696 730.596ZM733.836 722.879H734.084C734.828 722.879 734.885 723.276 734.905 723.401C735.095 724.694 732.31 727.906 730.192 729.303C730.363 727.148 731.135 725.102 732.405 723.443C732.805 723.074 733.313 722.875 733.836 722.879Z" fill="#3FA6E1"/>
<path d="M703.785 710.116L731.05 705.319L727.978 689.385L700.961 696.351L703.785 710.116Z" fill="#263238"/>
<path d="M630.728 119.899L633.99 118.502C633.99 118.502 632.521 121.547 630.728 119.899Z" fill="#263238"/>
<path d="M595.582 297.402L593.789 304.326C593.541 304.848 594.113 305.411 594.934 305.411H667.667C668.315 305.411 668.831 305.056 668.869 304.618L669.517 297.715C669.517 297.236 669.002 296.818 668.315 296.818H596.746C596.523 296.797 596.298 296.84 596.094 296.943C595.89 297.045 595.714 297.203 595.582 297.402Z" fill="#263238"/>
<path d="M605.447 306.141H603.539C603.157 306.141 602.871 305.932 602.89 305.682L603.787 296.693C603.787 296.422 604.149 296.213 604.531 296.213H606.439C606.821 296.213 607.107 296.422 607.088 296.693L606.172 305.682C606.153 305.932 605.828 306.141 605.447 306.141Z" fill="#3FA6E1"/>
<path d="M662.286 306.141H660.378C659.996 306.141 659.691 305.932 659.729 305.682L660.626 296.693C660.626 296.422 660.989 296.213 661.37 296.213H663.278C663.66 296.213 663.946 296.422 663.927 296.693L663.03 305.682C662.992 305.932 662.668 306.141 662.286 306.141Z" fill="#3FA6E1"/>
<path d="M633.971 306.141H632.063C631.682 306.141 631.395 305.932 631.414 305.682L632.311 296.693C632.311 296.422 632.674 296.213 633.055 296.213H634.963C635.345 296.213 635.631 296.422 635.593 296.693L634.696 305.682C634.696 305.932 634.353 306.141 633.971 306.141Z" fill="#3FA6E1"/>
<path d="M611.075 181.633C599.99 182.738 583.047 180.444 583.562 199.026C584.077 217.609 580.776 266.828 581.654 289.874C582.532 312.919 577.036 462.142 585.928 505.396C587.492 513.009 644.923 512.029 651.868 511.299V504.437C651.868 504.437 693.596 498.306 703.919 500.266C703.022 474.28 679.916 343.014 679.019 306.141C678.122 269.268 681.919 205.909 681.69 195.856C681.461 185.804 663.183 181.382 651.983 181.633C654.463 190.705 648.987 207.744 640.229 226.743C618.688 203.802 612.334 192.415 611.075 181.633Z" fill="#3FA6E1"/>
<path opacity="0.7" d="M611.075 181.633C599.99 182.738 583.047 180.444 583.562 199.026C584.077 217.609 580.776 266.828 581.654 289.874C582.532 312.919 577.036 462.142 585.928 505.396C587.492 513.009 644.923 512.029 651.868 511.299V504.437C651.868 504.437 693.596 498.306 703.919 500.266C703.022 474.28 679.916 343.014 679.019 306.141C678.122 269.268 681.919 205.909 681.69 195.856C681.461 185.804 663.183 181.382 651.983 181.633C654.463 190.705 648.987 207.744 640.229 226.743C618.688 203.802 612.334 192.415 611.075 181.633Z" fill="white"/>
<path opacity="0.2" d="M589.973 225.701L582.875 231.186C582.322 247.245 581.578 265.243 581.501 279.154C588.103 263.199 591.823 240.175 589.973 225.701Z" fill="#3FA6E1"/>
<path d="M612.582 209.037C612.222 209.622 611.834 210.186 611.419 210.726L611.018 211.226L610.808 211.477L610.426 211.915L609.663 212.811L608.137 214.668C607.107 215.898 606.114 217.17 605.122 218.463C603.138 221.049 601.23 223.684 599.398 226.368C595.656 231.727 592.172 237.296 588.961 243.052C582.652 253.679 578.093 265.432 575.491 277.777C575.01 280.531 574.71 283.319 574.594 286.119C574.713 287.512 575.083 288.866 575.682 290.103C578.104 295.709 581.018 301.045 584.382 306.036C587.912 311.542 591.919 316.902 596.021 322.2C598.082 324.869 600.219 327.455 602.375 330.02C604.531 332.586 606.782 335.214 608.881 337.487L588.313 359.218C585.813 356.236 583.6 353.525 581.291 350.668L574.556 342.054C570.091 336.277 565.798 330.271 561.563 323.972C556.964 317.32 552.988 310.179 549.695 302.658C548.732 300.328 547.909 297.931 547.233 295.483C546.836 294.026 546.524 292.542 546.299 291.041C546.152 290.179 546.05 289.309 545.993 288.434C545.917 287.519 545.885 286.6 545.898 285.681C545.943 281.203 546.294 276.734 546.947 272.313C548.268 263.96 550.405 255.787 553.32 247.932C556.063 240.496 559.25 233.264 562.86 226.284C566.371 219.402 570.225 212.832 574.213 206.409C576.235 203.197 578.296 200.048 580.452 196.94L583.714 192.289L585.413 189.954L586.271 188.786L586.71 188.223L586.901 187.951L586.634 188.285C586.29 188.765 585.966 189.244 585.661 189.745L612.582 209.037Z" fill="#3FA6E1"/>
<path opacity="0.7" d="M612.582 209.037C612.222 209.622 611.834 210.186 611.419 210.726L611.018 211.226L610.808 211.477L610.426 211.915L609.663 212.811L608.137 214.668C607.107 215.898 606.114 217.17 605.122 218.463C603.138 221.049 601.23 223.684 599.398 226.368C595.656 231.727 592.172 237.296 588.961 243.052C582.652 253.679 578.093 265.432 575.491 277.777C575.01 280.531 574.71 283.319 574.594 286.119C574.713 287.512 575.083 288.866 575.682 290.103C578.104 295.709 581.018 301.045 584.382 306.036C587.912 311.542 591.919 316.902 596.021 322.2C598.082 324.869 600.219 327.455 602.375 330.02C604.531 332.586 606.782 335.214 608.881 337.487L588.313 359.218C585.813 356.236 583.6 353.525 581.291 350.668L574.556 342.054C570.091 336.277 565.798 330.271 561.563 323.972C556.964 317.32 552.988 310.179 549.695 302.658C548.732 300.328 547.909 297.931 547.233 295.483C546.836 294.026 546.524 292.542 546.299 291.041C546.152 290.179 546.05 289.309 545.993 288.434C545.917 287.519 545.885 286.6 545.898 285.681C545.943 281.203 546.294 276.734 546.947 272.313C548.268 263.96 550.405 255.787 553.32 247.932C556.063 240.496 559.25 233.264 562.86 226.284C566.371 219.402 570.225 212.832 574.213 206.409C576.235 203.197 578.296 200.048 580.452 196.94L583.714 192.289L585.413 189.954L586.271 188.786L586.71 188.223L586.901 187.951L586.634 188.285C586.29 188.765 585.966 189.244 585.661 189.745L612.582 209.037Z" fill="white"/>
<path opacity="0.3" d="M640.249 226.743C642.252 271.249 653.128 426.458 651.887 504.437L655.207 503.957C655.207 503.957 650.056 384.037 647.728 331.564C645.4 279.091 640.249 226.743 640.249 226.743Z" fill="#3FA6E1"/>
<path opacity="0.3" d="M607.278 337.862L586.901 361.971C586.901 370.064 581.73 386.248 595.43 392.129C609.129 398.01 609.492 355.339 607.278 337.862Z" fill="#3FA6E1"/>
<path opacity="0.3" d="M673.715 337.112L682.683 361.68C682.95 370.022 685.564 386.706 680.259 393.067C674.955 399.428 673.41 355.193 673.715 337.112Z" fill="#3FA6E1"/>
<path d="M651.448 242.239L673.829 242.072C674.052 242.083 674.275 242.041 674.481 241.948C674.688 241.856 674.874 241.716 675.026 241.537C675.178 241.359 675.294 241.147 675.364 240.915C675.434 240.683 675.457 240.438 675.432 240.195L674.192 228.6C674.118 228.097 673.887 227.639 673.54 227.301C673.192 226.962 672.749 226.766 672.284 226.743L649.884 226.889C649.662 226.882 649.441 226.927 649.236 227.021C649.031 227.114 648.846 227.254 648.695 227.432C648.543 227.61 648.428 227.82 648.356 228.051C648.285 228.281 648.259 228.525 648.281 228.766L649.521 240.383C649.6 240.887 649.834 241.346 650.184 241.684C650.535 242.022 650.981 242.218 651.448 242.239Z" fill="white" stroke="#3FA6E1" stroke-width="0.5" stroke-miterlimit="10"/>
</svg>
