<svg width="927" height="777" viewBox="0 0 927 777" fill="none" xmlns="http://www.w3.org/2000/svg">
<path d="M486.54 777C690.853 777 856.482 766.43 856.482 753.391C856.482 740.353 690.853 729.783 486.54 729.783C282.227 729.783 116.598 740.353 116.598 753.391C116.598 766.43 282.227 777 486.54 777Z" fill="#F5F5F5"/>
<path d="M465.798 659.666C474.752 608.016 433.893 556.178 374.537 543.884C315.182 531.59 259.806 563.494 250.852 615.144C241.897 666.794 282.756 718.632 342.112 730.926C401.468 743.221 456.844 711.316 465.798 659.666Z" fill="#3FA6E1"/>
<path d="M339.624 752.891C346.188 753.746 359.982 753.683 356.052 749.888C352.122 746.092 344.928 749.575 345.157 736.039C345.386 722.504 346.531 710.658 346.531 710.658L344.241 710.345L341.952 710.053C341.952 710.053 340.502 721.857 337.831 735.08C335.159 748.302 328.901 743.068 324.284 745.758C319.666 748.448 333.061 752.015 339.624 752.891Z" fill="#C5E4F6"/>
<path d="M500.755 666.924C502.014 659.728 502.09 644.316 496.843 648.153C491.596 651.991 496.29 660.542 477.763 658.081C459.237 655.62 443.076 652.45 443.076 652.45L442.656 654.869L442.217 657.372C442.217 657.372 458.359 660.896 476.39 666.027C494.42 671.157 487.208 677.268 490.814 682.878C494.42 688.488 499.515 674.119 500.755 666.924Z" fill="#C5E4F6"/>
<path d="M215.928 607.923C214.898 613.846 215.28 626.693 220.374 623.669C225.468 620.645 220.546 613.45 239.015 616.119C257.485 618.789 273.664 622.021 273.664 622.021L274.027 619.936L274.389 617.85C274.389 617.85 258.248 614.367 240.16 609.508C222.072 604.649 229.094 599.81 225.335 595.034C221.576 590.258 216.959 602 215.928 607.923Z" fill="#3FA6E1"/>
<path d="M271.299 523.478C265.269 526.043 254.127 533.447 260.328 535.429C266.529 537.41 269.6 529.839 280.228 544.501C290.856 559.162 299.308 572.447 299.308 572.447L301.464 571.446L303.563 570.55C303.563 570.55 295.301 557.118 286.925 541.518C278.549 525.918 287.803 528.212 289.425 522.873C291.046 517.534 277.309 520.85 271.299 523.478Z" fill="#3FA6E1"/>
<path d="M432.677 744.549C438.63 741.295 449.678 732.431 443.591 730.763C437.505 729.094 434.394 737.52 424.129 722.421C413.864 707.321 405.603 693.577 405.603 693.577L403.523 694.724L401.462 695.85C401.462 695.85 409.419 709.782 417.49 726.05C425.56 742.317 416.478 740.544 414.818 746.446C413.158 752.349 426.743 747.76 432.677 744.549Z" fill="#C5E4F6"/>
<path d="M464.922 577.932C461.106 573.073 451.566 563.917 451.318 568.693C451.07 573.469 458.702 576.264 447.941 583.772C437.18 591.28 427.144 597.224 427.144 597.224L428.48 598.913L429.815 600.602C429.815 600.602 440.042 594.888 452.215 589.194C464.388 583.501 464.579 590.613 469.845 592.177C475.111 593.741 468.758 582.792 464.922 577.932Z" fill="#3FA6E1"/>
<path d="M242.488 704.255C246.838 709.553 257.752 719.313 258.572 713.724C259.393 708.134 250.063 705.59 263.972 695.788C277.881 685.986 290.798 678.061 290.798 678.061L289.272 676.204L287.765 674.369C287.765 674.369 274.657 682.044 259.145 689.886C243.633 697.727 243.881 689.406 237.584 688.113C231.288 686.82 238.157 698.958 242.488 704.255Z" fill="#C5E4F6"/>
<path d="M312.53 520.371C306.406 521.142 294.271 524.75 299.174 527.837C304.078 530.924 309.096 525.314 314.076 539.996C319.056 554.678 322.624 567.755 322.624 567.755L324.761 567.484L326.898 567.213C326.898 567.213 323.616 554.094 320.906 539.12C318.197 524.146 325.715 528.212 328.748 524.104C331.782 519.995 318.636 519.599 312.53 520.371Z" fill="#3FA6E1"/>
<path d="M385.282 753.287C392.781 753.079 407.93 750.534 402.454 747.03C396.978 743.527 390.129 748.678 386.084 733.558C382.039 718.437 379.539 705.048 379.539 705.048H376.925H374.311C374.311 705.048 376.467 718.458 377.727 733.641C378.986 748.824 370.438 744.069 366.279 747.948C362.119 751.827 377.784 753.517 385.282 753.287Z" fill="#C5E4F6"/>
<path d="M492.359 616.953C490.451 610.259 484.46 596.744 481.675 601.666C478.889 606.588 486.158 612.657 470.074 616.265C453.989 619.873 439.546 622.125 439.546 622.125L440.195 624.461L440.843 626.776C440.843 626.776 455.401 624.837 472.173 623.731C488.944 622.626 485.529 630.217 490.642 633.992C495.756 637.767 494.172 623.585 492.359 616.953Z" fill="#3FA6E1"/>
<path d="M226.594 655.954C228.178 661.313 233.711 672.033 236.63 667.904C239.549 663.774 232.585 659.165 248.67 655.536C264.754 651.908 279.198 649.467 279.198 649.467L278.644 647.611L278.091 645.734C278.091 645.734 263.59 647.924 246.914 649.572C230.238 651.219 233.959 644.858 228.96 642.001C223.961 639.144 224.991 650.698 226.594 655.954Z" fill="#C5E4F6"/>
<path d="M245.445 569.069C241.476 574.554 235.295 587.109 241.362 585.753C247.429 584.398 246.762 575.826 261.987 583.668C277.213 591.509 290.13 599.038 290.13 599.038L291.504 597.12L292.878 595.201C292.878 595.201 280.152 587.317 266.414 577.536C252.676 567.755 261.415 565.023 260.499 559.287C259.583 553.552 249.395 563.584 245.445 569.069Z" fill="#3FA6E1"/>
<path d="M471.276 705.778C475.245 700.293 481.446 687.738 475.359 689.093C469.273 690.449 469.959 699.021 454.734 691.179C439.508 683.337 426.61 675.808 426.61 675.808L425.217 677.727L423.843 679.625C423.843 679.625 436.569 687.508 450.326 697.31C464.083 707.113 455.306 709.824 456.241 715.559C457.176 721.294 467.288 711.179 471.276 705.778Z" fill="#C5E4F6"/>
<path d="M427.392 543.604C421.096 539.141 406.786 531.466 408.579 537.139C410.373 542.811 419.913 543.666 411.594 555.909C403.275 568.151 395.032 578.37 395.032 578.37L397.226 579.914L399.421 581.478C399.421 581.478 407.949 571.488 418.615 560.893C429.281 550.298 432.601 558.599 438.993 558.808C445.384 559.016 433.707 548.088 427.392 543.604Z" fill="#3FA6E1"/>
<path d="M285.131 735.309C290.855 738.605 303.906 743.652 302.437 738.208C300.968 732.765 292.096 733.808 300.3 719.855C308.504 705.903 316.556 694.015 316.556 694.015L314.648 692.868L312.74 691.721C312.74 691.721 304.421 703.442 294.099 716.185C283.777 728.928 280.953 721.19 275.019 722.275C269.085 723.359 279.427 732.035 285.131 735.309Z" fill="#C5E4F6"/>
<path d="M311.462 627.903C311.085 627.906 310.71 627.835 310.355 627.694C309.813 627.493 309.327 627.145 308.943 626.681C308.559 626.218 308.29 625.655 308.161 625.045C305.127 610.446 303.963 598.559 304.727 589.466C304.743 588.964 304.852 588.471 305.049 588.017C305.245 587.563 305.524 587.158 305.868 586.826C306.213 586.494 306.616 586.242 307.052 586.086C307.489 585.93 307.95 585.873 308.407 585.918C308.865 585.964 309.309 586.111 309.713 586.35C310.116 586.59 310.471 586.917 310.755 587.311C311.039 587.706 311.247 588.159 311.365 588.645C311.483 589.13 311.51 589.636 311.443 590.133C310.99 599.375 311.722 608.642 313.618 617.662C323.387 609.487 331.992 603.898 339.261 600.978C339.684 600.777 340.139 600.674 340.6 600.673C341.061 600.672 341.516 600.774 341.94 600.972C342.363 601.171 342.744 601.463 343.061 601.828C343.377 602.194 343.621 602.627 343.779 603.1C343.937 603.573 344.004 604.076 343.978 604.579C343.951 605.081 343.83 605.573 343.623 606.022C343.416 606.472 343.128 606.871 342.774 607.194C342.421 607.517 342.012 607.758 341.57 607.902C333.938 610.926 324.551 617.37 313.58 627.068C312.982 627.603 312.234 627.897 311.462 627.903Z" fill="white"/>
<path d="M333.385 704.464C332.751 704.462 332.13 704.267 331.591 703.901C323.718 698.133 316.511 691.348 310.126 683.692C306.795 688.696 304.39 694.364 303.048 700.376C302.863 701.314 302.351 702.137 301.62 702.669C300.89 703.202 299.999 703.402 299.135 703.229C298.272 703.055 297.504 702.521 296.995 701.739C296.486 700.958 296.275 699.99 296.408 699.041C297.534 692.43 301.101 684.588 307.016 675.704C307.31 675.26 307.689 674.894 308.128 674.63C308.567 674.367 309.054 674.214 309.554 674.182C310.051 674.158 310.547 674.251 311.008 674.456C311.47 674.662 311.885 674.973 312.225 675.37C318.954 683.847 326.649 691.347 335.121 697.686C335.742 698.121 336.216 698.766 336.47 699.523C336.724 700.279 336.745 701.106 336.529 701.877C336.312 702.648 335.871 703.32 335.272 703.791C334.674 704.262 333.95 704.506 333.213 704.485L333.385 704.464Z" fill="white"/>
<path d="M377.975 660.083C379.101 642.835 394.365 612.115 412.777 624.628C425.408 633.179 409.438 645.484 406.824 664.025C404.916 678.144 415.257 692.639 399.726 699.625C384.195 706.612 376.525 682.44 377.975 660.083Z" fill="white"/>
<path opacity="0.1" d="M432.582 625.278C439.902 607.255 429.042 584.495 408.326 574.441C387.61 564.388 364.881 570.848 357.561 588.871C350.241 606.894 361.1 629.654 381.816 639.708C402.533 649.761 425.261 643.301 432.582 625.278Z" fill="white"/>
<path opacity="0.1" d="M314.598 655.061C331.492 647.884 340.95 630.151 335.724 615.454C330.498 600.756 312.566 594.66 295.673 601.837C278.779 609.015 269.321 626.747 274.547 641.445C279.773 656.142 297.705 662.239 314.598 655.061Z" fill="white"/>
<path opacity="0.1" d="M360.612 709.866C355.651 718.208 343.764 719.584 334.072 712.744C324.379 705.903 320.582 693.556 325.543 685.131C330.504 676.705 342.41 675.412 352.083 682.232C361.757 689.052 365.573 701.44 360.612 709.866Z" fill="white"/>
<path opacity="0.1" d="M426.067 705.206C436.14 699.078 440.687 687.003 436.223 678.237C431.759 669.471 419.975 667.333 409.902 673.461C399.829 679.589 395.282 691.664 399.746 700.43C404.209 709.196 415.994 711.334 426.067 705.206Z" fill="white"/>
<path d="M551.412 72.995C564.31 66.0501 585.527 74.2463 592.93 95.9363C600.333 117.626 587.359 131.203 591.823 146.845C596.288 162.487 599.074 171.455 596.593 195.793C594.113 220.132 577.513 231.769 564.863 211.143C552.213 190.517 523.25 192.54 524.547 175.522C525.845 158.503 533.152 122.882 529.489 108.783C525.826 94.6849 538.514 74.2046 551.412 72.995Z" fill="#263238"/>
<path d="M388.488 548.526L370.629 544.605L382.058 500.141L399.898 504.041L388.488 548.526Z" fill="#FFC3BD"/>
<path d="M371.736 530.882L391.884 534.74C392.227 534.797 392.536 534.995 392.749 535.294C392.962 535.593 393.062 535.969 393.029 536.346L391.655 554.032C391.6 554.484 391.461 554.92 391.248 555.313C391.035 555.706 390.752 556.048 390.415 556.318C390.079 556.589 389.696 556.783 389.289 556.888C388.883 556.993 388.461 557.008 388.049 556.931C381.066 555.45 377.765 554.365 368.969 552.76C363.531 551.717 347.752 549.318 340.216 547.879C332.679 546.44 334.015 538.306 337.296 538.181C352.045 537.597 362.902 534.99 368.549 531.591C369.51 530.973 370.631 530.723 371.736 530.882Z" fill="#263238"/>
<g opacity="0.2">
<path opacity="0.2" d="M382.058 500.141L376.162 523.082L394.021 526.982L399.917 504.061L382.058 500.141Z" fill="black"/>
</g>
<path d="M516.82 301.198C516.82 301.198 393.391 321.366 390.014 381.701C386.503 444.477 373.663 510.214 373.663 510.214L401.844 521.726C401.844 521.726 429.071 447.063 435.921 385.539C494.935 367.832 574.327 371.69 571.007 299.425L516.82 301.198Z" fill="#C5E4F6"/>
<path opacity="0.2" d="M516.82 301.198C516.82 301.198 393.391 321.366 390.014 381.701C386.503 444.477 373.663 510.214 373.663 510.214L401.844 521.726C401.844 521.726 429.071 447.063 435.921 385.539C494.935 367.832 574.327 371.69 571.007 299.425L516.82 301.198Z" fill="white"/>
<path d="M403.447 524.333L371.812 514.281L372.575 504.103L408.293 512.842L403.447 524.333Z" fill="#263238"/>
<path d="M364.294 532.988C362.745 532.843 361.292 532.104 360.192 530.903C359.966 530.56 359.822 530.162 359.772 529.743C359.722 529.324 359.768 528.899 359.906 528.504C359.978 528.252 360.104 528.023 360.273 527.834C360.442 527.646 360.65 527.504 360.879 527.42C363.36 526.544 369.656 531.862 370.419 532.488C370.487 532.545 370.535 532.626 370.556 532.716C370.576 532.807 370.569 532.903 370.534 532.988C370.501 533.082 370.443 533.164 370.369 533.223C370.294 533.282 370.206 533.317 370.114 533.322C368.169 533.398 366.221 533.287 364.294 532.988ZM361.948 528.358C361.678 528.283 361.396 528.283 361.127 528.358C361.031 528.387 360.944 528.443 360.874 528.519C360.804 528.596 360.753 528.692 360.726 528.796C360.636 529.054 360.606 529.332 360.639 529.605C360.673 529.878 360.768 530.138 360.917 530.361C361.776 531.633 364.733 532.446 368.816 532.446C366.762 530.656 364.438 529.273 361.948 528.358Z" fill="#C5E4F6"/>
<path d="M369.999 533.364C369.943 533.382 369.884 533.382 369.828 533.364C367.92 531.904 364.581 526.899 365.382 524.771C365.554 524.271 366.05 523.687 367.29 523.791C367.712 523.814 368.124 523.936 368.5 524.149C368.875 524.361 369.204 524.658 369.465 525.021C371.278 527.482 370.591 532.801 370.553 533.009C370.542 533.092 370.514 533.17 370.471 533.239C370.428 533.308 370.371 533.365 370.305 533.406C370.202 533.432 370.093 533.418 369.999 533.364ZM367.385 524.688H367.137C366.336 524.688 366.221 524.959 366.183 525.063C365.706 526.335 367.881 530.194 369.751 532.029C370.051 529.825 369.696 527.574 368.74 525.605C368.411 525.123 367.927 524.795 367.385 524.688Z" fill="#C5E4F6"/>
<path d="M627.121 733.787H608.919L604.34 687.717H622.542L627.121 733.787Z" fill="#FFC3BD"/>
<path d="M607.336 731.472H627.732C628.085 731.465 628.427 731.602 628.692 731.857C628.957 732.111 629.125 732.465 629.163 732.849L631.224 750.513C631.258 750.964 631.206 751.417 631.073 751.845C630.939 752.273 630.725 752.665 630.446 752.998C630.166 753.331 629.826 753.597 629.448 753.78C629.07 753.963 628.661 754.057 628.247 754.059C621.111 753.934 617.696 753.475 608.709 753.475C603.176 753.475 593.827 754.1 586.176 754.1C578.525 754.1 578.258 745.758 581.463 745.091C595.773 741.733 599.36 737.124 604.225 732.703C605.097 731.905 606.199 731.469 607.336 731.472Z" fill="#263238"/>
<g opacity="0.2">
<path opacity="0.2" d="M604.359 687.738L606.706 711.471H624.908L622.561 687.738H604.359Z" fill="black"/>
</g>
<path d="M590.831 298.779C610.331 329.583 596.803 442.683 603.081 503.165C622.447 558.328 626.396 706.904 626.396 706.904H603.5C603.5 706.904 577.399 569.653 560.952 502.831C540.918 436.802 532.866 300.677 532.866 300.677C532.866 300.677 564.177 299.363 590.831 298.779Z" fill="#C5E4F6"/>
<path opacity="0.3" d="M590.831 298.779C610.331 329.583 596.803 442.683 603.081 503.165C622.447 558.328 626.396 706.904 626.396 706.904H603.5C603.5 706.904 577.399 569.653 560.952 502.831C540.918 436.802 532.866 300.677 532.866 300.677C532.866 300.677 564.177 299.363 590.831 298.779Z" fill="white"/>
<path d="M628.095 707.842H599.227L597.605 697.769L630.003 696.539L628.095 707.842Z" fill="#263238"/>
<path d="M605.008 732.035C603.4 731.411 601.985 730.305 600.925 728.844C600.705 728.49 600.567 728.083 600.524 727.658C600.481 727.232 600.533 726.802 600.677 726.404C600.748 726.179 600.882 725.983 601.06 725.845C601.238 725.707 601.451 725.632 601.669 725.632C604.187 725.466 610.465 732.536 611.209 733.349C611.276 733.416 611.324 733.503 611.348 733.599C611.372 733.695 611.37 733.796 611.342 733.891C611.302 733.976 611.236 734.042 611.157 734.08C611.077 734.118 610.987 734.125 610.904 734.1C608.892 733.582 606.92 732.891 605.008 732.035ZM602.737 726.8C602.48 726.648 602.191 726.569 601.898 726.571C601.806 726.568 601.716 726.6 601.644 726.66C601.571 726.721 601.519 726.807 601.497 726.905C601.405 727.163 601.37 727.442 601.397 727.717C601.423 727.993 601.51 728.258 601.65 728.49C602.489 729.991 605.466 731.576 609.587 732.807C607.569 730.468 605.264 728.447 602.737 726.8Z" fill="#C5E4F6"/>
<path d="M610.77 734.121C610.702 734.099 610.642 734.056 610.598 733.996C608.69 731.91 605.409 726.112 606.248 724.256C606.458 723.797 606.954 723.359 608.156 723.818C609.061 724.132 609.833 724.791 610.331 725.674C612.125 728.615 611.342 733.662 611.304 733.87C611.293 733.943 611.262 734.011 611.214 734.063C611.166 734.116 611.104 734.15 611.037 734.162C610.946 734.181 610.852 734.166 610.77 734.121ZM608.29 724.798L608.042 724.694C607.24 724.402 607.107 724.694 607.069 724.694C606.553 725.82 608.671 730.242 610.541 732.598C610.86 730.337 610.541 728.023 609.625 725.966C609.303 725.419 608.837 724.991 608.29 724.736V724.798Z" fill="#C5E4F6"/>
<path d="M595.83 182.195C603.462 191.831 610.56 201.591 617.543 211.665C624.526 221.738 631.338 231.957 637.692 242.948C638.474 244.283 639.237 245.743 640.019 247.119C640.802 248.496 641.546 249.956 642.271 251.457L643.397 253.668L643.664 254.231C643.835 254.565 644.045 255.086 644.217 255.524C644.567 256.423 644.829 257.36 644.999 258.319C645.548 261.423 645.311 264.632 644.312 267.599C642.945 271.468 640.962 275.04 638.455 278.152C636.408 280.805 634.189 283.293 631.815 285.598C622.913 294.177 613.152 301.628 602.718 307.809L597.528 299.467C605.944 291.665 613.915 283.307 621.397 274.44C623.07 272.34 624.643 270.147 626.11 267.871C627.271 266.18 628.156 264.281 628.724 262.26C628.724 261.572 628.838 261.676 628.724 262.26C628.724 262.427 628.724 262.636 628.858 262.824C628.884 262.909 628.916 262.993 628.953 263.074L628.686 262.615L627.732 260.696C627.064 259.487 626.339 258.256 625.557 257.026C624.774 255.795 624.069 254.565 623.267 253.334C616.952 243.49 610.026 233.751 603.042 224.136C596.059 214.522 588.828 204.845 581.711 195.355L595.83 182.195Z" fill="#FFC3BD"/>
<path d="M515.656 199.839C514.568 200.152 513.958 200.298 513.176 200.486L510.962 200.966C509.493 201.237 508.062 201.487 506.631 201.675C503.769 202.113 500.907 202.384 498.121 202.613C492.397 203.009 486.883 202.947 481.312 202.759C475.741 202.571 470.207 202.029 464.712 201.257C461.965 200.903 459.236 200.423 456.508 199.964L448.399 198.317H447.941C446.667 198.033 445.477 197.408 444.478 196.498C443.479 195.588 442.702 194.422 442.217 193.103C440.766 189.069 440.274 184.7 440.786 180.402C441.154 177.065 441.792 173.771 442.694 170.558C444.337 164.744 446.398 159.082 448.857 153.623C451.223 148.305 453.799 143.195 456.489 138.211C459.179 133.226 462.098 128.409 465.304 123.612C465.987 122.62 466.979 121.937 468.092 121.692C469.205 121.447 470.361 121.656 471.342 122.281C472.323 122.906 473.06 123.903 473.414 125.082C473.767 126.261 473.713 127.541 473.26 128.68C471.2 133.685 469.082 138.836 467.193 143.967C465.304 149.097 463.377 154.228 461.774 159.358C460.148 164.324 458.829 169.404 457.824 174.562C457.382 176.834 457.126 179.144 457.061 181.465C456.945 182.823 457.135 184.19 457.615 185.449L451.356 180.152L458.988 181.132C461.545 181.34 464.083 181.716 466.62 181.883C469.158 182.049 471.715 182.279 474.252 182.341C476.79 182.404 479.347 182.571 481.884 182.612C486.96 182.612 491.997 182.466 496.977 182.091C499.457 181.903 501.918 181.653 504.341 181.299C505.563 181.153 506.727 180.923 507.91 180.735L509.627 180.423L511.019 180.131L511.668 179.985C514.029 179.501 516.47 180.036 518.478 181.477C520.486 182.918 521.906 185.154 522.439 187.714C522.972 190.274 522.577 192.96 521.337 195.21C520.098 197.459 518.109 199.095 515.789 199.777L515.656 199.839Z" fill="#FFC3BD"/>
<path d="M474.272 105.718L473.127 106.385C470.052 108.187 467.684 111.153 466.468 114.727L462.499 126.386C462.499 126.386 456.069 137.335 452.082 141.381C455.02 145.552 463.377 150.203 466.83 149.348C468.827 144.827 470.4 140.096 471.524 135.228C475.183 133.09 478.47 130.266 481.236 126.886L485.452 122.402C486.723 121.067 487.504 119.27 487.648 117.35C487.792 115.43 487.289 113.518 486.235 111.974L483.506 107.803C482.455 106.298 480.942 105.259 479.245 104.876C477.549 104.493 475.783 104.792 474.272 105.718Z" fill="#C5E4F6"/>
<path opacity="0.6" d="M474.272 105.718L473.127 106.385C470.052 108.187 467.684 111.153 466.468 114.727L462.499 126.386C462.499 126.386 456.069 137.335 452.082 141.381C455.02 145.552 463.377 150.203 466.83 149.348C468.827 144.827 470.4 140.096 471.524 135.228C475.183 133.09 478.47 130.266 481.236 126.886L485.452 122.402C486.723 121.067 487.504 119.27 487.648 117.35C487.792 115.43 487.289 113.518 486.235 111.974L483.506 107.803C482.455 106.298 480.942 105.259 479.245 104.876C477.549 104.493 475.783 104.792 474.272 105.718Z" fill="white"/>
<path d="M522.506 177.065C514.874 178.233 471.333 181.57 471.333 181.57L477.057 226.868C477.057 226.868 512.412 223.323 519.033 215.043C525.864 206.472 533.687 175.397 522.506 177.065Z" fill="#C5E4F6"/>
<path opacity="0.2" d="M506.116 191.539C502.911 196.586 499.591 212.123 499.724 223.156C502.987 222.405 506.231 221.55 509.112 220.549L506.116 191.539Z" fill="black"/>
<path d="M588.084 175.96C589.988 176.283 591.811 177.026 593.444 178.145C595.076 179.265 596.482 180.736 597.577 182.469C598.671 184.202 599.431 186.161 599.81 188.226C600.189 190.291 600.179 192.419 599.78 194.479C585.794 260.154 597.872 285.327 592.148 301.198C578.792 310.208 534.011 311.105 515.732 301.532C512.603 292.856 516.915 283.763 514.988 268.517C511.477 240.821 503.216 233.167 503.216 196.523C503.216 187.243 506.574 180.381 514.034 178.754C527.963 175.73 559.979 170.057 588.084 175.96Z" fill="#C5E4F6"/>
<path opacity="0.2" d="M565.207 267.641C565.207 267.641 578.563 274.086 588.103 275.129C588.332 276.755 588.523 279.425 588.675 282.386C589.229 293.252 578.887 301.302 569.996 296.443C568.865 295.933 567.848 295.163 567.015 294.184C566.182 293.204 565.552 292.04 565.169 290.77C562.707 280.509 565.207 267.641 565.207 267.641Z" fill="white"/>
<path d="M521.514 264.867C521.514 264.867 516.82 271.291 513.481 272.334C513.481 273.96 513.328 276.63 513.271 279.612C513.08 290.457 516.706 298.508 519.835 293.669C520.839 291.964 521.417 290.001 521.514 287.975C522.007 280.282 522.007 272.561 521.514 264.867Z" fill="#C5E4F6"/>
<path opacity="0.2" d="M521.514 264.867C521.514 264.867 516.82 271.291 513.481 272.334C513.481 273.96 513.328 276.63 513.271 279.612C513.08 290.457 516.706 298.508 519.835 293.669C520.839 291.964 521.417 290.001 521.514 287.975C522.007 280.282 522.007 272.561 521.514 264.867Z" fill="white"/>
<path opacity="0.2" d="M575.586 217.066C577.723 223.719 587.13 247.015 592.758 256.692C592.762 248.668 593.138 240.649 593.884 232.666L575.586 217.066Z" fill="black"/>
<path d="M594.724 179.234C601.65 185.491 622.428 214.459 622.428 214.459L595.601 251.04C595.601 251.04 572.591 221.488 573.163 210.518C573.755 199.068 586.004 171.413 594.724 179.234Z" fill="#C5E4F6"/>
<path d="M572.4 231.352L552.385 230.81C552.019 230.804 551.658 230.714 551.325 230.546C550.992 230.379 550.695 230.137 550.452 229.837C550.21 229.536 550.028 229.184 549.917 228.802C549.806 228.42 549.769 228.017 549.809 227.619L550.687 218.026C550.772 217.179 551.141 216.398 551.722 215.831C552.304 215.265 553.056 214.955 553.835 214.96L573.85 215.502C574.217 215.508 574.578 215.598 574.911 215.766C575.243 215.933 575.54 216.175 575.783 216.476C576.025 216.776 576.208 217.128 576.319 217.51C576.429 217.892 576.466 218.295 576.426 218.693L575.548 228.287C575.463 229.133 575.095 229.914 574.513 230.481C573.932 231.047 573.179 231.357 572.4 231.352Z" fill="white"/>
<path d="M564.768 133.101C562.955 144.968 561.448 166.658 569.214 174.291C569.214 174.291 564.596 199.109 541.891 209.579C528.535 198.067 535.652 175.376 535.652 175.376C547.615 171.83 547.1 162.091 544.696 152.997L564.768 133.101Z" fill="#FFC3BD"/>
<path opacity="0.6" d="M531.092 185.178C539.277 191.58 553.988 192.665 565.207 187.013C563.012 194.771 548.893 210.809 540.822 213.375C530.424 198.838 531.092 185.178 531.092 185.178Z" fill="#C5E4F6"/>
<path opacity="0.2" d="M556.487 141.214L544.6 152.977C545.181 155.095 545.589 157.266 545.821 159.463C550.401 158.587 556.564 152.851 556.907 147.575C557.118 145.444 556.976 143.29 556.487 141.214Z" fill="black"/>
<path d="M551.412 72.9949C540.441 65.8623 522.181 82.6928 520.884 106.51C519.586 130.327 522.964 139.066 519.453 147.387C514.358 159.484 511.973 169.056 517.068 181.966C521.285 192.665 511.973 203.698 523.746 215.502C531.073 184.698 535.366 197.149 541.986 174.354C545.917 160.797 534.908 138.357 538.17 133.748C541.433 129.138 579.536 96.2908 551.412 72.9949Z" fill="#263238"/>
<path d="M581.673 116.187C576.178 134.957 574.232 143.07 563.127 150.432C546.451 161.527 526.513 150.036 526.761 129.806C526.97 111.599 535.919 83.9234 554.789 81.0453C558.945 80.3915 563.185 80.91 567.107 82.5514C571.028 84.1928 574.5 86.9027 577.194 90.4238C579.888 93.9448 581.713 98.16 582.497 102.669C583.281 107.178 582.997 111.832 581.673 116.187Z" fill="#FFC3BD"/>
<path d="M555.8 114.852C555.438 116.417 554.407 117.459 553.473 117.209C552.538 116.959 552.08 115.478 552.442 113.914C552.805 112.35 553.835 111.307 554.77 111.578C555.705 111.849 556.163 113.288 555.8 114.852Z" fill="#263238"/>
<path d="M538.419 109.263C538.056 110.827 537.007 111.891 536.072 111.62C535.137 111.349 534.679 109.889 535.041 108.345C535.404 106.802 536.453 105.738 537.388 105.989C538.323 106.239 538.781 107.72 538.419 109.263Z" fill="#263238"/>
<path d="M537.77 106.197L534.603 104.112C534.603 104.112 535.69 107.574 537.77 106.197Z" fill="#263238"/>
<path d="M544.104 112.266C542.012 115.466 539.528 118.336 536.72 120.796C537.317 121.564 538.06 122.18 538.897 122.601C539.734 123.023 540.645 123.24 541.567 123.236L544.104 112.266Z" fill="#ED847E"/>
<path d="M549.504 133.477C548.783 133.393 548.069 133.254 547.367 133.059C547.311 133.047 547.258 133.023 547.211 132.987C547.164 132.952 547.124 132.907 547.094 132.854C547.064 132.801 547.044 132.742 547.035 132.681C547.026 132.619 547.028 132.557 547.043 132.496C547.078 132.377 547.151 132.275 547.249 132.21C547.347 132.145 547.464 132.121 547.577 132.142C549.336 132.678 551.187 132.751 552.978 132.356C554.769 131.961 556.448 131.109 557.88 129.868C557.962 129.782 558.071 129.733 558.185 129.733C558.299 129.733 558.409 129.782 558.491 129.868C558.532 129.911 558.565 129.963 558.588 130.02C558.611 130.078 558.622 130.14 558.622 130.202C558.622 130.265 558.611 130.327 558.588 130.384C558.565 130.441 558.532 130.493 558.491 130.536C557.251 131.662 555.816 132.502 554.271 133.007C552.727 133.513 551.106 133.672 549.504 133.477Z" fill="#263238"/>
<path d="M544.6 79.6063C545.573 90.5972 563.165 99.0646 569.118 97.7299C566.676 105.342 567.306 131.579 577.704 126.928C588.503 118.022 590.106 102.673 583.428 89.5127C576.75 76.3528 564.615 73.3495 544.6 79.6063Z" fill="#263238"/>
<path d="M550.782 88.2822C540.422 92.933 534.602 92.933 534.602 92.933C534.602 92.933 534.068 80.4195 545.287 79.3976C556.506 78.3757 550.782 88.2822 550.782 88.2822Z" fill="#263238"/>
<path d="M571.198 145.823C571.074 145.816 570.958 145.756 570.874 145.656C570.828 145.609 570.792 145.553 570.767 145.49C570.742 145.427 570.729 145.36 570.729 145.291C570.729 145.223 570.742 145.155 570.767 145.092C570.792 145.03 570.828 144.973 570.874 144.926C580.07 134.874 584.23 127.261 582.474 123.507C582.314 123.151 582.09 122.834 581.814 122.576C581.539 122.318 581.218 122.124 580.871 122.006C577.399 120.775 570.339 124.675 566.123 127.011L565.856 127.157C565.801 127.192 565.741 127.214 565.678 127.222C565.616 127.229 565.552 127.221 565.493 127.2C565.433 127.178 565.378 127.142 565.332 127.095C565.286 127.049 565.25 126.991 565.226 126.928C565.196 126.869 565.177 126.805 565.171 126.738C565.164 126.671 565.17 126.604 565.188 126.539C565.206 126.475 565.235 126.416 565.274 126.364C565.314 126.313 565.362 126.27 565.417 126.239L565.684 126.094C570.32 123.528 577.323 119.628 581.158 121.026C581.633 121.188 582.073 121.457 582.447 121.817C582.822 122.176 583.124 122.617 583.333 123.111C585.775 128.471 578.277 138.378 571.541 145.719C571.443 145.801 571.32 145.838 571.198 145.823Z" fill="#C5E4F6"/>
<path d="M583.466 133.477C581.055 136.568 577.629 138.5 573.926 138.857C568.985 139.254 567.496 134.165 569.691 129.639C571.599 125.468 576.598 120.421 581.139 122.152C585.68 123.883 586.386 129.702 583.466 133.477Z" fill="#FFC3BD"/>
<path d="M563.909 110.139C563.728 110.122 563.556 110.042 563.419 109.91C563.281 109.779 563.186 109.604 563.146 109.409C562.268 105.238 557.556 102.965 557.422 102.944C557.212 102.847 557.046 102.663 556.96 102.432C556.874 102.202 556.876 101.943 556.964 101.713C557.053 101.484 557.221 101.302 557.432 101.208C557.643 101.114 557.88 101.116 558.09 101.213C558.319 101.213 563.68 103.799 564.749 108.992C564.777 109.113 564.782 109.238 564.765 109.361C564.747 109.484 564.706 109.602 564.646 109.707C564.585 109.813 564.505 109.903 564.412 109.974C564.318 110.045 564.212 110.094 564.1 110.118C564.038 110.135 563.974 110.142 563.909 110.139Z" fill="#263238"/>
<path d="M534.545 99.8988C534.36 99.9485 534.164 99.9293 533.99 99.8441C533.816 99.7589 533.672 99.6127 533.583 99.4284C533.493 99.2442 533.462 99.0325 533.495 98.8268C533.527 98.6212 533.622 98.4333 533.763 98.2929C534.736 97.237 535.926 96.4513 537.234 96.0013C538.542 95.5514 539.93 95.4504 541.281 95.7068C541.391 95.736 541.495 95.789 541.587 95.8628C541.679 95.9365 541.757 96.0294 541.815 96.1362C541.874 96.2429 541.912 96.3614 541.929 96.4846C541.945 96.6078 541.939 96.7333 541.91 96.8538C541.856 97.0937 541.717 97.3005 541.524 97.4294C541.331 97.5582 541.1 97.5987 540.88 97.5421C539.81 97.3553 538.716 97.4468 537.685 97.8092C536.654 98.1716 535.715 98.7946 534.946 99.6276C534.838 99.7571 534.699 99.851 534.545 99.8988Z" fill="#263238"/>
<path d="M555.228 111.766L552.061 109.68C552.061 109.68 553.072 113.142 555.228 111.766Z" fill="#263238"/>
<path d="M527.238 116.375C524.28 113.789 523.517 131.662 526.055 141.652C528.592 151.642 543.227 158.149 554.122 156.501C560.933 155.27 567.067 151.269 571.294 145.302C571.294 145.302 558.567 134.519 565.722 126.698C550.687 126.26 545.535 119.92 540.117 118.523C534.698 117.126 531.531 120.129 527.238 116.375Z" fill="white"/>
<path d="M550.706 157.273C540.384 157.273 527.982 151.141 525.597 141.777C523.326 132.872 523.593 117.584 526.055 115.812C526.282 115.652 526.552 115.58 526.822 115.607C527.091 115.633 527.345 115.757 527.543 115.958C528.495 116.785 529.603 117.373 530.787 117.679C531.971 117.986 533.202 118.003 534.392 117.73C536.302 117.49 538.235 117.589 540.116 118.022C541.984 118.607 543.783 119.425 545.478 120.463C551.654 124.154 558.569 126.117 565.607 126.177C565.703 126.178 565.795 126.211 565.874 126.27C565.952 126.33 566.012 126.414 566.046 126.511C566.08 126.606 566.087 126.711 566.067 126.811C566.046 126.911 565.999 127.003 565.932 127.074C565.246 127.778 564.71 128.638 564.361 129.592C564.011 130.547 563.857 131.574 563.909 132.601C564.253 138.711 571.389 144.822 571.541 144.885C571.637 144.967 571.7 145.086 571.718 145.218C571.736 145.35 571.707 145.485 571.637 145.594C567.339 151.647 561.125 155.724 554.217 157.023C553.053 157.194 551.88 157.277 550.706 157.273ZM526.608 116.646C526.57 116.634 526.531 116.634 526.493 116.646C524.757 117.897 524.089 132.267 526.493 141.464C529.031 151.412 543.665 157.523 554.045 155.938C560.54 154.729 566.405 150.96 570.53 145.343C568.985 143.946 563.318 138.44 562.898 132.621C562.77 130.633 563.351 128.667 564.52 127.136C557.688 126.915 551.001 124.936 545.001 121.359C543.364 120.364 541.629 119.574 539.83 119.003C538.038 118.578 536.193 118.487 534.373 118.732C533.057 118.988 531.705 118.935 530.409 118.575C529.113 118.215 527.901 117.558 526.856 116.646C526.775 116.619 526.689 116.619 526.608 116.646Z" fill="#C5E4F6"/>
<path opacity="0.1" d="M560.952 138.857C550.859 138.857 534.793 134.207 527.905 129.264C527.8 129.191 527.726 129.076 527.697 128.943C527.668 128.811 527.689 128.671 527.753 128.555C527.823 128.438 527.932 128.356 528.056 128.325C528.18 128.294 528.311 128.316 528.421 128.388C535.06 133.143 551.183 137.815 560.952 137.815C561.078 137.815 561.2 137.87 561.289 137.967C561.379 138.065 561.429 138.198 561.429 138.336C561.429 138.474 561.379 138.607 561.289 138.705C561.2 138.802 561.078 138.857 560.952 138.857Z" fill="#C5E4F6"/>
<path opacity="0.1" d="M554.522 146.386C545.135 146.386 533.534 143.967 529.222 140.985C529.168 140.95 529.121 140.905 529.084 140.85C529.046 140.795 529.02 140.733 529.006 140.666C528.991 140.6 528.99 140.531 529.001 140.464C529.011 140.396 529.035 140.332 529.069 140.276C529.101 140.217 529.142 140.165 529.193 140.124C529.243 140.084 529.3 140.055 529.361 140.039C529.421 140.023 529.484 140.022 529.546 140.034C529.607 140.046 529.666 140.071 529.718 140.109C535.442 143.988 554.751 146.991 563.299 144.28C563.358 144.261 563.419 144.255 563.48 144.263C563.541 144.271 563.6 144.292 563.654 144.325C563.707 144.358 563.754 144.402 563.791 144.455C563.829 144.509 563.856 144.569 563.871 144.634C563.891 144.7 563.899 144.77 563.894 144.839C563.888 144.908 563.869 144.975 563.839 145.036C563.808 145.096 563.767 145.15 563.716 145.192C563.666 145.234 563.608 145.264 563.547 145.281C560.597 146.084 557.562 146.456 554.522 146.386Z" fill="#C5E4F6"/>
<path d="M613.746 280.947C610.181 285.436 606.358 289.672 602.298 293.627L591.48 296.151C586.453 297.32 582.032 300.562 579.135 305.202C578.359 306.451 578.023 307.964 578.188 309.463C578.353 310.962 579.008 312.345 580.032 313.357L585.374 318.654C586.398 319.669 587.723 320.245 589.104 320.276C590.486 320.307 591.831 319.79 592.892 318.821L598.406 313.816C598.406 313.816 610.197 312.877 609.854 304.285C609.854 304.285 614.376 301.49 619.394 298.028C619.871 294.065 617.314 285.723 613.746 280.947Z" fill="#C5E4F6"/>
<path opacity="0.6" d="M613.746 280.947C610.181 285.436 606.358 289.672 602.298 293.627L591.48 296.151C586.453 297.32 582.032 300.562 579.135 305.202C578.359 306.451 578.023 307.964 578.188 309.463C578.353 310.962 579.008 312.345 580.032 313.357L585.374 318.654C586.398 319.669 587.723 320.245 589.104 320.276C590.486 320.307 591.831 319.79 592.892 318.821L598.406 313.816C598.406 313.816 610.197 312.877 609.854 304.285C609.854 304.285 614.376 301.49 619.394 298.028C619.871 294.065 617.314 285.723 613.746 280.947Z" fill="white"/>
<path d="M319.528 483.294L318.009 484.212L328.195 504.342L329.715 503.423L319.528 483.294Z" fill="#3FA6E1"/>
<path d="M436.499 512.663L417.156 521.725L417.84 523.469L437.183 514.407L436.499 512.663Z" fill="#3FA6E1"/>
<path d="M327.935 453.109L326.278 453.677L341.627 507.211L343.283 506.644L327.935 453.109Z" fill="#3FA6E1"/>
</svg>
