<svg width="907" height="777" viewBox="0 0 907 777" fill="none" xmlns="http://www.w3.org/2000/svg">
<path d="M477 777C681.314 777 846.942 766.43 846.942 753.391C846.942 740.353 681.314 729.783 477 729.783C272.687 729.783 107.058 740.353 107.058 753.391C107.058 766.43 272.687 777 477 777Z" fill="#F5F5F5"/>
<path d="M650.075 607.36C683.458 607.36 710.52 577.779 710.52 541.289C710.52 504.799 683.458 475.218 650.075 475.218C616.692 475.218 589.629 504.799 589.629 541.289C589.629 577.779 616.692 607.36 650.075 607.36Z" fill="white"/>
<path d="M650.075 608.173C637.972 608.177 626.14 604.258 616.075 596.911C606.009 589.564 598.164 579.12 593.53 566.899C588.895 554.678 587.681 541.229 590.04 528.253C592.399 515.278 598.225 503.358 606.782 494.002C615.338 484.646 626.241 478.274 638.111 475.691C649.981 473.109 662.286 474.432 673.468 479.494C684.65 484.556 694.207 493.128 700.932 504.128C707.656 515.127 711.245 528.06 711.245 541.289C711.23 559.019 704.781 576.019 693.313 588.558C681.845 601.097 666.295 608.151 650.075 608.173ZM650.075 476.052C638.266 476.052 626.723 479.88 616.905 487.052C607.086 494.223 599.434 504.416 594.916 516.342C590.398 528.267 589.217 541.389 591.522 554.049C593.827 566.708 599.515 578.336 607.866 587.461C616.218 596.587 626.857 602.8 638.439 605.316C650.022 607.831 662.026 606.536 672.935 601.594C683.843 596.651 693.166 588.284 699.724 577.55C706.282 566.815 709.78 554.197 709.776 541.289C709.761 523.989 703.466 507.402 692.272 495.171C681.079 482.939 665.902 476.063 650.075 476.052Z" fill="#4A75B9"/>
<path d="M659.805 503.832H640.344V578.746H659.805V503.832Z" fill="#4A75B9"/>
<path d="M684.343 551.946V530.674H615.807V551.946H684.343Z" fill="#4A75B9"/>
<path d="M240.618 41.8573L239.32 40.3348C248.153 31.2084 259.36 25.3055 271.394 23.4417L271.661 25.5272C260.015 27.3225 249.167 33.0289 240.618 41.8573Z" fill="#4A75B9"/>
<path d="M226.499 64.6525L224.724 63.9017C226.65 58.5887 229.217 53.5808 232.356 49.0107L233.883 50.2621C230.855 54.6848 228.373 59.523 226.499 64.6525Z" fill="#4A75B9"/>
<path d="M279.732 144.551C308.647 144.551 332.088 118.929 332.088 87.3226C332.088 55.7164 308.647 30.0946 279.732 30.0946C250.817 30.0946 227.376 55.7164 227.376 87.3226C227.376 118.929 250.817 144.551 279.732 144.551Z" fill="#4A75B9"/>
<path d="M311.004 61.5449C308.988 59.2568 306.574 57.4311 303.905 56.1745C301.235 54.9179 298.363 54.2557 295.457 54.2266C292.55 54.1974 289.668 54.802 286.978 56.0049C284.287 57.2077 281.844 58.9848 279.789 61.2321C277.736 58.9854 275.294 57.2088 272.606 56.0062C269.917 54.8036 267.036 54.1991 264.131 54.2283C261.226 54.2574 258.356 54.9195 255.688 56.1758C253.02 57.4321 250.608 59.2574 248.593 61.5449C244.645 66.2134 242.518 72.381 242.664 78.7368C242.81 85.0926 245.218 91.1356 249.376 95.5814L274.18 122.694C274.924 123.507 275.807 124.153 276.78 124.593C277.752 125.033 278.794 125.26 279.846 125.26C280.899 125.26 281.941 125.033 282.913 124.593C283.886 124.153 284.769 123.507 285.513 122.694L310.317 95.5814C314.462 91.1218 316.852 85.0712 316.981 78.7156C317.109 72.3599 314.965 66.2001 311.004 61.5449Z" fill="white"/>
<path d="M279.732 112.329C279.347 112.314 278.975 112.173 278.666 111.924C278.356 111.674 278.122 111.328 277.995 110.931L266.948 75.6225L262.331 90.3884C262.199 90.7987 261.954 91.154 261.629 91.4045C261.304 91.655 260.916 91.7883 260.518 91.7857H242.03C241.524 91.7857 241.038 91.566 240.68 91.1749C240.323 90.7837 240.122 90.2533 240.122 89.7001C240.122 89.147 240.323 88.6165 240.68 88.2254C241.038 87.8343 241.524 87.6146 242.03 87.6146H259.202L265.193 68.4899C265.322 68.0801 265.566 67.7247 265.889 67.4732C266.212 67.2216 266.599 67.0864 266.996 67.0864C267.392 67.0864 267.779 67.2216 268.103 67.4732C268.426 67.7247 268.669 68.0801 268.799 68.4899L280.037 104.424L290.951 76.3316C291.089 75.9736 291.315 75.6647 291.605 75.4399C291.895 75.2152 292.237 75.0834 292.592 75.0594C292.949 75.037 293.305 75.1248 293.618 75.3129C293.932 75.501 294.191 75.7817 294.366 76.1231L300.128 87.5937H317.51C318.016 87.5937 318.501 87.8134 318.859 88.2046C319.217 88.5957 319.418 89.1262 319.418 89.6793C319.418 90.2324 319.217 90.7629 318.859 91.154C318.501 91.5451 318.016 91.7649 317.51 91.7649H299.022C298.68 91.7679 298.344 91.6709 298.049 91.4838C297.754 91.2967 297.51 91.0265 297.343 90.7012L292.821 81.8584L281.487 111.056C281.341 111.433 281.097 111.755 280.784 111.981C280.472 112.207 280.106 112.328 279.732 112.329Z" fill="#4A75B9"/>
<path d="M570.225 680.313H371.087C367.842 680.352 364.625 679.653 361.641 678.26C358.657 676.867 355.97 674.811 353.752 672.222C351.534 669.633 349.833 666.567 348.758 663.221C347.682 659.874 347.255 656.32 347.504 652.783L379.692 131.391C380.254 123.945 383.329 116.993 388.318 111.886C393.308 106.779 399.856 103.882 406.69 103.757H605.866C609.12 103.716 612.345 104.418 615.337 105.817C618.328 107.217 621.019 109.283 623.239 111.883C625.458 114.484 627.157 117.562 628.226 120.921C629.296 124.28 629.712 127.846 629.449 131.391L597.204 652.783C596.624 660.209 593.543 667.135 588.559 672.221C583.575 677.307 577.042 680.19 570.225 680.313Z" fill="#263238"/>
<path d="M614.376 316.089H609.358C608.449 316.101 607.548 315.906 606.713 315.515C605.878 315.125 605.126 314.548 604.506 313.821C603.887 313.095 603.412 312.235 603.114 311.297C602.816 310.358 602.701 309.362 602.775 308.372L608.938 208.703C609.082 206.619 609.936 204.669 611.331 203.24C612.727 201.811 614.563 201.007 616.475 200.986H621.493C622.401 200.974 623.302 201.17 624.138 201.56C624.973 201.951 625.725 202.528 626.345 203.254C626.964 203.981 627.438 204.841 627.736 205.779C628.034 206.717 628.15 207.713 628.075 208.703L621.913 308.372C621.769 310.457 620.915 312.407 619.52 313.836C618.124 315.265 616.288 316.069 614.376 316.089Z" fill="#263238"/>
<path d="M376.792 249.601H371.793C371.054 249.612 370.32 249.454 369.639 249.139C368.958 248.824 368.344 248.357 367.836 247.769C367.329 247.181 366.938 246.484 366.69 245.722C366.442 244.96 366.341 244.151 366.394 243.344L368.626 207.347C368.767 205.657 369.474 204.084 370.611 202.929C371.749 201.774 373.237 201.12 374.789 201.091H379.807C380.544 201.086 381.274 201.247 381.952 201.565C382.629 201.883 383.24 202.35 383.745 202.937C384.25 203.524 384.638 204.219 384.887 204.978C385.135 205.737 385.237 206.543 385.187 207.347L382.955 243.344C382.818 245.036 382.112 246.612 380.974 247.768C379.836 248.923 378.346 249.577 376.792 249.601Z" fill="#4A75B9"/>
<path d="M372.823 313.878H367.805C367.067 313.886 366.336 313.727 365.657 313.41C364.978 313.093 364.366 312.626 363.861 312.038C363.355 311.451 362.967 310.755 362.72 309.994C362.472 309.234 362.372 308.426 362.425 307.621L364.657 271.625C364.798 269.935 365.505 268.361 366.643 267.206C367.78 266.052 369.268 265.397 370.82 265.368H375.876C376.613 265.363 377.344 265.525 378.021 265.842C378.699 266.16 379.309 266.627 379.814 267.214C380.319 267.801 380.708 268.496 380.956 269.255C381.204 270.014 381.307 270.82 381.257 271.625L379.024 307.621C378.887 309.32 378.176 310.902 377.029 312.059C375.883 313.215 374.383 313.864 372.823 313.878Z" fill="#4A75B9"/>
<path d="M566.008 680.313H366.87C363.625 680.352 360.408 679.653 357.424 678.26C354.44 676.867 351.753 674.811 349.535 672.222C347.317 669.633 345.616 666.567 344.541 663.221C343.465 659.874 343.038 656.32 343.287 652.783L375.494 131.391C376.076 123.942 379.172 116.996 384.18 111.904C389.188 106.812 395.749 103.938 402.588 103.841H601.65C604.896 103.801 608.115 104.5 611.1 105.895C614.086 107.289 616.774 109.347 618.992 111.939C621.21 114.53 622.911 117.598 623.985 120.947C625.059 124.296 625.484 127.853 625.232 131.391L593.006 652.783C592.426 660.213 589.343 667.142 584.355 672.228C579.367 677.314 572.829 680.195 566.008 680.313Z" fill="#4A75B9"/>
<path opacity="0.3" d="M345.386 646.944L376.83 138.148H623.077L591.633 646.944H345.386Z" fill="white"/>
<path opacity="0.1" d="M442.599 646.944L530.481 138.148H585.641L497.759 646.944H442.599Z" fill="white"/>
<path opacity="0.1" d="M400.928 646.944L488.811 138.148H516.763L428.88 646.944H400.928Z" fill="white"/>
<path d="M477.267 116.625H525.292C525.692 116.618 526.09 116.702 526.459 116.874C526.828 117.045 527.16 117.299 527.434 117.619C527.707 117.94 527.916 118.32 528.046 118.734C528.177 119.148 528.226 119.588 528.192 120.025C528.125 120.943 527.749 121.803 527.135 122.435C526.522 123.067 525.715 123.427 524.872 123.445H476.847C476.446 123.449 476.047 123.362 475.678 123.188C475.309 123.015 474.978 122.759 474.705 122.437C474.431 122.114 474.223 121.733 474.093 121.318C473.962 120.903 473.913 120.462 473.947 120.025C474.014 119.108 474.391 118.251 475.005 117.622C475.619 116.993 476.426 116.638 477.267 116.625Z" fill="white"/>
<path d="M467.269 730.471L450.441 732.223L444.373 689.782L461.202 688.009L467.269 730.471Z" fill="#FFC3BD"/>
<path d="M448.513 723.234L466.143 717.249C466.447 717.133 466.78 717.151 467.072 717.299C467.364 717.447 467.592 717.713 467.708 718.041L473.432 733.328C473.574 733.738 473.637 734.175 473.617 734.613C473.597 735.051 473.494 735.479 473.315 735.871C473.135 736.263 472.884 736.61 472.575 736.89C472.267 737.171 471.909 737.378 471.524 737.499C465.151 739.585 459.084 740.065 451.394 743.756C442.408 747.927 438.649 753.517 428.975 753.517C422.049 753.517 420.485 746.572 423.423 745.612C436.779 741.191 435.024 737.562 444.716 726.154C445.724 724.832 447.034 723.824 448.513 723.234Z" fill="#263238"/>
<path opacity="0.2" d="M444.373 689.782L447.502 711.68L464.35 709.907L461.221 688.009L444.373 689.782Z" fill="black"/>
<path d="M456.546 153.498C434.471 150.661 412.51 152.559 390.472 157.231C386.8 158.01 383.45 160.047 380.908 163.047C378.366 166.047 376.764 169.854 376.334 173.916C373.949 196.982 371.221 248.683 381.867 325.808L472.077 317.465C472.249 303.471 463.148 239.715 470.665 173.561C470.973 171.226 470.85 168.847 470.302 166.564C469.755 164.282 468.795 162.143 467.479 160.273C466.163 158.403 464.518 156.84 462.64 155.676C460.762 154.512 458.69 153.772 456.546 153.498Z" fill="white"/>
<path d="M404.019 173.269L407.244 180.318C407.394 180.674 407.633 180.976 407.934 181.19C408.234 181.404 408.583 181.521 408.942 181.528L412.433 181.737C413.056 181.766 413.67 181.56 414.17 181.153L420.18 176.251L412.758 170.349L404.019 173.269Z" fill="#263238"/>
<path d="M412.548 179.714C411.275 179.069 409.834 178.943 408.484 179.359C405.641 190.308 402.531 221.738 402.207 235.669C410.831 263.136 413.655 265.91 413.655 265.91L418.024 232.854C418.024 232.854 413.12 199.047 412.548 179.714Z" fill="#263238"/>
<path d="M437.447 105.947C435.387 119.545 433.631 144.384 442.561 153.164C436.016 160.672 427.449 169.369 412.758 170.349C398.066 171.329 400.337 160.213 404.057 154.269C417.776 150.265 417.108 139.086 414.418 128.638L437.447 105.947Z" fill="#FFC3BD"/>
<path d="M446.3 151.976C445.26 151.485 444.181 151.101 443.076 150.829C442.806 150.75 442.519 150.771 442.261 150.888C442.002 151.005 441.786 151.211 441.645 151.475C440.233 154.103 435.921 165.845 412.758 170.349C416.574 172.81 421.63 180.444 423.805 184.114C430.75 180.173 448.819 168.389 447.102 153.144C447.067 152.892 446.975 152.653 446.835 152.449C446.696 152.246 446.512 152.083 446.3 151.976Z" fill="#F5F5F5"/>
<path d="M404.19 154.895C404.239 154.658 404.233 154.411 404.172 154.177C404.112 153.943 403.999 153.729 403.843 153.555C403.688 153.381 403.495 153.252 403.282 153.18C403.07 153.108 402.844 153.096 402.626 153.143C401.824 153.313 401.033 153.543 400.26 153.832C400.081 153.908 399.914 154.013 399.764 154.144C397.989 155.938 388.316 171.204 397.379 183.551C399.287 180.193 405.87 172.581 412.757 170.349C406.232 167.137 403.027 161.152 404.19 154.895Z" fill="#F5F5F5"/>
<path opacity="0.2" d="M428.06 115.207L414.437 128.638C415.093 131.064 415.553 133.548 415.81 136.063C421.076 135.082 428.155 128.555 428.537 122.506C428.795 120.062 428.633 117.586 428.06 115.207Z" fill="black"/>
<path d="M409.858 64.8403C398.104 69.8665 397.341 80.4195 398.41 91.9527C399.478 103.486 410.964 95.8527 413.521 88.6366C416.078 81.4206 426.133 57.8745 409.858 64.8403Z" fill="#263238"/>
<path d="M447.35 87.8441C444.087 106.009 442.999 116.792 433.498 125.155C419.169 137.668 399.764 126.865 398.047 108.137C396.502 91.2645 402.092 64.3398 419.207 59.0841C422.939 57.8829 426.894 57.767 430.68 58.7479C434.466 59.7287 437.952 61.7724 440.794 64.6768C443.636 67.5813 445.736 71.2462 446.886 75.3092C448.035 79.3722 448.195 83.6928 447.35 87.8441Z" fill="#FFC3BD"/>
<path d="M446.663 102.881C432.677 103.694 435.635 95.0185 438.172 90.034C440.71 85.0495 435.539 76.8115 438.916 72.5361C432.887 75.1639 426.533 72.9949 418.463 66.8633C412.204 62.0874 404.362 81.1703 396.73 71.5976C389.518 62.5671 396.215 48.9483 413.54 46.7584C430.865 44.5686 434.013 57.9579 445.384 56.7692C456.756 55.5804 452.807 65.8205 450.574 67.9061C460.114 68.5943 465.323 78.5634 446.663 102.881Z" fill="#263238"/>
<path d="M448.38 69.1783C450.568 67.8664 452.396 65.9393 453.674 63.5962C454.952 61.2532 455.634 58.5794 455.649 55.8515C459.427 63.0884 459.027 71.3056 448.38 69.1783Z" fill="#263238"/>
<path d="M412.128 107.24C413.648 107.527 415.206 107.476 416.708 107.089C418.21 106.702 419.624 105.987 420.867 104.987C420.904 104.948 420.934 104.902 420.955 104.85C420.975 104.798 420.986 104.742 420.986 104.685C420.986 104.628 420.975 104.572 420.955 104.521C420.934 104.469 420.904 104.422 420.867 104.383C420.792 104.305 420.693 104.261 420.59 104.261C420.487 104.261 420.388 104.305 420.313 104.383C418.922 105.461 417.32 106.171 415.635 106.457C413.95 106.743 412.227 106.597 410.602 106.03C410.498 106.002 410.389 106.016 410.294 106.07C410.199 106.124 410.125 106.213 410.087 106.322C410.057 106.433 410.068 106.552 410.118 106.653C410.168 106.755 410.253 106.831 410.354 106.864C410.934 107.047 411.528 107.173 412.128 107.24Z" fill="#263238"/>
<path d="M450.727 108.45C448.115 112.13 444.284 114.541 440.061 115.165C434.509 115.958 432.658 110.306 434.986 105.029C437.104 100.274 442.618 94.1426 447.732 95.7902C452.845 97.4378 453.932 103.861 450.727 108.45Z" fill="#FFC3BD"/>
<path d="M445.213 503.394C445.88 448.94 452.253 319.238 452.253 319.238L381.924 325.724C381.924 325.724 395.91 459.388 404.343 514.948C413.12 572.697 440.042 707.988 440.042 707.988L468.662 705.319C468.662 705.319 458.206 545.501 445.213 503.394Z" fill="#263238"/>
<path d="M438.325 708.843L472.268 705.694L470.932 693.723L435.558 696.309L438.325 708.843Z" fill="#4A75B9"/>
<path d="M422.278 88.9285C422.107 90.4093 421.229 91.5355 420.37 91.4312C419.512 91.3269 418.92 90.0339 419.111 88.5323C419.302 87.0306 420.16 85.9253 421.019 86.0296C421.878 86.1339 422.469 87.4478 422.278 88.9285Z" fill="#263238"/>
<path d="M406.71 87.5937C406.538 89.0953 405.66 90.2007 404.802 90.0964C403.943 89.9921 403.351 88.6991 403.542 87.2183C403.733 85.7376 404.592 84.6114 405.45 84.7156C406.309 84.8199 406.9 86.0296 406.71 87.5937Z" fill="#263238"/>
<path d="M411.098 89.3459C408.8 93.2053 406.041 96.7122 402.894 99.7737C404.916 102.089 409.095 101.463 409.095 101.463L411.098 89.3459Z" fill="#ED893E"/>
<path opacity="0.4" d="M396.864 87.9693C396.578 90.3468 398.772 92.3281 401.806 92.7452C404.839 93.1623 407.644 91.3479 407.911 88.9703" fill="#4A75B9"/>
<path opacity="0.4" d="M414.895 90.18C414.475 92.5367 416.593 94.664 419.569 95.2897C422.546 95.9153 425.465 94.2469 425.866 91.911" fill="#4A75B9"/>
<path d="M420.752 95.9362C420.409 95.957 420.065 95.957 419.722 95.9362C418.255 95.7445 416.877 95.0678 415.772 93.9966C415.29 93.5461 414.914 92.9758 414.675 92.3336C414.435 91.6913 414.341 90.9957 414.398 90.3052C413.43 89.8443 412.398 89.5624 411.346 89.471C410.287 89.1822 409.18 89.1822 408.121 89.471C407.854 92.0154 404.954 93.7672 401.71 93.3293C400.243 93.154 398.863 92.4834 397.761 91.4105C397.281 90.9578 396.906 90.3872 396.667 89.7455C396.429 89.1038 396.332 88.4093 396.387 87.7191L397.303 87.8442C397.264 88.3775 397.343 88.9131 397.532 89.4065C397.721 89.8999 398.015 90.3367 398.39 90.6806C399.351 91.6053 400.551 92.181 401.825 92.3282C404.572 92.7244 407.014 91.3271 407.262 89.2415C407.396 88.0736 409.609 88.157 411.441 88.4073C413.273 88.6576 415.448 89.2207 415.257 90.3678C415.217 90.9012 415.295 91.4374 415.484 91.9311C415.673 92.4247 415.968 92.8614 416.345 93.2041C417.317 94.1165 418.513 94.6975 419.785 94.8754C421.056 95.0533 422.348 94.8203 423.5 94.2052C423.944 93.9791 424.332 93.6393 424.631 93.2145C424.93 92.7898 425.131 92.2926 425.217 91.7651V91.2645L448.761 94.5806L448.647 95.5817L425.98 92.3908C425.815 92.9713 425.544 93.5091 425.183 93.9716C424.823 94.4341 424.38 94.8116 423.881 95.0811C422.917 95.639 421.843 95.9324 420.752 95.9362Z" fill="#263238"/>
<path d="M428.27 82.3799C428.406 82.3803 428.538 82.3368 428.651 82.2548C428.837 82.1369 428.973 81.9442 429.03 81.7181C429.087 81.4919 429.061 81.2504 428.957 81.0452C428.365 79.8322 427.509 78.7976 426.464 78.0336C425.419 77.2695 424.217 76.7995 422.966 76.6655C422.751 76.654 422.541 76.7349 422.38 76.8909C422.22 77.0469 422.122 77.2655 422.107 77.4997C422.096 77.7287 422.169 77.953 422.308 78.1246C422.447 78.2962 422.642 78.4013 422.851 78.4173C423.841 78.5444 424.788 78.9338 425.609 79.5516C426.431 80.1695 427.102 80.9972 427.564 81.9628C427.636 82.0956 427.74 82.2044 427.864 82.2779C427.988 82.3513 428.129 82.3866 428.27 82.3799Z" fill="#263238"/>
<path d="M401.672 80.0233C401.804 80.0374 401.937 80.0164 402.06 79.9619C402.183 79.9074 402.292 79.8211 402.378 79.7105C402.995 78.8273 403.793 78.1145 404.707 77.6292C405.622 77.1439 406.628 76.8995 407.644 76.9158C407.75 76.9273 407.856 76.9159 407.957 76.8822C408.058 76.8485 408.153 76.7932 408.234 76.7195C408.316 76.6458 408.383 76.5552 408.433 76.4529C408.482 76.3505 408.512 76.2385 408.522 76.1233C408.535 76.0109 408.528 75.8967 408.501 75.7873C408.473 75.678 408.426 75.5757 408.362 75.4865C408.298 75.3972 408.219 75.3227 408.128 75.2673C408.038 75.212 407.938 75.1768 407.835 75.1639C406.553 75.1273 405.282 75.4195 404.122 76.0171C402.962 76.6147 401.947 77.5011 401.157 78.6051C401.021 78.7824 400.955 79.0113 400.973 79.2419C400.99 79.4724 401.091 79.6858 401.252 79.8356C401.377 79.9334 401.521 79.9977 401.672 80.0233Z" fill="#263238"/>
<path d="M503.808 494.614C489.211 412.609 485.93 348.478 472.078 317.34L403.943 325.683C403.943 325.683 444.526 447.876 464.35 500.036C484.937 554.261 525.578 646.902 525.578 646.902H559.617C559.617 646.902 527.848 531.966 503.808 494.614Z" fill="#263238"/>
<path d="M287.841 184.177L280.476 179.088C279.281 178.246 277.855 177.884 276.442 178.062C275.03 178.241 273.717 178.95 272.73 180.068L267.731 185.824C267.192 186.445 266.776 187.181 266.508 187.985C266.24 188.789 266.126 189.644 266.172 190.499C266.219 191.353 266.425 192.188 266.778 192.951C267.132 193.715 267.625 194.391 268.227 194.938L271.795 198.275C274.898 201.15 278.519 203.281 282.422 204.532L293.202 208.015L300.281 199.672C302.437 190.976 287.841 184.177 287.841 184.177Z" fill="#FFC3BD"/>
<path d="M396.864 180.277C394.193 187.409 391.579 194.041 388.736 200.82C385.893 207.598 383.012 214.292 379.826 220.945C376.639 227.598 373.243 234.21 369.389 240.842C367.481 244.137 365.363 247.432 362.959 250.748C360.374 254.404 357.431 257.74 354.182 260.696C352.037 262.613 349.67 264.212 347.142 265.451C346.34 265.785 345.596 266.119 344.718 266.411L343.383 266.807C342.711 266.987 342.029 267.12 341.341 267.203C339.015 267.49 336.661 267.306 334.396 266.661C331.564 265.795 328.874 264.451 326.421 262.678C324.584 261.425 322.83 260.031 321.174 258.506C315.667 253.251 310.592 247.48 306.005 241.259C301.559 235.419 297.362 229.559 293.336 223.573C289.31 217.588 285.437 211.706 281.468 205.429L302.571 190.538C309.23 202.288 316.599 213.54 324.627 224.22C328.318 229.166 332.384 233.764 336.781 237.964C337.633 238.725 338.532 239.422 339.471 240.049C340.177 240.571 340.883 240.779 340.387 240.591C339.716 240.39 339.014 240.347 338.327 240.466C338.049 240.494 337.774 240.55 337.506 240.633H337.354C337.258 240.633 337.258 240.633 337.239 240.633C337.673 240.323 338.087 239.982 338.479 239.611C340.221 237.883 341.8 235.969 343.192 233.897C344.814 231.519 346.436 228.85 347.981 226.076C351.14 220.309 354.019 214.363 356.605 208.265C359.276 202.008 361.852 195.752 364.237 189.245C366.622 182.738 368.893 176.126 370.82 169.807L396.864 180.277Z" fill="#4A75B9"/>
<g opacity="0.6">
<path opacity="0.6" d="M396.864 180.277C394.193 187.409 391.579 194.041 388.736 200.82C385.893 207.598 383.012 214.292 379.826 220.945C376.639 227.598 373.243 234.21 369.389 240.842C367.481 244.137 365.363 247.432 362.959 250.748C360.374 254.404 357.431 257.74 354.182 260.696C352.037 262.613 349.67 264.212 347.142 265.451C346.34 265.785 345.596 266.119 344.718 266.411L343.383 266.807C342.711 266.987 342.029 267.12 341.341 267.203C339.015 267.49 336.661 267.306 334.396 266.661C331.564 265.795 328.874 264.451 326.421 262.678C324.584 261.425 322.83 260.031 321.174 258.506C315.667 253.251 310.592 247.48 306.005 241.259C301.559 235.419 297.362 229.559 293.336 223.573C289.31 217.588 285.437 211.706 281.468 205.429L302.571 190.538C309.23 202.288 316.599 213.54 324.627 224.22C328.318 229.166 332.384 233.764 336.781 237.964C337.633 238.725 338.532 239.422 339.471 240.049C340.177 240.571 340.883 240.779 340.387 240.591C339.716 240.39 339.014 240.347 338.327 240.466C338.049 240.494 337.774 240.55 337.506 240.633H337.354C337.258 240.633 337.258 240.633 337.239 240.633C337.673 240.323 338.087 239.982 338.479 239.611C340.221 237.883 341.8 235.969 343.192 233.897C344.814 231.519 346.436 228.85 347.981 226.076C351.14 220.309 354.019 214.363 356.605 208.265C359.276 202.008 361.852 195.752 364.237 189.245C366.622 182.738 368.893 176.126 370.82 169.807L396.864 180.277Z" fill="white"/>
</g>
<path d="M446.816 148.263C439.661 162.862 414.189 218.484 411.098 252.813C399.822 221.529 402.283 152.33 402.283 152.33C394.246 153.186 386.363 155.293 378.872 158.587C376.457 159.671 374.365 161.465 372.826 163.769C371.287 166.074 370.361 168.799 370.152 171.643C367.956 207.448 368.991 243.403 373.243 278.987C381.161 346.351 388.507 451.109 388.507 451.109C388.507 451.109 451.567 448.231 500.221 437.01C494.287 385.518 473.986 299.217 473.795 276.109C473.566 246.369 474.195 188.223 475.054 163.947C475.198 160.519 474.215 157.149 472.284 154.444C470.352 151.74 467.599 149.88 464.522 149.202C458.685 148.02 452.729 147.704 446.816 148.263Z" fill="#4A75B9"/>
<path opacity="0.7" d="M446.816 148.263C439.661 162.862 414.189 218.484 411.098 252.813C399.822 221.529 402.283 152.33 402.283 152.33C394.246 153.186 386.363 155.293 378.872 158.587C376.457 159.671 374.365 161.465 372.826 163.769C371.287 166.073 370.361 168.799 370.152 171.642C367.956 207.448 368.991 243.403 373.243 278.987C381.161 346.351 388.507 451.109 388.507 451.109C388.507 451.109 451.567 448.231 500.221 437.01C494.287 385.518 473.986 299.217 473.795 276.109C473.566 246.368 474.195 188.202 475.054 163.926C475.234 160.603 474.336 157.316 472.518 154.646C470.699 151.975 468.077 150.092 465.113 149.327C459.09 148.036 452.93 147.678 446.816 148.263Z" fill="white"/>
<path d="M431.952 439.93C421 373.88 412.319 276.964 411.613 265.305H412.586C413.292 276.964 421.992 373.755 432.925 439.805L431.952 439.93Z" fill="white"/>
<path d="M426.496 322.429H368.34C367.165 322.371 366.04 321.899 365.132 321.083C364.224 320.267 363.582 319.152 363.303 317.904L343.86 219.11C343.718 218.571 343.695 218.002 343.792 217.451C343.89 216.9 344.106 216.382 344.423 215.941C344.74 215.499 345.148 215.145 345.614 214.91C346.08 214.674 346.591 214.562 347.104 214.584H405.24C406.418 214.638 407.548 215.108 408.46 215.924C409.372 216.741 410.016 217.859 410.297 219.11L429.739 317.904C429.881 318.443 429.905 319.011 429.807 319.562C429.709 320.113 429.493 320.631 429.176 321.073C428.859 321.515 428.451 321.868 427.985 322.104C427.519 322.34 427.009 322.451 426.496 322.429Z" fill="white"/>
<path d="M424.683 323.263H365.535C364.339 323.202 363.193 322.721 362.268 321.89C361.343 321.06 360.689 319.924 360.402 318.654L340.616 218.192C340.475 217.642 340.454 217.062 340.556 216.501C340.658 215.94 340.88 215.414 341.204 214.965C341.527 214.515 341.944 214.156 342.418 213.916C342.893 213.676 343.413 213.562 343.936 213.583H403.084C404.28 213.644 405.426 214.125 406.351 214.956C407.275 215.787 407.93 216.922 408.217 218.192L427.984 318.654C428.129 319.203 428.153 319.782 428.054 320.343C427.954 320.904 427.735 321.432 427.412 321.882C427.09 322.332 426.674 322.692 426.2 322.932C425.725 323.172 425.205 323.286 424.683 323.263Z" fill="#4A75B9"/>
<path d="M431.456 266.578L416.745 265.973C414.977 265.906 413.215 266.247 411.575 266.974L403.943 270.311C403.227 270.621 402.575 271.086 402.027 271.677C401.48 272.269 401.047 272.975 400.755 273.754C400.462 274.533 400.317 275.369 400.327 276.21C400.337 277.052 400.503 277.883 400.814 278.653L403.866 285.869C404.482 287.269 405.521 288.394 406.806 289.055C408.092 289.715 409.547 289.872 410.926 289.498L419.34 287.204C419.34 287.204 435.139 285.827 435.711 276.776L431.456 266.578Z" fill="#FFC3BD"/>
<path d="M472.078 157.21C475.722 163.467 479.061 169.181 482.343 175.313C485.624 181.444 488.849 187.513 491.883 193.854C494.916 200.194 497.797 206.742 500.411 213.75C501.769 217.42 502.928 221.173 503.884 224.991C505.114 229.644 505.68 234.477 505.563 239.319V240.132C505.57 240.271 505.57 240.411 505.563 240.55C505.563 241.3 505.372 242.051 505.239 242.802C505.105 243.553 504.933 244.137 504.743 244.888C504.552 245.638 504.342 246.035 504.132 246.619C503.403 248.423 502.467 250.119 501.346 251.666C499.787 253.795 498.015 255.726 496.061 257.422C493.06 260.006 489.869 262.315 486.521 264.325C480.631 267.845 474.567 271.006 468.357 273.794C462.347 276.588 456.356 279.133 450.326 281.531C444.297 283.929 438.363 286.244 432.086 288.539L424.816 262.26C430.54 260.55 436.379 258.444 442.084 256.316C447.789 254.189 453.532 251.812 458.951 249.33C464.268 246.928 469.454 244.192 474.482 241.133C476.603 239.848 478.626 238.376 480.53 236.733C481.03 236.318 481.479 235.835 481.866 235.294C481.701 235.496 481.572 235.729 481.484 235.982C481.484 236.17 481.389 236.295 481.293 236.524C481.218 236.769 481.161 237.02 481.122 237.275C481.041 237.596 480.99 237.924 480.969 238.255C480.969 238.381 480.969 238.401 480.969 238.36V238.214C480.836 236.235 480.483 234.281 479.919 232.395C479.156 229.664 478.252 226.984 477.21 224.366C474.878 218.593 472.24 212.973 469.311 207.535C466.334 201.946 463.167 196.356 459.771 190.85C456.375 185.344 452.902 179.859 449.411 174.854L472.078 157.21Z" fill="#4A75B9"/>
<g opacity="0.7">
<path opacity="0.7" d="M472.078 157.21C475.722 163.467 479.061 169.181 482.343 175.313C485.624 181.444 488.849 187.513 491.883 193.854C494.916 200.194 497.797 206.742 500.411 213.75C501.769 217.42 502.928 221.173 503.884 224.991C505.114 229.644 505.68 234.477 505.563 239.319V240.132C505.57 240.271 505.57 240.411 505.563 240.55C505.563 241.3 505.372 242.051 505.239 242.802C505.105 243.553 504.933 244.137 504.743 244.888C504.552 245.638 504.342 246.035 504.132 246.619C503.403 248.423 502.467 250.119 501.346 251.666C499.787 253.795 498.015 255.726 496.061 257.422C493.06 260.006 489.869 262.315 486.521 264.325C480.631 267.845 474.567 271.006 468.357 273.794C462.347 276.588 456.356 279.133 450.326 281.531C444.297 283.929 438.363 286.244 432.086 288.539L424.816 262.26C430.54 260.55 436.379 258.444 442.084 256.316C447.789 254.189 453.532 251.812 458.951 249.33C464.268 246.928 469.454 244.192 474.482 241.133C476.603 239.848 478.626 238.376 480.53 236.733C481.03 236.318 481.479 235.835 481.866 235.294C481.701 235.496 481.572 235.729 481.484 235.982C481.484 236.17 481.389 236.295 481.293 236.524C481.218 236.769 481.161 237.02 481.122 237.275C481.041 237.596 480.99 237.924 480.969 238.255C480.969 238.381 480.969 238.401 480.969 238.36V238.214C480.836 236.235 480.483 234.281 479.919 232.395C479.156 229.664 478.252 226.984 477.21 224.366C474.878 218.593 472.24 212.973 469.311 207.535C466.334 201.946 463.167 196.356 459.771 190.85C456.375 185.344 452.902 179.859 449.411 174.854L472.078 157.21Z" fill="white"/>
</g>
<path d="M452.768 229.58C452.641 229.578 452.516 229.541 452.406 229.471C452.296 229.402 452.204 229.303 452.139 229.183C452.083 229.092 452.044 228.99 452.025 228.882C452.007 228.774 452.008 228.664 452.029 228.557C452.051 228.449 452.092 228.348 452.15 228.259C452.208 228.169 452.282 228.094 452.368 228.036L455.344 225.951C458.122 224.036 460.303 221.243 461.598 217.944C462.892 214.644 463.24 210.993 462.595 207.473L456.603 174.312C456.165 171.833 454.974 169.587 453.223 167.939C451.473 166.292 449.265 165.337 446.956 165.231C444.648 165.125 442.375 165.873 440.503 167.355C438.632 168.836 437.273 170.964 436.646 173.394L428.155 205.908C427.228 209.345 427.279 213.009 428.301 216.414C429.323 219.819 431.269 222.803 433.879 224.971L436.703 227.306C436.862 227.442 436.965 227.641 436.99 227.86C437.015 228.079 436.96 228.3 436.837 228.474C436.777 228.56 436.702 228.631 436.617 228.685C436.531 228.738 436.437 228.773 436.34 228.787C436.242 228.8 436.143 228.792 436.048 228.764C435.953 228.735 435.865 228.687 435.787 228.62L433.116 226.305C430.247 223.944 428.102 220.684 426.967 216.959C425.833 213.234 425.761 209.22 426.762 205.45L435.272 172.936C436.003 170.159 437.565 167.732 439.709 166.042C441.853 164.353 444.454 163.5 447.095 163.62C449.736 163.741 452.263 164.827 454.271 166.706C456.279 168.584 457.651 171.145 458.168 173.978L464.159 207.16C464.866 211.006 464.488 214.995 463.074 218.601C461.66 222.206 459.277 225.257 456.241 227.348L453.245 229.434C453.179 229.492 453.103 229.535 453.021 229.56C452.939 229.585 452.853 229.592 452.768 229.58Z" fill="#263238"/>
<path d="M457.348 175L435.921 174.02C435.821 174.015 435.722 173.988 435.632 173.941C435.541 173.894 435.459 173.828 435.392 173.747C435.325 173.665 435.273 173.57 435.239 173.467C435.205 173.363 435.191 173.254 435.196 173.144C435.215 172.927 435.308 172.725 435.456 172.578C435.604 172.431 435.797 172.351 435.997 172.352L457.405 173.332C457.505 173.337 457.604 173.364 457.694 173.411C457.785 173.458 457.866 173.524 457.934 173.605C458.001 173.687 458.053 173.782 458.087 173.885C458.12 173.989 458.135 174.098 458.13 174.208C458.128 174.316 458.105 174.423 458.064 174.522C458.023 174.622 457.965 174.711 457.892 174.785C457.819 174.858 457.733 174.916 457.64 174.953C457.546 174.99 457.447 175.006 457.348 175Z" fill="#263238"/>
<path d="M446.93 165.281C446.732 165.276 446.544 165.19 446.402 165.039C446.26 164.888 446.176 164.684 446.167 164.468C446.167 160.297 444.984 153.06 441.416 151.475C441.317 151.439 441.226 151.381 441.149 151.305C441.071 151.228 441.009 151.136 440.965 151.032C440.922 150.929 440.898 150.817 440.896 150.703C440.893 150.589 440.912 150.476 440.951 150.371C440.991 150.265 441.049 150.169 441.123 150.09C441.197 150.01 441.286 149.947 441.383 149.906C441.48 149.865 441.584 149.846 441.688 149.85C441.792 149.855 441.894 149.882 441.988 149.932C447.273 152.309 447.712 163.196 447.712 164.53C447.712 164.75 447.635 164.962 447.497 165.121C447.358 165.28 447.169 165.375 446.968 165.386L446.93 165.281Z" fill="#263238"/>
<path d="M381.39 193.624H381.238C381.041 193.579 380.868 193.451 380.757 193.267C380.647 193.084 380.607 192.86 380.646 192.644C383.165 178.942 393.582 157.315 402.76 150.933C402.844 150.876 402.937 150.838 403.034 150.821C403.132 150.803 403.231 150.808 403.327 150.833C403.423 150.858 403.513 150.904 403.593 150.967C403.672 151.031 403.739 151.112 403.79 151.204C403.846 151.293 403.884 151.394 403.903 151.5C403.921 151.606 403.92 151.716 403.898 151.821C403.877 151.926 403.836 152.026 403.778 152.114C403.72 152.201 403.646 152.275 403.561 152.33C394.689 158.462 384.577 179.442 382.134 192.936C382.103 193.128 382.012 193.301 381.876 193.427C381.74 193.553 381.568 193.622 381.39 193.624Z" fill="#263238"/>
<path d="M387.648 195.772C386.465 199.089 383.832 201.091 381.924 200.236C380.016 199.381 379.272 196.064 380.455 192.665C381.638 189.266 384.271 187.347 386.179 188.223C388.087 189.099 388.85 192.456 387.648 195.772Z" fill="white"/>
<path d="M438.02 228.078C438.02 229.621 437.142 230.852 436.207 230.81C435.272 230.768 434.547 229.475 434.604 227.911C434.661 226.347 435.482 225.116 436.417 225.179C437.352 225.242 438.077 226.514 438.02 228.078Z" fill="white"/>
<path d="M454.466 228.829C454.466 230.372 453.608 231.602 452.654 231.561C451.7 231.519 451.013 230.226 451.07 228.662C451.127 227.098 451.929 225.888 452.978 225.93C454.028 225.971 454.524 227.327 454.466 228.829Z" fill="white"/>
<path d="M778.025 199.902L776.117 199.777C776.434 195.337 775.904 190.873 774.56 186.668C773.215 182.464 771.086 178.611 768.307 175.354C765.528 172.097 762.16 169.506 758.417 167.747C754.673 165.988 750.636 165.099 746.562 165.136V163.05C750.898 163.01 755.194 163.955 759.178 165.825C763.162 167.696 766.746 170.451 769.705 173.916C772.663 177.381 774.93 181.48 776.362 185.954C777.795 190.427 778.361 195.177 778.025 199.902Z" fill="#4A75B9"/>
<path d="M779.031 208.647L777.925 225.915L779.833 226.061L780.939 208.793L779.031 208.647Z" fill="#4A75B9"/>
<path d="M746.562 170.349H614.91C607.72 170.479 600.832 173.526 595.584 178.9C590.337 184.274 587.105 191.589 586.519 199.422L585.317 218.797C585.044 222.525 585.484 226.275 586.61 229.806C587.736 233.338 589.523 236.575 591.856 239.31C594.19 242.045 597.019 244.219 600.164 245.693C603.308 247.167 606.7 247.908 610.121 247.87H741.773L767.302 265.076L771.347 199.422C771.623 195.695 771.185 191.946 770.061 188.415C768.938 184.883 767.153 181.646 764.821 178.911C762.489 176.175 759.661 174.001 756.517 172.527C753.373 171.053 749.983 170.311 746.562 170.349Z" fill="#4A75B9"/>
<path d="M739.884 198.109H617.944V202.947H739.884V198.109Z" fill="white"/>
<path d="M738.816 215.273H648.281V220.111H738.816V215.273Z" fill="white"/>
<path d="M548.512 274.002H683.064C686.562 273.961 690.03 274.717 693.246 276.223C696.461 277.729 699.355 279.951 701.741 282.747C704.127 285.544 705.953 288.853 707.103 292.465C708.254 296.076 708.703 299.91 708.421 303.722L707.2 323.535C706.595 331.54 703.291 339.014 697.928 344.506C692.565 349.998 685.527 353.116 678.179 353.254H543.608L515.332 370.877L519.491 303.722C520.091 295.715 523.395 288.238 528.758 282.745C534.122 277.252 541.163 274.136 548.512 274.002Z" fill="white"/>
<path opacity="0.15" d="M548.512 274.002H683.064C686.562 273.961 690.03 274.717 693.246 276.223C696.461 277.729 699.355 279.951 701.741 282.747C704.127 285.544 705.953 288.853 707.103 292.465C708.254 296.076 708.703 299.91 708.421 303.722L707.2 323.535C706.595 331.54 703.291 339.014 697.928 344.506C692.565 349.998 685.527 353.116 678.179 353.254H543.608L515.332 370.877L519.491 303.722C520.091 295.715 523.395 288.238 528.758 282.745C534.122 277.252 541.163 274.136 548.512 274.002Z" fill="#4A75B9"/>
<path opacity="0.5" d="M676.233 302.387H551.526V307.351H676.233V302.387Z" fill="#4A75B9"/>
<path opacity="0.5" d="M599.722 319.927H550.438V324.89H599.722V319.927Z" fill="#4A75B9"/>
<path opacity="0.5" d="M643.282 319.927H611.8V324.89H643.282V319.927Z" fill="#4A75B9"/>
</svg>
