<svg width="318" height="42" viewBox="0 0 318 42" fill="none" xmlns="http://www.w3.org/2000/svg">
<g opacity="0.75">
<ellipse cx="10.3547" cy="11.0117" rx="7.02011" ry="6.01166" fill="#0D47A1"/>
<ellipse cx="31.9415" cy="30.6998" rx="7.02011" ry="6.01166" fill="#0D47A1"/>
<rect width="44.1563" height="8.74768" rx="4.37384" transform="matrix(0.793591 -0.608452 0.722661 0.691203 0 31.867)" fill="#0D47A1"/>
<path d="M68.376 36.36C66.912 36.36 65.568 36.18 64.344 35.82C63.12 35.436 62.016 34.872 61.032 34.128C60.048 33.384 59.172 32.484 58.404 31.428L61.464 27.972C62.64 29.604 63.792 30.732 64.92 31.356C66.048 31.98 67.32 32.292 68.736 32.292C69.552 32.292 70.296 32.172 70.968 31.932C71.64 31.668 72.168 31.32 72.552 30.888C72.936 30.432 73.128 29.916 73.128 29.34C73.128 28.932 73.044 28.56 72.876 28.224C72.732 27.864 72.504 27.552 72.192 27.288C71.88 27 71.496 26.736 71.04 26.496C70.584 26.256 70.068 26.052 69.492 25.884C68.916 25.716 68.28 25.56 67.584 25.416C66.264 25.152 65.112 24.804 64.128 24.372C63.144 23.916 62.316 23.364 61.644 22.716C60.972 22.044 60.48 21.3 60.168 20.484C59.856 19.644 59.7 18.696 59.7 17.64C59.7 16.584 59.928 15.612 60.384 14.724C60.864 13.836 61.512 13.068 62.328 12.42C63.144 11.772 64.092 11.268 65.172 10.908C66.252 10.548 67.416 10.368 68.664 10.368C70.08 10.368 71.34 10.536 72.444 10.872C73.572 11.208 74.556 11.712 75.396 12.384C76.26 13.032 76.968 13.824 77.52 14.76L74.424 17.82C73.944 17.076 73.404 16.464 72.804 15.984C72.204 15.48 71.556 15.108 70.86 14.868C70.164 14.604 69.432 14.472 68.664 14.472C67.8 14.472 67.044 14.592 66.396 14.832C65.772 15.072 65.28 15.42 64.92 15.876C64.56 16.308 64.38 16.836 64.38 17.46C64.38 17.94 64.488 18.372 64.704 18.756C64.92 19.116 65.22 19.44 65.604 19.728C66.012 20.016 66.528 20.268 67.152 20.484C67.776 20.7 68.484 20.892 69.276 21.06C70.596 21.324 71.784 21.684 72.84 22.14C73.896 22.572 74.796 23.1 75.54 23.724C76.284 24.324 76.848 25.02 77.232 25.812C77.616 26.58 77.808 27.444 77.808 28.404C77.808 30.06 77.412 31.488 76.62 32.688C75.852 33.864 74.76 34.776 73.344 35.424C71.928 36.048 70.272 36.36 68.376 36.36ZM82.0903 36V17.028H86.4463L86.5183 20.844L85.7983 21.132C86.0143 20.508 86.3383 19.932 86.7703 19.404C87.2023 18.852 87.7183 18.384 88.3183 18C88.9183 17.592 89.5543 17.28 90.2263 17.064C90.8983 16.824 91.5823 16.704 92.2783 16.704C93.3103 16.704 94.2223 16.872 95.0143 17.208C95.8303 17.52 96.5023 18.024 97.0303 18.72C97.5823 19.416 97.9903 20.304 98.2543 21.384L97.5703 21.24L97.8583 20.664C98.1223 20.088 98.4943 19.572 98.9743 19.116C99.4543 18.636 99.9943 18.216 100.594 17.856C101.194 17.472 101.818 17.184 102.466 16.992C103.138 16.8 103.798 16.704 104.446 16.704C105.886 16.704 107.086 16.992 108.046 17.568C109.006 18.144 109.726 19.02 110.206 20.196C110.686 21.372 110.926 22.824 110.926 24.552V36H106.462V24.84C106.462 23.88 106.33 23.088 106.066 22.464C105.826 21.84 105.442 21.384 104.914 21.096C104.41 20.784 103.774 20.628 103.006 20.628C102.406 20.628 101.83 20.736 101.278 20.952C100.75 21.144 100.294 21.432 99.9103 21.816C99.5263 22.176 99.2263 22.596 99.0103 23.076C98.7943 23.556 98.6863 24.084 98.6863 24.66V36H94.2223V24.804C94.2223 23.892 94.0903 23.136 93.8263 22.536C93.5623 21.912 93.1783 21.444 92.6743 21.132C92.1703 20.796 91.5583 20.628 90.8383 20.628C90.2383 20.628 89.6743 20.736 89.1463 20.952C88.6183 21.144 88.1623 21.42 87.7783 21.78C87.3943 22.14 87.0943 22.56 86.8783 23.04C86.6623 23.52 86.5543 24.048 86.5543 24.624V36H82.0903ZM123.006 36.36C121.446 36.36 120.03 35.928 118.758 35.064C117.486 34.2 116.466 33.024 115.698 31.536C114.93 30.048 114.546 28.356 114.546 26.46C114.546 24.564 114.93 22.872 115.698 21.384C116.466 19.896 117.51 18.732 118.83 17.892C120.15 17.052 121.638 16.632 123.294 16.632C124.254 16.632 125.13 16.776 125.922 17.064C126.714 17.328 127.41 17.712 128.01 18.216C128.61 18.72 129.102 19.296 129.486 19.944C129.894 20.592 130.17 21.288 130.314 22.032L129.342 21.78V17.028H133.806V36H129.306V31.464L130.35 31.284C130.182 31.932 129.87 32.568 129.414 33.192C128.982 33.792 128.43 34.332 127.758 34.812C127.11 35.268 126.378 35.64 125.562 35.928C124.77 36.216 123.918 36.36 123.006 36.36ZM124.23 32.436C125.262 32.436 126.174 32.184 126.966 31.68C127.758 31.176 128.37 30.48 128.802 29.592C129.258 28.68 129.486 27.636 129.486 26.46C129.486 25.308 129.258 24.288 128.802 23.4C128.37 22.512 127.758 21.816 126.966 21.312C126.174 20.808 125.262 20.556 124.23 20.556C123.198 20.556 122.286 20.808 121.494 21.312C120.726 21.816 120.126 22.512 119.694 23.4C119.262 24.288 119.046 25.308 119.046 26.46C119.046 27.636 119.262 28.68 119.694 29.592C120.126 30.48 120.726 31.176 121.494 31.68C122.286 32.184 123.198 32.436 124.23 32.436ZM138.94 36V17.028H143.296L143.368 23.076L142.756 21.708C143.02 20.748 143.476 19.884 144.124 19.116C144.772 18.348 145.516 17.748 146.356 17.316C147.22 16.86 148.12 16.632 149.056 16.632C149.464 16.632 149.848 16.668 150.208 16.74C150.592 16.812 150.904 16.896 151.144 16.992L149.956 21.852C149.692 21.708 149.368 21.588 148.984 21.492C148.6 21.396 148.216 21.348 147.832 21.348C147.232 21.348 146.656 21.468 146.104 21.708C145.576 21.924 145.108 22.236 144.7 22.644C144.292 23.052 143.968 23.532 143.728 24.084C143.512 24.612 143.404 25.212 143.404 25.884V36H138.94ZM156.847 36V12.204H161.275V36H156.847ZM153.103 21.132V17.028H165.415V21.132H153.103ZM176.887 36L166.807 10.8H171.919L177.535 25.236C177.823 25.98 178.075 26.652 178.291 27.252C178.507 27.828 178.699 28.356 178.867 28.836C179.035 29.316 179.179 29.784 179.299 30.24C179.443 30.696 179.599 31.176 179.767 31.68H178.759C178.927 31.032 179.107 30.396 179.299 29.772C179.491 29.124 179.707 28.44 179.947 27.72C180.211 27 180.523 26.172 180.883 25.236L186.139 10.8H191.287L181.135 36H176.887ZM199.506 36.36C197.946 36.36 196.53 35.928 195.258 35.064C193.986 34.2 192.966 33.024 192.198 31.536C191.43 30.048 191.046 28.356 191.046 26.46C191.046 24.564 191.43 22.872 192.198 21.384C192.966 19.896 194.01 18.732 195.33 17.892C196.65 17.052 198.138 16.632 199.794 16.632C200.754 16.632 201.63 16.776 202.422 17.064C203.214 17.328 203.91 17.712 204.51 18.216C205.11 18.72 205.602 19.296 205.986 19.944C206.394 20.592 206.67 21.288 206.814 22.032L205.842 21.78V17.028H210.306V36H205.806V31.464L206.85 31.284C206.682 31.932 206.37 32.568 205.914 33.192C205.482 33.792 204.93 34.332 204.258 34.812C203.61 35.268 202.878 35.64 202.062 35.928C201.27 36.216 200.418 36.36 199.506 36.36ZM200.73 32.436C201.762 32.436 202.674 32.184 203.466 31.68C204.258 31.176 204.87 30.48 205.302 29.592C205.758 28.68 205.986 27.636 205.986 26.46C205.986 25.308 205.758 24.288 205.302 23.4C204.87 22.512 204.258 21.816 203.466 21.312C202.674 20.808 201.762 20.556 200.73 20.556C199.698 20.556 198.786 20.808 197.994 21.312C197.226 21.816 196.626 22.512 196.194 23.4C195.762 24.288 195.546 25.308 195.546 26.46C195.546 27.636 195.762 28.68 196.194 29.592C196.626 30.48 197.226 31.176 197.994 31.68C198.786 32.184 199.698 32.436 200.73 32.436ZM223.576 36.36C221.8 36.36 220.204 35.928 218.788 35.064C217.372 34.2 216.256 33.024 215.44 31.536C214.624 30.048 214.216 28.368 214.216 26.496C214.216 24.624 214.624 22.944 215.44 21.456C216.256 19.968 217.372 18.792 218.788 17.928C220.204 17.064 221.8 16.632 223.576 16.632C225.28 16.632 226.828 16.956 228.22 17.604C229.612 18.252 230.692 19.152 231.46 20.304L229.012 23.256C228.652 22.752 228.196 22.296 227.644 21.888C227.092 21.48 226.504 21.156 225.88 20.916C225.256 20.676 224.632 20.556 224.008 20.556C222.952 20.556 222.004 20.82 221.164 21.348C220.348 21.852 219.7 22.56 219.22 23.472C218.74 24.36 218.5 25.368 218.5 26.496C218.5 27.624 218.74 28.632 219.22 29.52C219.724 30.408 220.396 31.116 221.236 31.644C222.076 32.172 223.012 32.436 224.044 32.436C224.668 32.436 225.268 32.34 225.844 32.148C226.444 31.932 227.008 31.632 227.536 31.248C228.064 30.864 228.556 30.384 229.012 29.808L231.46 32.796C230.644 33.852 229.516 34.716 228.076 35.388C226.66 36.036 225.16 36.36 223.576 36.36ZM242.982 36.36C241.206 36.36 239.61 35.928 238.194 35.064C236.778 34.2 235.662 33.024 234.846 31.536C234.03 30.048 233.622 28.368 233.622 26.496C233.622 24.624 234.03 22.944 234.846 21.456C235.662 19.968 236.778 18.792 238.194 17.928C239.61 17.064 241.206 16.632 242.982 16.632C244.686 16.632 246.234 16.956 247.626 17.604C249.018 18.252 250.098 19.152 250.866 20.304L248.418 23.256C248.058 22.752 247.602 22.296 247.05 21.888C246.498 21.48 245.91 21.156 245.286 20.916C244.662 20.676 244.038 20.556 243.414 20.556C242.358 20.556 241.41 20.82 240.57 21.348C239.754 21.852 239.106 22.56 238.626 23.472C238.146 24.36 237.906 25.368 237.906 26.496C237.906 27.624 238.146 28.632 238.626 29.52C239.13 30.408 239.802 31.116 240.642 31.644C241.482 32.172 242.418 32.436 243.45 32.436C244.074 32.436 244.674 32.34 245.25 32.148C245.85 31.932 246.414 31.632 246.942 31.248C247.47 30.864 247.962 30.384 248.418 29.808L250.866 32.796C250.05 33.852 248.922 34.716 247.482 35.388C246.066 36.036 244.566 36.36 242.982 36.36ZM254.756 36V17.028H259.184V36H254.756ZM256.916 12.996C256.028 12.996 255.332 12.78 254.828 12.348C254.348 11.892 254.108 11.256 254.108 10.44C254.108 9.672 254.36 9.048 254.864 8.568C255.368 8.088 256.052 7.848 256.916 7.848C257.828 7.848 258.524 8.076 259.004 8.532C259.508 8.964 259.76 9.6 259.76 10.44C259.76 11.184 259.508 11.796 259.004 12.276C258.5 12.756 257.804 12.996 256.916 12.996ZM264.799 36V17.028H269.119L269.191 20.916L268.363 21.348C268.603 20.484 269.071 19.704 269.767 19.008C270.463 18.288 271.291 17.712 272.251 17.28C273.211 16.848 274.195 16.632 275.203 16.632C276.643 16.632 277.843 16.92 278.803 17.496C279.787 18.072 280.519 18.936 280.999 20.088C281.503 21.24 281.755 22.68 281.755 24.408V36H277.327V24.732C277.327 23.772 277.195 22.98 276.931 22.356C276.667 21.708 276.259 21.24 275.707 20.952C275.155 20.64 274.483 20.496 273.691 20.52C273.043 20.52 272.443 20.628 271.891 20.844C271.363 21.036 270.895 21.324 270.487 21.708C270.103 22.068 269.791 22.488 269.551 22.968C269.335 23.448 269.227 23.976 269.227 24.552V36H267.031C266.599 36 266.191 36 265.807 36C265.447 36 265.111 36 264.799 36ZM295.629 36.36C293.637 36.36 291.873 35.94 290.337 35.1C288.825 34.26 287.637 33.12 286.773 31.68C285.933 30.216 285.513 28.548 285.513 26.676C285.513 25.188 285.753 23.832 286.233 22.608C286.713 21.384 287.373 20.328 288.213 19.44C289.077 18.528 290.097 17.832 291.273 17.352C292.473 16.848 293.781 16.596 295.197 16.596C296.445 16.596 297.609 16.836 298.689 17.316C299.769 17.796 300.705 18.456 301.497 19.296C302.289 20.112 302.889 21.096 303.297 22.248C303.729 23.376 303.933 24.612 303.909 25.956L303.873 27.504H288.501L287.673 24.48H300.165L299.589 25.092V24.3C299.517 23.556 299.277 22.908 298.869 22.356C298.461 21.78 297.933 21.336 297.285 21.024C296.661 20.688 295.965 20.52 295.197 20.52C294.021 20.52 293.025 20.748 292.209 21.204C291.417 21.66 290.817 22.32 290.409 23.184C290.001 24.024 289.797 25.08 289.797 26.352C289.797 27.576 290.049 28.644 290.553 29.556C291.081 30.468 291.813 31.176 292.749 31.68C293.709 32.16 294.825 32.4 296.097 32.4C296.985 32.4 297.801 32.256 298.545 31.968C299.289 31.68 300.093 31.164 300.957 30.42L303.153 33.48C302.505 34.08 301.761 34.596 300.921 35.028C300.105 35.436 299.241 35.76 298.329 36C297.417 36.24 296.517 36.36 295.629 36.36Z" fill="black"/>
</g>
</svg>
